<svg width="400" height="328" viewBox="0 0 400 328" fill="none" xmlns="http://www.w3.org/2000/svg">
<g clip-path="url(#clip0_8841_2)">
<rect width="400" height="328" fill="white"/>
<path d="M80 12C80 9.79087 81.7909 8 84 8H590C592.209 8 594 9.79086 594 12V347C594 349.209 592.209 351 590 351H84C81.7909 351 80 349.209 80 347V12Z" fill="#D6D3D1"/>
<path d="M80 347C80 349.209 81.7909 351 84 351H590C592.209 351 594 349.209 594 347V12C594 9.79086 592.209 8 590 8V0C596.627 0 602 5.37258 602 12V347C602 353.627 596.627 359 590 359H84C77.3726 359 72 353.627 72 347V12C72 5.3726 77.3726 0 84 0V8C81.7909 8 80 9.79086 80 12V347ZM590 0V8H84V0H590Z" fill="#E7E5E4"/>
<line x1="80" y1="68" x2="605" y2="68" stroke="#E7E5E4" stroke-width="4"/>
<path d="M118.995 40.9763C118.743 40.9763 118.497 40.9981 118.257 41.0448L120.534 44.9881H118.992L116.987 41.5121L113.509 35.488C113.901 35.2606 114.256 34.9678 114.549 34.6221C115.15 33.9181 115.514 33.0086 115.514 32.0119C115.514 29.7972 113.717 28 111.503 28C109.289 28 107.492 29.7972 107.492 32.0119C107.492 33.0086 107.857 33.9213 108.458 34.6221L104.752 41.0448C104.512 40.9981 104.266 40.9763 104.014 40.9763C101.797 40.9763 100 42.7736 100 44.9881C100 47.2028 101.797 49 104.014 49C106.231 49 108.025 47.2028 108.025 44.9881C108.025 43.9914 107.66 43.0788 107.059 42.378L105.552 44.9881H104.011L106.016 41.5121L109.495 35.488L111.5 32.0119V34.6782L110.762 35.9552C111.002 36.0019 111.248 36.0237 111.5 36.0237C111.752 36.0237 111.998 36.0019 112.238 35.9552L115.944 42.378C115.343 43.0819 114.978 43.9914 114.978 44.9881C114.978 47.2028 116.775 49 118.989 49C121.203 49 123 47.2028 123 44.9881C123 42.7736 121.203 40.9763 118.989 40.9763H118.995Z" fill="white"/>
<rect x="231" y="32" width="68" height="8" rx="4" fill="white"/>
<rect x="303" y="32" width="68" height="8" rx="4" fill="white"/>
<rect x="375" y="32" width="68" height="8" rx="4" fill="white"/>
<path d="M111.712 174L101.44 139.92H105.856L114.976 171.312H113.824L122.944 139.92H127.36L117.088 174H111.712ZM132.621 174V169.968H141.117V143.952H132.621V139.92H153.741V143.952H145.245V169.968H153.741V174H132.621ZM169.898 174V143.952H159.483V139.92H184.443V143.952H174.027V174H169.898ZM189.704 174V139.92H200.072C203.656 139.92 206.488 140.832 208.568 142.656C210.648 144.448 211.688 146.928 211.688 150.096C211.688 151.696 211.32 153.12 210.584 154.368C209.848 155.584 208.904 156.544 207.752 157.248C206.6 157.952 205.416 158.352 204.2 158.448L204.008 157.872C206.28 158 207.976 158.544 209.096 159.504C210.248 160.464 210.92 162.032 211.112 164.208L211.976 174H207.848L207.032 164.736C206.936 163.68 206.68 162.832 206.264 162.192C205.88 161.52 205.256 161.04 204.392 160.752C203.56 160.432 202.408 160.272 200.936 160.272H193.832V174H189.704ZM193.832 156.24H200.072C202.44 156.24 204.248 155.712 205.496 154.656C206.744 153.568 207.368 152.048 207.368 150.096C207.368 148.112 206.744 146.592 205.496 145.536C204.248 144.48 202.44 143.952 200.072 143.952H193.832V156.24ZM218.965 174V169.968H227.461V143.952H218.965V139.92H240.085V143.952H231.589V169.968H240.085V174H218.965ZM247.266 174V139.92H253.122L265.218 169.296V139.92H269.346V174H263.49L251.394 144.624V174H247.266ZM277.008 174V139.92H297.744V143.952H281.136V154.944H297.168V158.88H281.136V169.968H298.128V174H277.008Z" fill="white"/>
<rect x="100" y="204" width="241" height="8" rx="4" fill="white"/>
<rect x="100" y="220" width="185" height="8" rx="4" fill="white"/>
<rect x="100" y="244" width="127" height="27" rx="4" fill="white"/>
<rect y="126" width="400" height="202" fill="url(#paint0_linear_8841_2)"/>
<circle cx="64" cy="257" r="24" fill="#C9FE6E"/>
<path d="M70.3638 260.536L68.9496 259.121L70.3638 257.707C72.3164 255.755 72.3164 252.589 70.3638 250.636C68.4112 248.683 65.2453 248.683 63.2927 250.636L61.8785 252.05L60.4643 250.636L61.8785 249.222C64.6122 246.488 69.0443 246.488 71.778 249.222C74.5117 251.955 74.5117 256.388 71.778 259.121L70.3638 260.536ZM67.5353 263.364L66.1211 264.778C63.3875 267.512 58.9553 267.512 56.2216 264.778C53.488 262.045 53.488 257.612 56.2216 254.879L57.6358 253.464L59.0501 254.879L57.6358 256.293C55.6832 258.246 55.6832 261.411 57.6358 263.364C59.5885 265.317 62.7543 265.317 64.7069 263.364L66.1211 261.95L67.5353 263.364ZM66.8282 252.757L68.2425 254.172L61.1714 261.243L59.7572 259.828L66.8282 252.757Z" fill="#0C0A09"/>
<path d="M206.909 274.36L210.001 282.854L207.182 283.88L204.09 275.386L199.918 278.542L201.409 263.633L212.134 274.096L206.909 274.36Z" fill="#0C0A09"/>
</g>
<defs>
<linearGradient id="paint0_linear_8841_2" x1="200" y1="126" x2="200" y2="328" gradientUnits="userSpaceOnUse">
<stop stop-color="white" stop-opacity="0"/>
<stop offset="1" stop-color="white"/>
</linearGradient>
<clipPath id="clip0_8841_2">
<rect width="400" height="328" fill="white"/>
</clipPath>
</defs>
</svg>
