<svg width="400" height="328" viewBox="0 0 400 328" fill="none" xmlns="http://www.w3.org/2000/svg">
<g clip-path="url(#clip0_8844_83)">
<rect width="400" height="328" fill="white"/>
<path d="M80 12C80 9.79087 81.7909 8 84 8H590C592.209 8 594 9.79086 594 12V347C594 349.209 592.209 351 590 351H84C81.7909 351 80 349.209 80 347V12Z" fill="#D6D3D1"/>
<path d="M80.0049 347.206C80.1121 349.319 81.86 351 84 351H590C592.14 351 593.888 349.319 593.995 347.206L594 347V12C594 9.85996 592.319 8.11211 590.206 8.00488L590 8V0C596.627 1.28855e-07 602 5.37258 602 12V347C602 353.627 596.627 359 590 359H84C77.3726 359 72 353.627 72 347V12C72 5.3726 77.3726 0 84 0V8L83.7939 8.00488C81.6806 8.11211 80 9.85997 80 12V347L80.0049 347.206ZM590 0V8H84V0H590Z" fill="#E7E5E4"/>
<line x1="210" y1="8" x2="210" y2="360" stroke="#E7E5E4" stroke-width="4"/>
<path d="M118.995 40.9763C118.743 40.9763 118.497 40.9981 118.257 41.0448L120.534 44.9881H118.992L116.987 41.5121L113.509 35.488C113.901 35.2606 114.256 34.9678 114.549 34.6221C115.15 33.9181 115.514 33.0086 115.514 32.0119C115.514 29.7972 113.717 28 111.503 28C109.289 28 107.492 29.7972 107.492 32.0119C107.492 33.0086 107.857 33.9213 108.458 34.6221L104.752 41.0448C104.512 40.9981 104.266 40.9763 104.014 40.9763C101.797 40.9763 100 42.7736 100 44.9881C100 47.2028 101.797 49 104.014 49C106.231 49 108.025 47.2028 108.025 44.9881C108.025 43.9914 107.66 43.0788 107.059 42.378L105.552 44.9881H104.011L106.016 41.5121L109.495 35.488L111.5 32.0119V34.6782L110.762 35.9552C111.002 36.0019 111.248 36.0237 111.5 36.0237C111.752 36.0237 111.998 36.0019 112.238 35.9552L115.944 42.378C115.343 43.0819 114.978 43.9914 114.978 44.9881C114.978 47.2028 116.775 49 118.989 49C121.203 49 123 47.2028 123 44.9881C123 42.7736 121.203 40.9763 118.989 40.9763H118.995Z" fill="white"/>
<rect x="228" y="104" width="89" height="92" rx="4" fill="#A6A09B"/>
<rect x="337" y="104" width="89" height="92" rx="4" fill="#A6A09B"/>
<rect x="228" y="216" width="198" height="149" rx="4" fill="#A6A09B"/>
<rect y="126" width="400" height="202" fill="url(#paint0_linear_8844_83)"/>
<circle cx="106" cy="83" r="6" fill="white"/>
<rect x="120" y="79" width="68" height="8" rx="4" fill="white"/>
<circle cx="106" cy="111" r="6" fill="#E7E5E4"/>
<rect x="120" y="107" width="57" height="8" rx="4" fill="#E7E5E4"/>
<circle cx="106" cy="139" r="6" fill="#E7E5E4"/>
<rect x="120" y="135" width="68" height="8" rx="4" fill="#E7E5E4"/>
<circle cx="106" cy="167" r="6" fill="#E7E5E4"/>
<rect x="120" y="163" width="63" height="8" rx="4" fill="#E7E5E4"/>
<circle cx="106" cy="195" r="6" fill="#E7E5E4"/>
<rect x="120" y="191" width="64" height="8" rx="4" fill="#E7E5E4"/>
<path d="M242.928 72.768C240.528 72.768 238.4 72.272 236.544 71.28C234.688 70.288 233.2 68.928 232.08 67.2C230.96 65.44 230.304 63.408 230.112 61.104L234.432 60.816C234.656 62.512 235.136 63.952 235.872 65.136C236.64 66.32 237.616 67.216 238.8 67.824C240.016 68.432 241.424 68.736 243.024 68.736C244.624 68.736 245.968 68.544 247.056 68.16C248.144 67.744 248.96 67.152 249.504 66.384C250.08 65.584 250.368 64.64 250.368 63.552C250.368 62.464 250.112 61.52 249.6 60.72C249.12 59.888 248.192 59.12 246.816 58.416C245.472 57.712 243.472 56.992 240.816 56.256C238.448 55.584 236.528 54.848 235.056 54.048C233.616 53.248 232.56 52.272 231.888 51.12C231.248 49.968 230.928 48.544 230.928 46.848C230.928 44.928 231.376 43.248 232.272 41.808C233.2 40.336 234.512 39.2 236.208 38.4C237.904 37.568 239.92 37.152 242.256 37.152C244.592 37.152 246.592 37.632 248.256 38.592C249.92 39.52 251.232 40.8 252.192 42.432C253.184 44.064 253.808 45.92 254.064 48L249.744 48.288C249.552 46.912 249.152 45.696 248.544 44.64C247.936 43.552 247.104 42.704 246.048 42.096C244.992 41.488 243.696 41.184 242.16 41.184C240.048 41.184 238.368 41.696 237.12 42.72C235.872 43.712 235.248 45.024 235.248 46.656C235.248 47.712 235.472 48.592 235.92 49.296C236.4 49.968 237.232 50.576 238.416 51.12C239.6 51.632 241.264 52.192 243.408 52.8C246.192 53.568 248.4 54.432 250.032 55.392C251.696 56.352 252.88 57.504 253.584 58.848C254.32 60.16 254.688 61.76 254.688 63.648C254.688 65.44 254.192 67.024 253.2 68.4C252.208 69.776 250.832 70.848 249.072 71.616C247.312 72.384 245.264 72.768 242.928 72.768ZM267.821 72.576C266.221 72.576 264.781 72.288 263.501 71.712C262.221 71.136 261.213 70.336 260.477 69.312C259.741 68.256 259.373 67.04 259.373 65.664C259.373 63.488 260.013 61.808 261.293 60.624C262.605 59.408 264.653 58.528 267.437 57.984L275.981 56.256C275.981 54.08 275.485 52.464 274.493 51.408C273.533 50.352 272.141 49.824 270.317 49.824C268.557 49.824 267.181 50.224 266.189 51.024C265.197 51.792 264.509 52.912 264.125 54.384L259.853 54.048C260.333 51.648 261.469 49.712 263.261 48.24C265.085 46.736 267.437 45.984 270.317 45.984C273.389 45.984 275.773 46.912 277.469 48.768C279.165 50.592 280.013 53.12 280.013 56.352V66.912C280.013 67.488 280.141 67.888 280.397 68.112C280.653 68.336 281.037 68.448 281.549 68.448H283.181V72C282.989 72.032 282.685 72.048 282.269 72.048C281.853 72.08 281.453 72.096 281.069 72.096C279.981 72.096 279.053 71.92 278.285 71.568C277.549 71.216 276.989 70.656 276.605 69.888C276.221 69.088 276.013 68.064 275.981 66.816H276.749C276.525 67.904 275.981 68.896 275.117 69.792C274.285 70.656 273.229 71.344 271.949 71.856C270.669 72.336 269.293 72.576 267.821 72.576ZM268.205 69.024C269.933 69.024 271.373 68.736 272.525 68.16C273.677 67.552 274.541 66.72 275.117 65.664C275.693 64.576 275.981 63.328 275.981 61.92V59.712L268.205 61.248C266.477 61.568 265.277 62.064 264.605 62.736C263.933 63.376 263.597 64.224 263.597 65.28C263.597 66.464 263.997 67.392 264.797 68.064C265.629 68.704 266.765 69.024 268.205 69.024ZM296.603 72.576C295.003 72.576 293.563 72.288 292.283 71.712C291.003 71.136 289.995 70.336 289.259 69.312C288.523 68.256 288.155 67.04 288.155 65.664C288.155 63.488 288.795 61.808 290.075 60.624C291.387 59.408 293.435 58.528 296.219 57.984L304.763 56.256C304.763 54.08 304.267 52.464 303.275 51.408C302.315 50.352 300.923 49.824 299.099 49.824C297.339 49.824 295.963 50.224 294.971 51.024C293.979 51.792 293.291 52.912 292.907 54.384L288.635 54.048C289.115 51.648 290.251 49.712 292.043 48.24C293.867 46.736 296.219 45.984 299.099 45.984C302.171 45.984 304.555 46.912 306.251 48.768C307.947 50.592 308.795 53.12 308.795 56.352V66.912C308.795 67.488 308.923 67.888 309.179 68.112C309.435 68.336 309.819 68.448 310.331 68.448H311.963V72C311.771 72.032 311.467 72.048 311.051 72.048C310.635 72.08 310.235 72.096 309.851 72.096C308.763 72.096 307.835 71.92 307.067 71.568C306.331 71.216 305.771 70.656 305.387 69.888C305.003 69.088 304.795 68.064 304.763 66.816H305.531C305.307 67.904 304.763 68.896 303.899 69.792C303.067 70.656 302.011 71.344 300.731 71.856C299.451 72.336 298.075 72.576 296.603 72.576ZM296.987 69.024C298.715 69.024 300.155 68.736 301.307 68.16C302.459 67.552 303.323 66.72 303.899 65.664C304.475 64.576 304.763 63.328 304.763 61.92V59.712L296.987 61.248C295.259 61.568 294.059 62.064 293.387 62.736C292.715 63.376 292.379 64.224 292.379 65.28C292.379 66.464 292.779 67.392 293.579 68.064C294.411 68.704 295.547 69.024 296.987 69.024ZM329.272 72.768C326.872 72.768 324.744 72.272 322.888 71.28C321.032 70.288 319.544 68.928 318.424 67.2C317.304 65.44 316.648 63.408 316.456 61.104L320.776 60.816C321 62.512 321.48 63.952 322.216 65.136C322.984 66.32 323.96 67.216 325.144 67.824C326.36 68.432 327.768 68.736 329.368 68.736C330.968 68.736 332.312 68.544 333.4 68.16C334.488 67.744 335.304 67.152 335.848 66.384C336.424 65.584 336.712 64.64 336.712 63.552C336.712 62.464 336.456 61.52 335.944 60.72C335.464 59.888 334.536 59.12 333.16 58.416C331.816 57.712 329.816 56.992 327.16 56.256C324.792 55.584 322.872 54.848 321.4 54.048C319.96 53.248 318.904 52.272 318.232 51.12C317.592 49.968 317.272 48.544 317.272 46.848C317.272 44.928 317.72 43.248 318.616 41.808C319.544 40.336 320.856 39.2 322.552 38.4C324.248 37.568 326.264 37.152 328.6 37.152C330.936 37.152 332.936 37.632 334.6 38.592C336.264 39.52 337.576 40.8 338.536 42.432C339.528 44.064 340.152 45.92 340.408 48L336.088 48.288C335.896 46.912 335.496 45.696 334.888 44.64C334.28 43.552 333.448 42.704 332.392 42.096C331.336 41.488 330.04 41.184 328.504 41.184C326.392 41.184 324.712 41.696 323.464 42.72C322.216 43.712 321.592 45.024 321.592 46.656C321.592 47.712 321.816 48.592 322.264 49.296C322.744 49.968 323.576 50.576 324.76 51.12C325.944 51.632 327.608 52.192 329.752 52.8C332.536 53.568 334.744 54.432 336.376 55.392C338.04 56.352 339.224 57.504 339.928 58.848C340.664 60.16 341.032 61.76 341.032 63.648C341.032 65.44 340.536 67.024 339.544 68.4C338.552 69.776 337.176 70.848 335.416 71.616C333.656 72.384 331.608 72.768 329.272 72.768Z" fill="white"/>
<circle cx="327" cy="206" r="24" fill="#C9FE6E"/>
<path d="M332 201C328.57 201 325.645 203.158 324.507 206.19L326.38 206.893C327.234 204.619 329.428 203 332 203C332.698 203 333.369 203.119 333.992 203.339C336.327 204.16 338 206.385 338 209C338 212.314 335.314 215 332 215H322C318.686 215 316 212.314 316 209C316 206.385 317.673 204.16 320.008 203.339C320.003 203.226 320 203.114 320 203C320 199.134 323.134 196 327 196C330.242 196 332.969 198.204 333.765 201.195C333.197 201.068 332.607 201 332 201Z" fill="#0C0A09"/>
</g>
<defs>
<linearGradient id="paint0_linear_8844_83" x1="200" y1="126" x2="200" y2="328" gradientUnits="userSpaceOnUse">
<stop stop-color="white" stop-opacity="0"/>
<stop offset="1" stop-color="white"/>
</linearGradient>
<clipPath id="clip0_8844_83">
<rect width="400" height="328" fill="white"/>
</clipPath>
</defs>
</svg>
