<svg width="400" height="328" viewBox="0 0 400 328" fill="none" xmlns="http://www.w3.org/2000/svg">
<g clip-path="url(#clip0_8842_2)">
<rect width="400" height="328" fill="white"/>
<path d="M80 12C80 9.79087 81.7909 8 84 8H590C592.209 8 594 9.79086 594 12V347C594 349.209 592.209 351 590 351H84C81.7909 351 80 349.209 80 347V12Z" fill="#D6D3D1"/>
<path d="M80.0049 347.206C80.1121 349.319 81.86 351 84 351H590C592.14 351 593.888 349.319 593.995 347.206L594 347V12C594 9.85996 592.319 8.11211 590.206 8.00488L590 8V0C596.627 1.28855e-07 602 5.37258 602 12V347C602 353.627 596.627 359 590 359H84C77.3726 359 72 353.627 72 347V12C72 5.3726 77.3726 0 84 0V8L83.7939 8.00488C81.6806 8.11211 80 9.85997 80 12V347L80.0049 347.206ZM590 0V8H84V0H590Z" fill="#E7E5E4"/>
<line x1="80" y1="68" x2="605" y2="68" stroke="#E7E5E4" stroke-width="4"/>
<path d="M118.995 40.9763C118.743 40.9763 118.497 40.9981 118.257 41.0448L120.534 44.9881H118.992L116.987 41.5121L113.509 35.488C113.901 35.2606 114.256 34.9678 114.549 34.6221C115.15 33.9181 115.514 33.0086 115.514 32.0119C115.514 29.7972 113.717 28 111.503 28C109.289 28 107.492 29.7972 107.492 32.0119C107.492 33.0086 107.857 33.9213 108.458 34.6221L104.752 41.0448C104.512 40.9981 104.266 40.9763 104.014 40.9763C101.797 40.9763 100 42.7736 100 44.9881C100 47.2028 101.797 49 104.014 49C106.231 49 108.025 47.2028 108.025 44.9881C108.025 43.9914 107.66 43.0788 107.059 42.378L105.552 44.9881H104.011L106.016 41.5121L109.495 35.488L111.5 32.0119V34.6782L110.762 35.9552C111.002 36.0019 111.248 36.0237 111.5 36.0237C111.752 36.0237 111.998 36.0019 112.238 35.9552L115.944 42.378C115.343 43.0819 114.978 43.9914 114.978 44.9881C114.978 47.2028 116.775 49 118.989 49C121.203 49 123 47.2028 123 44.9881C123 42.7736 121.203 40.9763 118.989 40.9763H118.995Z" fill="white"/>
<rect x="231" y="32" width="68" height="8" rx="4" fill="white"/>
<rect x="303" y="32" width="68" height="8" rx="4" fill="white"/>
<rect x="375" y="32" width="68" height="8" rx="4" fill="white"/>
<rect x="294" y="90" width="37" height="25" rx="4" fill="white"/>
<path d="M302.8 108.256C302.053 108.256 301.376 108.128 300.768 107.872C300.16 107.616 299.68 107.237 299.328 106.736C298.976 106.235 298.8 105.616 298.8 104.88C298.8 104.059 299.045 103.381 299.536 102.848C300.027 102.304 300.677 101.936 301.488 101.744L301.52 102.064C300.869 101.883 300.341 101.589 299.936 101.184C299.541 100.768 299.344 100.208 299.344 99.504C299.344 98.9067 299.493 98.3733 299.792 97.904C300.091 97.4347 300.496 97.0667 301.008 96.8C301.531 96.5227 302.128 96.384 302.8 96.384C303.472 96.384 304.069 96.5227 304.592 96.8C305.115 97.0667 305.52 97.4347 305.808 97.904C306.107 98.3733 306.256 98.9067 306.256 99.504C306.256 100.208 306.059 100.768 305.664 101.184C305.269 101.589 304.741 101.883 304.08 102.064L304.112 101.744C304.933 101.936 305.584 102.304 306.064 102.848C306.555 103.381 306.8 104.059 306.8 104.88C306.8 105.616 306.624 106.235 306.272 106.736C305.92 107.237 305.44 107.616 304.832 107.872C304.235 108.128 303.557 108.256 302.8 108.256ZM302.8 106.912C303.547 106.912 304.16 106.741 304.64 106.4C305.12 106.048 305.36 105.515 305.36 104.8C305.36 104.139 305.147 103.611 304.72 103.216C304.293 102.811 303.653 102.608 302.8 102.608C301.957 102.608 301.317 102.811 300.88 103.216C300.453 103.611 300.24 104.139 300.24 104.8C300.24 105.515 300.48 106.048 300.96 106.4C301.44 106.741 302.053 106.912 302.8 106.912ZM302.8 101.328C303.408 101.328 303.893 101.179 304.256 100.88C304.629 100.571 304.816 100.112 304.816 99.504C304.816 98.96 304.635 98.528 304.272 98.208C303.92 97.888 303.429 97.728 302.8 97.728C302.181 97.728 301.691 97.888 301.328 98.208C300.965 98.528 300.784 98.96 300.784 99.504C300.784 100.112 300.965 100.571 301.328 100.88C301.701 101.179 302.192 101.328 302.8 101.328ZM309.514 106.368L313.994 98.208L315.274 98.272L310.794 106.432L309.514 106.368ZM312.394 108.256C311.572 108.256 310.858 108.016 310.25 107.536C309.652 107.056 309.194 106.373 308.874 105.488C308.554 104.603 308.394 103.552 308.394 102.336C308.394 101.109 308.554 100.053 308.874 99.168C309.194 98.2827 309.652 97.6 310.25 97.12C310.858 96.6293 311.572 96.384 312.394 96.384C313.226 96.384 313.94 96.6293 314.538 97.12C315.135 97.6 315.594 98.2827 315.914 99.168C316.234 100.053 316.394 101.109 316.394 102.336C316.394 103.552 316.234 104.603 315.914 105.488C315.594 106.373 315.135 107.056 314.538 107.536C313.94 108.016 313.226 108.256 312.394 108.256ZM312.394 106.912C312.927 106.912 313.38 106.725 313.754 106.352C314.138 105.979 314.431 105.451 314.634 104.768C314.847 104.075 314.954 103.264 314.954 102.336C314.954 101.387 314.847 100.571 314.634 99.888C314.431 99.1947 314.138 98.6613 313.754 98.288C313.38 97.9147 312.927 97.728 312.394 97.728C311.871 97.728 311.418 97.9147 311.034 98.288C310.65 98.6613 310.351 99.1947 310.138 99.888C309.935 100.571 309.834 101.387 309.834 102.336C309.834 103.264 309.935 104.075 310.138 104.768C310.351 105.451 310.65 105.979 311.034 106.352C311.418 106.725 311.871 106.912 312.394 106.912ZM317.348 101.776V100.592H323.284L323.108 101.776H317.348ZM317.348 104.24V103.056H322.964L322.788 104.24H317.348ZM322.244 108.256C321.337 108.256 320.58 108.016 319.972 107.536C319.374 107.056 318.926 106.373 318.628 105.488C318.329 104.603 318.18 103.552 318.18 102.336C318.18 101.109 318.329 100.053 318.628 99.168C318.926 98.2827 319.374 97.6 319.972 97.12C320.58 96.6293 321.337 96.384 322.244 96.384C323.246 96.384 324.1 96.7147 324.804 97.376C325.508 98.0267 325.977 98.9387 326.212 100.112L324.74 100.208C324.558 99.3867 324.244 98.768 323.796 98.352C323.358 97.936 322.841 97.728 322.244 97.728C321.646 97.728 321.15 97.9093 320.756 98.272C320.372 98.624 320.084 99.1467 319.892 99.84C319.71 100.523 319.62 101.355 319.62 102.336C319.62 103.307 319.71 104.133 319.892 104.816C320.084 105.499 320.372 106.021 320.756 106.384C321.15 106.736 321.646 106.912 322.244 106.912C322.905 106.912 323.465 106.683 323.924 106.224C324.382 105.765 324.692 105.083 324.852 104.176L326.308 104.256C326.105 105.504 325.646 106.485 324.932 107.2C324.217 107.904 323.321 108.256 322.244 108.256Z" fill="#A6A09B"/>
<path d="M298.32 163V128.92H319.056V132.952H302.448V143.944H318.48V147.88H302.448V158.968H319.44V163H298.32ZM329.501 150.904V147.112H344.861V150.904H329.501ZM366.059 163.768C363.339 163.768 361.035 163.048 359.147 161.608C357.259 160.168 355.819 158.12 354.827 155.464C353.867 152.808 353.387 149.656 353.387 146.008C353.387 142.328 353.867 139.16 354.827 136.504C355.819 133.848 357.259 131.8 359.147 130.36C361.035 128.888 363.339 128.152 366.059 128.152C369.067 128.152 371.627 129.144 373.739 131.128C375.851 133.08 377.259 135.816 377.963 139.336L373.547 139.624C373.003 137.16 372.059 135.304 370.715 134.056C369.403 132.808 367.851 132.184 366.059 132.184C364.235 132.184 362.699 132.728 361.451 133.816C360.235 134.872 359.307 136.44 358.667 138.52C358.027 140.568 357.707 143.064 357.707 146.008C357.707 148.92 358.027 151.4 358.667 153.448C359.307 155.496 360.235 157.064 361.451 158.152C362.699 159.208 364.235 159.736 366.059 159.736C368.043 159.736 369.723 159.048 371.099 157.672C372.475 156.296 373.403 154.248 373.883 151.528L378.251 151.768C377.643 155.512 376.267 158.456 374.123 160.6C371.979 162.712 369.291 163.768 366.059 163.768ZM394.744 163.768C392.056 163.768 389.768 163.08 387.88 161.704C386.024 160.328 384.6 158.312 383.608 155.656C382.648 153 382.168 149.784 382.168 146.008C382.168 142.168 382.648 138.92 383.608 136.264C384.6 133.608 386.024 131.592 387.88 130.216C389.768 128.84 392.056 128.152 394.744 128.152C397.432 128.152 399.704 128.84 401.56 130.216C403.448 131.592 404.872 133.608 405.832 136.264C406.824 138.92 407.32 142.168 407.32 146.008C407.32 149.784 406.824 153 405.832 155.656C404.872 158.312 403.448 160.328 401.56 161.704C399.704 163.08 397.432 163.768 394.744 163.768ZM394.744 159.736C396.504 159.736 397.992 159.224 399.208 158.2C400.456 157.144 401.4 155.592 402.04 153.544C402.68 151.496 403 148.984 403 146.008C403 143.032 402.68 140.52 402.04 138.472C401.4 136.392 400.456 134.824 399.208 133.768C397.992 132.712 396.504 132.184 394.744 132.184C392.984 132.184 391.48 132.712 390.232 133.768C389.016 134.824 388.088 136.392 387.448 138.472C386.808 140.52 386.488 143.032 386.488 146.008C386.488 148.984 386.808 151.496 387.448 153.544C388.088 155.592 389.016 157.144 390.232 158.2C391.48 159.224 392.984 159.736 394.744 159.736ZM421.701 159.16L415.269 132.76H415.653V163H411.525V128.92H417.765L424.485 156.952H422.565L429.285 128.92H435.525V163H431.397V132.76H431.781L425.349 159.16H421.701ZM450.482 159.16L444.05 132.76H444.434V163H440.306V128.92H446.546L453.266 156.952H451.346L458.066 128.92H464.306V163H460.178V132.76H460.562L454.13 159.16H450.482ZM471.008 163V128.92H491.744V132.952H475.136V143.944H491.168V147.88H475.136V158.968H492.128V163H471.008ZM498.829 163V128.92H509.197C512.781 128.92 515.613 129.832 517.693 131.656C519.773 133.448 520.813 135.928 520.813 139.096C520.813 140.696 520.445 142.12 519.709 143.368C518.973 144.584 518.029 145.544 516.877 146.248C515.725 146.952 514.541 147.352 513.325 147.448L513.133 146.872C515.405 147 517.101 147.544 518.221 148.504C519.373 149.464 520.045 151.032 520.237 153.208L521.101 163H516.973L516.157 153.736C516.061 152.68 515.805 151.832 515.389 151.192C515.005 150.52 514.381 150.04 513.517 149.752C512.685 149.432 511.533 149.272 510.061 149.272H502.957V163H498.829ZM502.957 145.24H509.197C511.565 145.24 513.373 144.712 514.621 143.656C515.869 142.568 516.493 141.048 516.493 139.096C516.493 137.112 515.869 135.592 514.621 134.536C513.373 133.48 511.565 132.952 509.197 132.952H502.957V145.24ZM538.746 163.768C536.026 163.768 533.722 163.048 531.834 161.608C529.946 160.168 528.506 158.12 527.514 155.464C526.554 152.808 526.074 149.656 526.074 146.008C526.074 142.328 526.554 139.16 527.514 136.504C528.506 133.848 529.946 131.8 531.834 130.36C533.722 128.888 536.026 128.152 538.746 128.152C541.754 128.152 544.314 129.144 546.426 131.128C548.538 133.08 549.946 135.816 550.65 139.336L546.234 139.624C545.69 137.16 544.746 135.304 543.402 134.056C542.09 132.808 540.538 132.184 538.746 132.184C536.922 132.184 535.386 132.728 534.138 133.816C532.922 134.872 531.994 136.44 531.354 138.52C530.714 140.568 530.394 143.064 530.394 146.008C530.394 148.92 530.714 151.4 531.354 153.448C531.994 155.496 532.922 157.064 534.138 158.152C535.386 159.208 536.922 159.736 538.746 159.736C540.73 159.736 542.41 159.048 543.786 157.672C545.162 156.296 546.09 154.248 546.57 151.528L550.938 151.768C550.33 155.512 548.954 158.456 546.81 160.6C544.666 162.712 541.978 163.768 538.746 163.768ZM557.351 163V128.92H578.087V132.952H561.479V143.944H577.511V147.88H561.479V158.968H578.471V163H557.351Z" fill="white"/>
<rect x="294" y="193" width="241" height="8" rx="4" fill="white"/>
<rect x="294" y="209" width="185" height="8" rx="4" fill="white"/>
<rect x="294" y="233" width="127" height="27" rx="4" fill="white"/>
<rect x="100" y="90" width="171" height="181" rx="4" fill="#A6A09B"/>
<rect x="100" y="281" width="50" height="49" rx="4" fill="#A6A09B"/>
<rect x="160" y="281" width="51" height="49" rx="4" fill="#A6A09B"/>
<rect x="221" y="281" width="50" height="49" rx="4" fill="#A6A09B"/>
<rect y="126" width="400" height="202" fill="url(#paint0_linear_8842_2)"/>
<circle cx="186" cy="180" r="24" fill="#C9FE6E"/>
<path d="M180.505 170H191.505C191.82 170 192.116 170.148 192.305 170.4L195.005 174V189C195.005 189.552 194.557 190 194.005 190H178.005C177.453 190 177.005 189.552 177.005 189V174L179.705 170.4C179.894 170.148 180.19 170 180.505 170ZM192.505 174L191.005 172H181.005L179.505 174H192.505ZM183.005 178H181.005V180C181.005 182.761 183.243 185 186.005 185C188.766 185 191.005 182.761 191.005 180V178H189.005V180C189.005 181.657 187.662 183 186.005 183C184.348 183 183.005 181.657 183.005 180V178Z" fill="#0C0A09"/>
</g>
<defs>
<linearGradient id="paint0_linear_8842_2" x1="200" y1="126" x2="200" y2="328" gradientUnits="userSpaceOnUse">
<stop stop-color="white" stop-opacity="0"/>
<stop offset="1" stop-color="white"/>
</linearGradient>
<clipPath id="clip0_8842_2">
<rect width="400" height="328" fill="white"/>
</clipPath>
</defs>
</svg>
