<svg width="799" height="329" viewBox="0 0 799 329" fill="none" xmlns="http://www.w3.org/2000/svg">
<rect x="338" y="103" width="123" height="123" rx="7" stroke="#666666" stroke-width="2"/>
<path d="M410 145H402V143H398V145H390C386.686 145 384 147.686 384 151V157C384 162.523 388.477 167 394 167H406C411.523 167 416 162.523 416 157V151C416 147.686 413.314 145 410 145ZM398 156C398 157.657 396.657 159 395 159C393.343 159 392 157.657 392 156C392 154.343 393.343 153 395 153C396.657 153 398 154.343 398 156ZM408 156C408 157.657 406.657 159 405 159C403.343 159 402 157.657 402 156C402 154.343 403.343 153 405 153C406.657 153 408 154.343 408 156ZM384 185C384 176.163 391.163 169 400 169C408.837 169 416 176.163 416 185H384Z" fill="#CCCCCC"/>
<path d="M454.667 164C454.667 166.946 457.054 169.333 460 169.333C462.946 169.333 465.333 166.946 465.333 164C465.333 161.054 462.946 158.667 460 158.667C457.054 158.667 454.667 161.054 454.667 164ZM502.356 159.265L503.269 159.673L503.269 159.673L502.356 159.265ZM554.456 42.7347L555.369 43.1429L555.369 43.1429L554.456 42.7347ZM460 164V165H495.053V164V163H460V164ZM502.356 159.265L503.269 159.673L555.369 43.1429L554.456 42.7347L553.544 42.3266L501.443 158.857L502.356 159.265ZM561.76 38V39H715.5V38V37H561.76V38ZM554.456 42.7347L555.369 43.1429C556.496 40.6226 558.999 39 561.76 39V38V37C558.21 37 554.992 39.0862 553.544 42.3266L554.456 42.7347ZM495.053 164V165C498.602 165 501.82 162.914 503.269 159.673L502.356 159.265L501.443 158.857C500.316 161.377 497.813 163 495.053 163V164Z" fill="#666666"/>
<path d="M344.333 164C344.333 166.946 341.946 169.333 339 169.333C336.054 169.333 333.667 166.946 333.667 164C333.667 161.054 336.054 158.667 339 158.667C341.946 158.667 344.333 161.054 344.333 164ZM296.644 159.265L295.731 159.673L295.731 159.673L296.644 159.265ZM244.544 42.7347L243.631 43.1429L243.631 43.1429L244.544 42.7347ZM77 38L87 32.2265V43.7735L77 38ZM339 164V165H303.947V164V163H339V164ZM296.644 159.265L295.731 159.673L243.631 43.1429L244.544 42.7347L245.456 42.3266L297.557 158.857L296.644 159.265ZM237.24 38V39H86V38V37H237.24V38ZM244.544 42.7347L243.631 43.1429C242.504 40.6226 240.001 39 237.24 39V38V37C240.79 37 244.008 39.0862 245.456 42.3266L244.544 42.7347ZM303.947 164V165C300.398 165 297.18 162.914 295.731 159.673L296.644 159.265L297.557 158.857C298.684 161.377 301.187 163 303.947 163V164Z" fill="#666666"/>
<path d="M722 289L712 294.774V283.226L722 289ZM554.449 284.287L553.538 284.698L554.449 284.287ZM502.363 168.713L503.275 168.302L502.363 168.713ZM460 164V163H495.069V164V165H460V164ZM502.363 168.713L503.275 168.302L555.361 283.876L554.449 284.287L553.538 284.698L501.451 169.124L502.363 168.713ZM561.743 289V288H713V289V290H561.743V289ZM554.449 284.287L555.361 283.876C556.492 286.386 558.99 288 561.743 288V289V290C558.203 290 554.992 287.925 553.538 284.698L554.449 284.287ZM495.069 164V163C498.609 163 501.82 165.075 503.275 168.302L502.363 168.713L501.451 169.124C500.32 166.614 497.823 165 495.069 165V164Z" fill="#666666"/>
<path d="M77 289L87 294.774V283.226L77 289ZM244.551 284.287L245.462 284.698L244.551 284.287ZM296.637 168.713L295.725 168.302L296.637 168.713ZM339 164V163H303.931V164V165H339V164ZM296.637 168.713L295.725 168.302L243.639 283.876L244.551 284.287L245.462 284.698L297.549 169.124L296.637 168.713ZM237.257 289V288H86V289V290H237.257V289ZM244.551 284.287L243.639 283.876C242.508 286.386 240.01 288 237.257 288V289V290C240.797 290 244.008 287.925 245.462 284.698L244.551 284.287ZM303.931 164V163C300.391 163 297.18 165.075 295.725 168.302L296.637 168.713L297.549 169.124C298.68 166.614 301.177 165 303.931 165V164Z" fill="#666666"/>
<circle cx="721.5" cy="164.5" r="38.5" stroke="#666666" stroke-width="2"/>
<circle cx="39.5" cy="39.5" r="38.5" transform="matrix(-1 0 0 1 117 125)" stroke="#666666" stroke-width="2"/>
<circle cx="760" cy="39" r="38" stroke="#666666" stroke-width="2"/>
<circle cx="39" cy="39" r="38" transform="matrix(-1 0 0 1 78 0)" stroke="#666666" stroke-width="2"/>
<circle cx="760" cy="290" r="38" stroke="#666666" stroke-width="2"/>
<circle cx="39" cy="39" r="38" transform="matrix(-1 0 0 1 78 251)" stroke="#666666" stroke-width="2"/>
<path d="M689.774 164L684 158.227L678.226 164L684 169.774L689.774 164ZM460 164L460 165L684 165L684 164L684 163L460 163L460 164Z" fill="#666666"/>
<path d="M109.226 164L115 158.227L120.774 164L115 169.774L109.226 164ZM339 164L339 165L115 165L115 164L115 163L339 163L339 164Z" fill="#666666"/>
<line x1="155" y1="38" x2="187" y2="38" stroke="white" stroke-width="2"/>
<line x1="139" y1="164" x2="171" y2="164" stroke="white" stroke-width="2"/>
<line x1="201" y1="289" x2="233" y2="289" stroke="white" stroke-width="2"/>
<line x1="529" y1="164" x2="561" y2="164" stroke="white" stroke-width="2"/>
<line x1="640" y1="289" x2="672" y2="289" stroke="white" stroke-width="2"/>
<path d="M722 38L712 32.2265V43.7735L722 38ZM690 38V39H713V38V37H690V38Z" fill="white"/>
<path d="M712 158.5V156.993C712 156.445 712.455 156 712.992 156H731.008C731.556 156 732 156.445 732 156.993V173.007C732 173.555 731.545 174 731.008 174H712.992C712.444 174 712 173.555 712 173.007V172H730V160.3L722 167.5L712 158.5ZM710 163H715V165H710V163ZM710 168H718V170H710V168Z" fill="#CCCCCC"/>
<path d="M752 48C752 43.5817 755.582 40 760 40C764.418 40 768 43.5817 768 48H752ZM760 39C756.685 39 754 36.315 754 33C754 29.685 756.685 27 760 27C763.315 27 766 29.685 766 33C766 36.315 763.315 39 760 39Z" fill="#CCCCCC"/>
<path d="M769 286.5V289.5C769 291.985 764.971 294 760 294C755.029 294 751 291.985 751 289.5V286.5C751 288.985 755.029 291 760 291C764.971 291 769 288.985 769 286.5ZM751 291.5C751 293.985 755.029 296 760 296C764.971 296 769 293.985 769 291.5V294.5C769 296.985 764.971 299 760 299C755.029 299 751 296.985 751 294.5V291.5ZM760 289C755.029 289 751 286.985 751 284.5C751 282.015 755.029 280 760 280C764.971 280 769 282.015 769 284.5C769 286.985 764.971 289 760 289Z" fill="#CCCCCC"/>
<path d="M71.5274 166.514C71.5274 167.597 70.6426 168.481 69.5596 168.481C68.4765 168.481 67.5918 167.597 67.5918 166.514C67.5918 165.431 68.4765 164.546 69.5596 164.546H71.5274V166.514ZM72.5189 166.514C72.5189 165.431 73.4037 164.546 74.4867 164.546C75.5698 164.546 76.4545 165.431 76.4545 166.514V171.441C76.4545 172.524 75.5698 173.409 74.4867 173.409C73.4037 173.409 72.5189 172.524 72.5189 171.441V166.514ZM74.4867 158.527C73.4037 158.527 72.5189 157.642 72.5189 156.559C72.5189 155.476 73.4037 154.592 74.4867 154.592C75.5698 154.592 76.4545 155.476 76.4545 156.559V158.527H74.4867ZM74.4867 159.519C75.5698 159.519 76.4545 160.403 76.4545 161.486C76.4545 162.57 75.5698 163.454 74.4867 163.454H69.5596C68.4765 163.454 67.5918 162.57 67.5918 161.486C67.5918 160.403 68.4765 159.519 69.5596 159.519H74.4867ZM82.4732 161.486C82.4732 160.403 83.3579 159.519 84.4409 159.519C85.524 159.519 86.4087 160.403 86.4087 161.486C86.4087 162.57 85.524 163.454 84.4409 163.454H82.4732V161.486ZM81.4816 161.486C81.4816 162.57 80.5969 163.454 79.5138 163.454C78.4308 163.454 77.546 162.57 77.546 161.486V156.559C77.546 155.476 78.4308 154.592 79.5138 154.592C80.5969 154.592 81.4816 155.476 81.4816 156.559V161.486ZM79.5138 169.473C80.5969 169.473 81.4816 170.358 81.4816 171.441C81.4816 172.524 80.5969 173.409 79.5138 173.409C78.4308 173.409 77.546 172.524 77.546 171.441V169.473H79.5138ZM79.5138 168.481C78.4308 168.481 77.546 167.597 77.546 166.514C77.546 165.431 78.4308 164.546 79.5138 164.546H84.4409C85.524 164.546 86.4087 165.431 86.4087 166.514C86.4087 167.597 85.524 168.481 84.4409 168.481H79.5138Z" fill="#CCCCCC"/>
<path d="M38 28C42.968 28 47 32.032 47 37C47 41.968 42.968 46 38 46C33.032 46 29 41.968 29 37C29 32.032 33.032 28 38 28ZM46.4853 44.0711L49.3137 46.8995L47.8995 48.3137L45.0711 45.4853L46.4853 44.0711Z" fill="#CCCCCC"/>
<path d="M48 287V298.993C48 299.551 47.5552 300 47.0066 300H30.9934C30.445 300 30 299.556 30 299.008V280.992C30 280.455 30.4469 280 30.9983 280H41V286C41 286.552 41.4477 287 42 287H48ZM48 285H43V280.003L48 285ZM35 285V287H38V285H35ZM35 289V291H43V289H35ZM35 293V295H43V293H35Z" fill="#CCCCCC"/>
<rect x="320" y="213" width="111" height="28" rx="14" fill="#CCCCCC"/>
<g clip-path="url(#clip0_2_131)">
<path d="M420.645 224.129L420.809 223.752C421.102 223.08 421.63 222.544 422.288 222.251L422.795 222.026C423.068 221.904 423.068 221.506 422.795 221.384L422.317 221.171C421.641 220.871 421.104 220.316 420.816 219.621L420.647 219.213C420.529 218.929 420.137 218.929 420.02 219.213L419.851 219.621C419.563 220.316 419.026 220.871 418.35 221.171L417.872 221.384C417.598 221.506 417.598 221.904 417.872 222.026L418.378 222.251C419.037 222.544 419.565 223.08 419.858 223.752L420.022 224.129C420.142 224.405 420.524 224.405 420.645 224.129ZM416.591 222.559C416.774 222.848 417.024 223.062 417.341 223.2L417.718 223.365C417.971 223.475 418.176 223.63 418.333 223.83V225.667C418.333 227.508 416.841 229 415 229C413.159 229 411.667 227.508 411.667 225.667V223C411.667 221.159 413.159 219.667 415 219.667C415.749 219.667 416.441 219.914 416.998 220.331C416.838 220.451 416.702 220.599 416.591 220.774C416.419 221.046 416.333 221.344 416.333 221.667C416.333 221.99 416.419 222.287 416.591 222.559ZM409.036 226.333H410.38C410.704 228.595 412.649 230.333 415 230.333C417.351 230.333 419.296 228.595 419.619 226.333H420.963C420.656 229.114 418.448 231.323 415.667 231.63V234.333H414.333V231.63C411.552 231.323 409.344 229.114 409.036 226.333Z" fill="#0C0A09"/>
</g>
<defs>
<clipPath id="clip0_2_131">
<rect width="16" height="16" fill="white" transform="translate(407 219)"/>
</clipPath>
</defs>
</svg>
