<svg width="276" height="202" viewBox="0 0 276 202" fill="none" xmlns="http://www.w3.org/2000/svg">
<g clip-path="url(#clip0_8856_429)">
<circle cx="138" cy="101" r="24" fill="#57534D"/>
<path d="M130 111C130 106.582 133.582 103 138 103C142.418 103 146 106.582 146 111H130ZM138 102C134.685 102 132 99.315 132 96C132 92.685 134.685 90 138 90C141.315 90 144 92.685 144 96C144 99.315 141.315 102 138 102Z" fill="#44403B"/>
<path d="M177 101L201.169 101L201.169 161L226 161" stroke="#292524" stroke-width="2" stroke-dasharray="4 4"/>
<path d="M110.165 73.4229C125.454 58.1924 150.244 58.1924 165.533 73.4229C180.822 88.6533 180.822 113.347 165.533 128.577C151.203 142.853 128.526 143.747 113.148 131.262L96.6787 147.669L91 142.012L107.47 125.605C94.9361 110.288 95.8345 87.6984 110.165 73.4229ZM159.854 79.0801C147.701 66.9738 127.997 66.9738 115.844 79.0801C103.691 91.1863 103.691 110.814 115.844 122.92C127.997 135.026 147.701 135.026 159.854 122.92C172.007 110.814 172.007 91.1863 159.854 79.0801Z" fill="#292524"/>
<rect x="-46" y="68" width="100" height="66" rx="2" fill="#57534D"/>
<rect x="-2" y="122" width="27" height="12" rx="2" transform="rotate(-90 -2 122)" fill="#44403B"/>
<rect x="14" y="122" width="42" height="12" rx="2" transform="rotate(-90 14 122)" fill="#44403B"/>
<rect x="30" y="122" width="36" height="12" rx="2" transform="rotate(-90 30 122)" fill="#44403B"/>
<rect x="226" y="143" width="80" height="36" rx="18" fill="#57534D"/>
<rect x="242" y="155" width="48" height="12" rx="2" fill="#44403B"/>
<path d="M54 101L99 101" stroke="#292524" stroke-width="2" stroke-dasharray="4 4"/>
<circle cx="240" cy="36" r="14" fill="#57534D"/>
<path d="M238.666 38.1139L244.795 31.9857L245.738 32.9285L238.666 39.9995L234.424 35.7569L235.367 34.8141L238.666 38.1139Z" fill="#44403B"/>
<path d="M138 36L105 36" stroke="#292524" stroke-width="2" stroke-dasharray="4 4"/>
<path d="M138 62V36H226" stroke="#292524" stroke-width="2" stroke-dasharray="4 4"/>
<path d="M94.4083 23.9967C95.0594 22.6678 96.9406 22.6678 97.5917 23.9967L100.543 30.0202C100.801 30.5479 101.301 30.9137 101.879 30.9983L108.478 31.9642C109.934 32.1773 110.516 33.9796 109.462 35.0141L104.687 39.7027C104.269 40.1134 104.078 40.7053 104.177 41.2853L105.304 47.9057C105.552 49.3664 104.03 50.4803 102.728 49.7906L96.826 46.6649C96.3089 46.3911 95.6911 46.3911 95.174 46.6649L89.2718 49.7906C87.9695 50.4803 86.4476 49.3664 86.6963 47.9057L87.8235 41.2853C87.9223 40.7053 87.7314 40.1134 87.313 39.7027L82.538 35.0141C81.4845 33.9796 82.0658 32.1773 83.5217 31.9642L90.1206 30.9983C90.6988 30.9137 91.1986 30.5479 91.4571 30.0202L94.4083 23.9967Z" fill="#57534D"/>
<path d="M0 101H276V202H0V101Z" fill="url(#paint0_linear_8856_429)"/>
</g>
<defs>
<linearGradient id="paint0_linear_8856_429" x1="138" y1="101" x2="138" y2="202" gradientUnits="userSpaceOnUse">
<stop stop-color="#0C0A09" stop-opacity="0"/>
<stop offset="0.985577" stop-color="#0C0A09" stop-opacity="0.5"/>
</linearGradient>
<clipPath id="clip0_8856_429">
<rect width="276" height="202" fill="white"/>
</clipPath>
</defs>
</svg>
