<svg width="276" height="202" viewBox="0 0 276 202" fill="none" xmlns="http://www.w3.org/2000/svg">
<g clip-path="url(#clip0_8860_677)">
<rect x="31" y="29" width="215" height="37" rx="4" fill="#57534D"/>
<path d="M43.21 51L45.23 43.9H46.77L48.79 51H47.52L46 45.3L44.48 51H43.21ZM44.45 49.32L44.79 48.21H47.21L47.55 49.32H44.45ZM50.0161 52.5V51.54H51.5761C51.8561 51.54 52.0628 51.4767 52.1961 51.35C52.3361 51.2233 52.4061 51 52.4061 50.68V45.66H53.5861V50.74C53.5861 51.3067 53.4294 51.74 53.1161 52.04C52.8094 52.3467 52.3361 52.5 51.6961 52.5H50.0161ZM50.0761 46.62V45.66H53.0161V46.62H50.0761ZM52.3761 44.95V43.83H53.5761V44.95H52.3761ZM57.9922 51.12C57.4922 51.12 57.0522 51.0067 56.6722 50.78C56.2989 50.5533 56.0089 50.23 55.8022 49.81C55.5955 49.39 55.4922 48.8967 55.4922 48.33C55.4922 47.7633 55.5955 47.27 55.8022 46.85C56.0089 46.43 56.2989 46.1067 56.6722 45.88C57.0522 45.6533 57.4922 45.54 57.9922 45.54C58.4922 45.54 58.9289 45.6533 59.3022 45.88C59.6822 46.1067 59.9755 46.43 60.1822 46.85C60.3889 47.2633 60.4922 47.7567 60.4922 48.33C60.4922 48.8967 60.3889 49.39 60.1822 49.81C59.9755 50.23 59.6822 50.5533 59.3022 50.78C58.9289 51.0067 58.4922 51.12 57.9922 51.12ZM57.9922 50.06C58.3989 50.06 58.7122 49.91 58.9322 49.61C59.1522 49.3033 59.2622 48.8767 59.2622 48.33C59.2622 47.7833 59.1522 47.36 58.9322 47.06C58.7122 46.7533 58.3989 46.6 57.9922 46.6C57.5855 46.6 57.2722 46.7533 57.0522 47.06C56.8322 47.36 56.7222 47.7833 56.7222 48.33C56.7222 48.8767 56.8322 49.3033 57.0522 49.61C57.2722 49.91 57.5855 50.06 57.9922 50.06ZM63.4483 51.12C62.9349 51.12 62.5283 50.95 62.2283 50.61C61.9349 50.2633 61.7883 49.7733 61.7883 49.14V45.66H62.9683V48.83C62.9683 49.2767 63.0416 49.6033 63.1883 49.81C63.3416 50.01 63.5716 50.11 63.8783 50.11C64.1983 50.11 64.4583 49.9967 64.6583 49.77C64.8649 49.5367 64.9683 49.21 64.9683 48.79V45.66H66.1583V51H65.0583L65.0383 49.53L65.1883 49.58C65.1016 50.0733 64.9083 50.4533 64.6083 50.72C64.3083 50.9867 63.9216 51.12 63.4483 51.12ZM70.7344 51C70.161 51 69.7377 50.87 69.4644 50.61C69.191 50.3433 69.0544 49.94 69.0544 49.4V44.41H70.2344V49.31C70.2344 49.5567 70.2944 49.74 70.4144 49.86C70.5344 49.98 70.711 50.04 70.9444 50.04H72.2644V51H70.7344ZM67.4444 46.62V45.66H72.2644V46.62H67.4444ZM76.0305 51.12C75.5305 51.12 75.0905 51.0067 74.7105 50.78C74.3371 50.5533 74.0471 50.23 73.8405 49.81C73.6338 49.39 73.5305 48.8967 73.5305 48.33C73.5305 47.77 73.6338 47.2833 73.8405 46.87C74.0471 46.45 74.3338 46.1233 74.7005 45.89C75.0738 45.6567 75.5105 45.54 76.0105 45.54C76.4905 45.54 76.9138 45.6533 77.2805 45.88C77.6538 46.1067 77.9438 46.43 78.1505 46.85C78.3638 47.27 78.4705 47.77 78.4705 48.35V48.66H74.7505C74.7838 49.1133 74.9138 49.46 75.1405 49.7C75.3738 49.94 75.6771 50.06 76.0505 50.06C76.3371 50.06 76.5738 49.9933 76.7605 49.86C76.9538 49.72 77.0871 49.54 77.1605 49.32L78.3705 49.41C78.2038 49.9433 77.9205 50.3633 77.5205 50.67C77.1205 50.97 76.6238 51.12 76.0305 51.12ZM74.7605 47.8H77.1905C77.1571 47.3933 77.0338 47.0933 76.8205 46.9C76.6071 46.7 76.3338 46.6 76.0005 46.6C75.6671 46.6 75.3905 46.7033 75.1705 46.91C74.9571 47.11 74.8205 47.4067 74.7605 47.8ZM81.0766 51V45.66H81.9766L82.0666 47.04H81.9766C82.0432 46.5733 82.1832 46.2267 82.3966 46C82.6166 45.7733 82.9266 45.66 83.3266 45.66H84.4966V46.65H83.3966C83.1432 46.65 82.9332 46.6967 82.7666 46.79C82.5999 46.8833 82.4732 47.02 82.3866 47.2C82.2999 47.38 82.2566 47.6067 82.2566 47.88V51H81.0766ZM79.7566 51V50.04H83.9066V51H79.7566ZM79.7566 46.62V45.66H81.7666V46.62H79.7566ZM93.2288 51.12C92.8954 51.12 92.5954 51.06 92.3288 50.94C92.0621 50.82 91.8488 50.65 91.6888 50.43C91.5288 50.2033 91.4488 49.9367 91.4488 49.63C91.4488 49.1767 91.5888 48.8267 91.8688 48.58C92.1554 48.3267 92.5654 48.1433 93.0988 48.03L94.7688 47.68C94.7688 47.3067 94.6888 47.0233 94.5288 46.83C94.3754 46.63 94.1321 46.53 93.7988 46.53C93.4921 46.53 93.2554 46.6033 93.0888 46.75C92.9221 46.8967 92.8121 47.09 92.7588 47.33L91.5288 47.26C91.6288 46.7467 91.8754 46.3333 92.2688 46.02C92.6688 45.7 93.1721 45.54 93.7788 45.54C94.5054 45.54 95.0488 45.7333 95.4088 46.12C95.7688 46.5067 95.9488 47.0467 95.9488 47.74V49.73C95.9488 49.8633 95.9754 49.9567 96.0288 50.01C96.0821 50.0567 96.1554 50.08 96.2487 50.08H96.5088V51C96.4688 51.0067 96.4021 51.0133 96.3088 51.02C96.2221 51.0333 96.1321 51.04 96.0388 51.04C95.7854 51.04 95.5688 50.9967 95.3888 50.91C95.2154 50.8233 95.0821 50.6933 94.9888 50.52C94.8954 50.34 94.8454 50.12 94.8388 49.86H94.9888C94.9554 50.1 94.8588 50.3167 94.6988 50.51C94.5388 50.6967 94.3321 50.8467 94.0788 50.96C93.8321 51.0667 93.5488 51.12 93.2288 51.12ZM93.4388 50.2C93.7254 50.2 93.9688 50.15 94.1688 50.05C94.3688 49.9433 94.5188 49.7967 94.6188 49.61C94.7188 49.4167 94.7688 49.1867 94.7688 48.92V48.56L93.4388 48.84C93.1521 48.8933 92.9521 48.98 92.8388 49.1C92.7321 49.2133 92.6788 49.3667 92.6788 49.56C92.6788 49.76 92.7454 49.9167 92.8788 50.03C93.0121 50.1433 93.1988 50.2 93.4388 50.2ZM99.4248 51.12C98.9115 51.12 98.5048 50.95 98.2048 50.61C97.9115 50.2633 97.7648 49.7733 97.7648 49.14V45.66H98.9448V48.83C98.9448 49.2767 99.0182 49.6033 99.1648 49.81C99.3182 50.01 99.5482 50.11 99.8548 50.11C100.175 50.11 100.435 49.9967 100.635 49.77C100.842 49.5367 100.945 49.21 100.945 48.79V45.66H102.135V51H101.035L101.015 49.53L101.165 49.58C101.078 50.0733 100.885 50.4533 100.585 50.72C100.285 50.9867 99.8982 51.12 99.4248 51.12ZM109.597 52.5V45.66H110.727L110.757 46.88L110.637 46.82C110.77 46.4067 110.984 46.09 111.277 45.87C111.577 45.65 111.937 45.54 112.357 45.54C112.85 45.54 113.257 45.6667 113.577 45.92C113.904 46.1733 114.144 46.51 114.297 46.93C114.457 47.35 114.537 47.8167 114.537 48.33C114.537 48.8433 114.457 49.31 114.297 49.73C114.144 50.15 113.904 50.4867 113.577 50.74C113.257 50.9933 112.85 51.12 112.357 51.12C112.084 51.12 111.83 51.0767 111.597 50.99C111.37 50.8967 111.174 50.7667 111.007 50.6C110.847 50.4267 110.727 50.2133 110.647 49.96L110.777 49.82V52.5H109.597ZM112.057 50.06C112.45 50.06 112.757 49.9167 112.977 49.63C113.197 49.3367 113.307 48.9033 113.307 48.33C113.307 47.7567 113.197 47.3267 112.977 47.04C112.757 46.7467 112.45 46.6 112.057 46.6C111.804 46.6 111.58 46.6633 111.387 46.79C111.2 46.9167 111.05 47.11 110.937 47.37C110.83 47.6233 110.777 47.9433 110.777 48.33C110.777 48.7167 110.83 49.04 110.937 49.3C111.044 49.5533 111.194 49.7433 111.387 49.87C111.58 49.9967 111.804 50.06 112.057 50.06ZM117.213 51.12C116.88 51.12 116.58 51.06 116.313 50.94C116.046 50.82 115.833 50.65 115.673 50.43C115.513 50.2033 115.433 49.9367 115.433 49.63C115.433 49.1767 115.573 48.8267 115.853 48.58C116.14 48.3267 116.55 48.1433 117.083 48.03L118.753 47.68C118.753 47.3067 118.673 47.0233 118.513 46.83C118.36 46.63 118.116 46.53 117.783 46.53C117.476 46.53 117.24 46.6033 117.073 46.75C116.906 46.8967 116.796 47.09 116.743 47.33L115.513 47.26C115.613 46.7467 115.86 46.3333 116.253 46.02C116.653 45.7 117.156 45.54 117.763 45.54C118.49 45.54 119.033 45.7333 119.393 46.12C119.753 46.5067 119.933 47.0467 119.933 47.74V49.73C119.933 49.8633 119.96 49.9567 120.013 50.01C120.066 50.0567 120.14 50.08 120.233 50.08H120.493V51C120.453 51.0067 120.386 51.0133 120.293 51.02C120.206 51.0333 120.116 51.04 120.023 51.04C119.77 51.04 119.553 50.9967 119.373 50.91C119.2 50.8233 119.066 50.6933 118.973 50.52C118.88 50.34 118.83 50.12 118.823 49.86H118.973C118.94 50.1 118.843 50.3167 118.683 50.51C118.523 50.6967 118.316 50.8467 118.063 50.96C117.816 51.0667 117.533 51.12 117.213 51.12ZM117.423 50.2C117.71 50.2 117.953 50.15 118.153 50.05C118.353 49.9433 118.503 49.7967 118.603 49.61C118.703 49.4167 118.753 49.1867 118.753 48.92V48.56L117.423 48.84C117.136 48.8933 116.936 48.98 116.823 49.1C116.716 49.2133 116.663 49.3667 116.663 49.56C116.663 49.76 116.73 49.9167 116.863 50.03C116.996 50.1433 117.183 50.2 117.423 50.2ZM121.709 51V45.66H122.789L122.829 47.09L122.709 47.02C122.769 46.68 122.883 46.4033 123.049 46.19C123.216 45.97 123.419 45.8067 123.659 45.7C123.906 45.5933 124.173 45.54 124.459 45.54C124.853 45.54 125.176 45.6267 125.429 45.8C125.683 45.9733 125.873 46.2133 125.999 46.52C126.126 46.82 126.189 47.1633 126.189 47.55V51H125.009V47.83C125.009 47.4033 124.929 47.0833 124.769 46.87C124.616 46.6567 124.379 46.55 124.059 46.55C123.846 46.55 123.649 46.6 123.469 46.7C123.296 46.8 123.156 46.95 123.049 47.15C122.943 47.3433 122.889 47.5833 122.889 47.87V51H121.709ZM129.705 51V45.66H130.885V51H129.705ZM127.665 51V50.04H132.625V51H127.665ZM127.765 46.62V45.66H130.715V46.62H127.765ZM129.655 44.95V43.83H130.855V44.95H129.655ZM135.991 51.12C135.491 51.12 135.051 51.0067 134.671 50.78C134.298 50.5533 134.008 50.23 133.801 49.81C133.595 49.39 133.491 48.8967 133.491 48.33C133.491 47.77 133.595 47.2833 133.801 46.87C134.008 46.45 134.295 46.1233 134.661 45.89C135.035 45.6567 135.471 45.54 135.971 45.54C136.451 45.54 136.875 45.6533 137.241 45.88C137.615 46.1067 137.905 46.43 138.111 46.85C138.325 47.27 138.431 47.77 138.431 48.35V48.66H134.711C134.745 49.1133 134.875 49.46 135.101 49.7C135.335 49.94 135.638 50.06 136.011 50.06C136.298 50.06 136.535 49.9933 136.721 49.86C136.915 49.72 137.048 49.54 137.121 49.32L138.331 49.41C138.165 49.9433 137.881 50.3633 137.481 50.67C137.081 50.97 136.585 51.12 135.991 51.12ZM134.721 47.8H137.151C137.118 47.3933 136.995 47.0933 136.781 46.9C136.568 46.7 136.295 46.6 135.961 46.6C135.628 46.6 135.351 46.7033 135.131 46.91C134.918 47.11 134.781 47.4067 134.721 47.8ZM141.038 51V45.66H141.938L142.028 47.04H141.938C142.004 46.5733 142.144 46.2267 142.358 46C142.578 45.7733 142.888 45.66 143.288 45.66H144.458V46.65H143.358C143.104 46.65 142.894 46.6967 142.728 46.79C142.561 46.8833 142.434 47.02 142.348 47.2C142.261 47.38 142.218 47.6067 142.218 47.88V51H141.038ZM139.718 51V50.04H143.868V51H139.718ZM139.718 46.62V45.66H141.728V46.62H139.718Z" fill="#292524"/>
<line x1="184.5" y1="41" x2="184.5" y2="54" stroke="#44403B"/>
<path d="M194.62 51V46.14H192.84V45.1H193.68C193.947 45.1 194.16 45.0633 194.32 44.99C194.487 44.91 194.607 44.7833 194.68 44.61C194.76 44.43 194.8 44.1933 194.8 43.9H195.86V51H194.62ZM192.52 51V49.86H197.48V51H192.52ZM200.616 51V46.14H198.836V45.1H199.676C199.943 45.1 200.156 45.0633 200.316 44.99C200.483 44.91 200.603 44.7833 200.676 44.61C200.756 44.43 200.796 44.1933 200.796 43.9H201.856V51H200.616ZM198.516 51V49.86H203.476V51H198.516ZM206.972 43.74C207.532 43.74 208.006 43.8667 208.392 44.12C208.779 44.3667 209.072 44.73 209.272 45.21C209.472 45.6833 209.572 46.26 209.572 46.94C209.572 47.5333 209.519 48.0867 209.412 48.6C209.312 49.1067 209.149 49.5533 208.922 49.94C208.696 50.32 208.399 50.62 208.032 50.84C207.672 51.0533 207.232 51.16 206.712 51.16C206.259 51.16 205.879 51.0867 205.572 50.94C205.266 50.7867 205.019 50.58 204.832 50.32C204.652 50.0533 204.519 49.7533 204.432 49.42L205.692 49.32C205.752 49.5333 205.859 49.7067 206.012 49.84C206.172 49.9733 206.406 50.04 206.712 50.04C207.039 50.04 207.319 49.9467 207.552 49.76C207.792 49.5667 207.979 49.2733 208.112 48.88C208.246 48.48 208.316 47.9667 208.322 47.34L208.682 47.38C208.609 47.6067 208.486 47.82 208.312 48.02C208.139 48.2133 207.919 48.3733 207.652 48.5C207.392 48.6267 207.082 48.69 206.722 48.69C206.256 48.69 205.849 48.59 205.502 48.39C205.156 48.19 204.886 47.91 204.692 47.55C204.506 47.19 204.412 46.77 204.412 46.29C204.412 45.7633 204.519 45.31 204.732 44.93C204.946 44.55 205.242 44.2567 205.622 44.05C206.009 43.8433 206.459 43.74 206.972 43.74ZM206.982 44.88C206.582 44.88 206.266 45 206.032 45.24C205.806 45.4733 205.692 45.8133 205.692 46.26C205.692 46.6667 205.799 46.9933 206.012 47.24C206.226 47.48 206.529 47.6 206.922 47.6C207.196 47.6 207.432 47.5467 207.632 47.44C207.839 47.3267 207.999 47.17 208.112 46.97C208.232 46.7633 208.292 46.5233 208.292 46.25C208.292 45.99 208.239 45.7567 208.132 45.55C208.032 45.3433 207.882 45.18 207.682 45.06C207.489 44.94 207.256 44.88 206.982 44.88ZM212.398 52.57L212.888 51H212.268V49.59H213.708V50.85L213.048 52.57H212.398ZM217.254 49.89L219.914 44.94L220.714 45.01L218.054 49.96L217.254 49.89ZM218.984 51.16C218.458 51.16 218.004 51.01 217.624 50.71C217.244 50.41 216.951 49.9833 216.744 49.43C216.544 48.8767 216.444 48.22 216.444 47.46C216.444 46.6933 216.544 46.0333 216.744 45.48C216.951 44.9267 217.244 44.5 217.624 44.2C218.004 43.8933 218.458 43.74 218.984 43.74C219.518 43.74 219.971 43.8933 220.344 44.2C220.724 44.5 221.014 44.9267 221.214 45.48C221.421 46.0333 221.524 46.6933 221.524 47.46C221.524 48.22 221.421 48.8767 221.214 49.43C221.014 49.9833 220.724 50.41 220.344 50.71C219.971 51.01 219.518 51.16 218.984 51.16ZM218.984 50.04C219.251 50.04 219.478 49.9433 219.664 49.75C219.851 49.55 219.994 49.2567 220.094 48.87C220.194 48.4833 220.244 48.0133 220.244 47.46C220.244 46.8933 220.194 46.42 220.094 46.04C219.994 45.6533 219.851 45.36 219.664 45.16C219.478 44.96 219.251 44.86 218.984 44.86C218.724 44.86 218.498 44.96 218.304 45.16C218.118 45.36 217.974 45.6533 217.874 46.04C217.774 46.42 217.724 46.8933 217.724 47.46C217.724 48.0133 217.774 48.4833 217.874 48.87C217.974 49.2567 218.118 49.55 218.304 49.75C218.498 49.9433 218.724 50.04 218.984 50.04ZM223.25 49.89L225.91 44.94L226.71 45.01L224.05 49.96L223.25 49.89ZM224.98 51.16C224.454 51.16 224 51.01 223.62 50.71C223.24 50.41 222.947 49.9833 222.74 49.43C222.54 48.8767 222.44 48.22 222.44 47.46C222.44 46.6933 222.54 46.0333 222.74 45.48C222.947 44.9267 223.24 44.5 223.62 44.2C224 43.8933 224.454 43.74 224.98 43.74C225.514 43.74 225.967 43.8933 226.34 44.2C226.72 44.5 227.01 44.9267 227.21 45.48C227.417 46.0333 227.52 46.6933 227.52 47.46C227.52 48.22 227.417 48.8767 227.21 49.43C227.01 49.9833 226.72 50.41 226.34 50.71C225.967 51.01 225.514 51.16 224.98 51.16ZM224.98 50.04C225.247 50.04 225.474 49.9433 225.66 49.75C225.847 49.55 225.99 49.2567 226.09 48.87C226.19 48.4833 226.24 48.0133 226.24 47.46C226.24 46.8933 226.19 46.42 226.09 46.04C225.99 45.6533 225.847 45.36 225.66 45.16C225.474 44.96 225.247 44.86 224.98 44.86C224.72 44.86 224.494 44.96 224.3 45.16C224.114 45.36 223.97 45.6533 223.87 46.04C223.77 46.42 223.72 46.8933 223.72 47.46C223.72 48.0133 223.77 48.4833 223.87 48.87C223.97 49.2567 224.114 49.55 224.3 49.75C224.494 49.9433 224.72 50.04 224.98 50.04ZM228.037 47.13V46.35H231.727L231.617 47.13H228.037ZM228.037 48.65V47.87H231.527L231.417 48.65H228.037ZM231.147 51.16C230.573 51.16 230.093 51.01 229.707 50.71C229.32 50.41 229.03 49.9833 228.837 49.43C228.643 48.8767 228.547 48.22 228.547 47.46C228.547 46.6933 228.643 46.0333 228.837 45.48C229.03 44.9267 229.32 44.5 229.707 44.2C230.093 43.8933 230.573 43.74 231.147 43.74C231.813 43.74 232.37 43.96 232.817 44.4C233.263 44.84 233.55 45.4633 233.677 46.27L232.407 46.33C232.32 45.85 232.163 45.4867 231.937 45.24C231.717 44.9867 231.453 44.86 231.147 44.86C230.84 44.86 230.59 44.9633 230.397 45.17C230.203 45.37 230.06 45.6633 229.967 46.05C229.873 46.4367 229.827 46.9067 229.827 47.46C229.827 48.0067 229.873 48.4733 229.967 48.86C230.06 49.2467 230.203 49.54 230.397 49.74C230.59 49.94 230.84 50.04 231.147 50.04C231.473 50.04 231.75 49.9067 231.977 49.64C232.21 49.3667 232.367 48.97 232.447 48.45L233.717 48.5C233.597 49.34 233.31 49.9933 232.857 50.46C232.41 50.9267 231.84 51.16 231.147 51.16Z" fill="#292524"/>
<rect x="31" y="82" width="215" height="37" rx="4" fill="#1C1917"/>
<path d="M49.0002 91.3333L56.9168 95.9167V105.083L49.0002 109.667L41.0835 105.083V95.9167L49.0002 91.3333ZM42.7502 96.8816V104.122L49.0002 107.741V100.5L42.7502 96.8816Z" fill="#57534D"/>
<path d="M70 104.16C69.4333 104.16 68.95 104.017 68.55 103.73C68.1567 103.443 67.8567 103.023 67.65 102.47C67.4433 101.917 67.34 101.247 67.34 100.46C67.34 99.66 67.4433 98.9833 67.65 98.43C67.8567 97.8767 68.1567 97.4567 68.55 97.17C68.95 96.8833 69.4333 96.74 70 96.74C70.5667 96.74 71.0467 96.8833 71.44 97.17C71.84 97.4567 72.1433 97.8767 72.35 98.43C72.5567 98.9833 72.66 99.66 72.66 100.46C72.66 101.247 72.5567 101.917 72.35 102.47C72.1433 103.023 71.84 103.443 71.44 103.73C71.0467 104.017 70.5667 104.16 70 104.16ZM70 103.04C70.3 103.04 70.5533 102.947 70.76 102.76C70.9667 102.573 71.12 102.29 71.22 101.91C71.3267 101.523 71.38 101.04 71.38 100.46C71.38 99.88 71.3267 99.3967 71.22 99.01C71.12 98.6233 70.9667 98.3367 70.76 98.15C70.5533 97.9567 70.3 97.86 70 97.86C69.7 97.86 69.4467 97.9567 69.24 98.15C69.0333 98.3367 68.8767 98.6233 68.77 99.01C68.67 99.3967 68.62 99.88 68.62 100.46C68.62 101.04 68.67 101.523 68.77 101.91C68.8767 102.29 69.0333 102.573 69.24 102.76C69.4467 102.947 69.7 103.04 70 103.04ZM73.6361 105.5V98.66H74.7661L74.7961 99.88L74.6761 99.82C74.8094 99.4067 75.0228 99.09 75.3161 98.87C75.6161 98.65 75.9761 98.54 76.3961 98.54C76.8894 98.54 77.2961 98.6667 77.6161 98.92C77.9428 99.1733 78.1828 99.51 78.3361 99.93C78.4961 100.35 78.5761 100.817 78.5761 101.33C78.5761 101.843 78.4961 102.31 78.3361 102.73C78.1828 103.15 77.9428 103.487 77.6161 103.74C77.2961 103.993 76.8894 104.12 76.3961 104.12C76.1228 104.12 75.8694 104.077 75.6361 103.99C75.4094 103.897 75.2128 103.767 75.0461 103.6C74.8861 103.427 74.7661 103.213 74.6861 102.96L74.8161 102.82V105.5H73.6361ZM76.0961 103.06C76.4894 103.06 76.7961 102.917 77.0161 102.63C77.2361 102.337 77.3461 101.903 77.3461 101.33C77.3461 100.757 77.2361 100.327 77.0161 100.04C76.7961 99.7467 76.4894 99.6 76.0961 99.6C75.8428 99.6 75.6194 99.6633 75.4261 99.79C75.2394 99.9167 75.0894 100.11 74.9761 100.37C74.8694 100.623 74.8161 100.943 74.8161 101.33C74.8161 101.717 74.8694 102.04 74.9761 102.3C75.0828 102.553 75.2328 102.743 75.4261 102.87C75.6194 102.997 75.8428 103.06 76.0961 103.06ZM82.7422 104C82.1689 104 81.7455 103.87 81.4722 103.61C81.1989 103.343 81.0622 102.94 81.0622 102.4V97.41H82.2422V102.31C82.2422 102.557 82.3022 102.74 82.4222 102.86C82.5422 102.98 82.7189 103.04 82.9522 103.04H84.2722V104H82.7422ZM79.4522 99.62V98.66H84.2722V99.62H79.4522ZM87.7483 104V98.66H88.9283V104H87.7483ZM85.7083 104V103.04H90.6683V104H85.7083ZM85.8083 99.62V98.66H88.7583V99.62H85.8083ZM87.6983 97.95V96.83H88.8983V97.95H87.6983ZM93.9844 104.12C93.4844 104.12 93.0444 104.007 92.6644 103.78C92.291 103.553 92.001 103.23 91.7944 102.81C91.5877 102.39 91.4844 101.897 91.4844 101.33C91.4844 100.763 91.5877 100.27 91.7944 99.85C92.001 99.43 92.291 99.1067 92.6644 98.88C93.0444 98.6533 93.4844 98.54 93.9844 98.54C94.4844 98.54 94.921 98.6533 95.2944 98.88C95.6744 99.1067 95.9677 99.43 96.1744 99.85C96.381 100.263 96.4844 100.757 96.4844 101.33C96.4844 101.897 96.381 102.39 96.1744 102.81C95.9677 103.23 95.6744 103.553 95.2944 103.78C94.921 104.007 94.4844 104.12 93.9844 104.12ZM93.9844 103.06C94.391 103.06 94.7044 102.91 94.9244 102.61C95.1444 102.303 95.2544 101.877 95.2544 101.33C95.2544 100.783 95.1444 100.36 94.9244 100.06C94.7044 99.7533 94.391 99.6 93.9844 99.6C93.5777 99.6 93.2644 99.7533 93.0444 100.06C92.8244 100.36 92.7144 100.783 92.7144 101.33C92.7144 101.877 92.8244 102.303 93.0444 102.61C93.2644 102.91 93.5777 103.06 93.9844 103.06ZM97.7405 104V98.66H98.8205L98.8605 100.09L98.7405 100.02C98.8005 99.68 98.9138 99.4033 99.0805 99.19C99.2471 98.97 99.4505 98.8067 99.6905 98.7C99.9371 98.5933 100.204 98.54 100.49 98.54C100.884 98.54 101.207 98.6267 101.46 98.8C101.714 98.9733 101.904 99.2133 102.03 99.52C102.157 99.82 102.22 100.163 102.22 100.55V104H101.04V100.83C101.04 100.403 100.96 100.083 100.8 99.87C100.647 99.6567 100.41 99.55 100.09 99.55C99.8771 99.55 99.6805 99.6 99.5005 99.7C99.3271 99.8 99.1871 99.95 99.0805 100.15C98.9738 100.343 98.9205 100.583 98.9205 100.87V104H97.7405Z" fill="#57534D"/>
<rect x="202" y="90.5" width="36" height="20" rx="10" fill="#44403B"/>
<rect x="220" y="92.5" width="16" height="16" rx="8" fill="#79716B"/>
<rect x="31" y="135" width="215" height="37" rx="4" fill="#1C1917"/>
<rect x="33" y="137" width="69" height="33" rx="2" fill="#57534D"/>
<path d="M54.88 157V151.04H52.9V149.9H58.1V151.04H56.12V157H54.88ZM60.7561 157.12C60.4228 157.12 60.1228 157.06 59.8561 156.94C59.5894 156.82 59.3761 156.65 59.2161 156.43C59.0561 156.203 58.9761 155.937 58.9761 155.63C58.9761 155.177 59.1161 154.827 59.3961 154.58C59.6828 154.327 60.0928 154.143 60.6261 154.03L62.2961 153.68C62.2961 153.307 62.2161 153.023 62.0561 152.83C61.9028 152.63 61.6594 152.53 61.3261 152.53C61.0194 152.53 60.7828 152.603 60.6161 152.75C60.4494 152.897 60.3394 153.09 60.2861 153.33L59.0561 153.26C59.1561 152.747 59.4028 152.333 59.7961 152.02C60.1961 151.7 60.6994 151.54 61.3061 151.54C62.0328 151.54 62.5761 151.733 62.9361 152.12C63.2961 152.507 63.4761 153.047 63.4761 153.74V155.73C63.4761 155.863 63.5028 155.957 63.5561 156.01C63.6094 156.057 63.6828 156.08 63.7761 156.08H64.0361V157C63.9961 157.007 63.9294 157.013 63.8361 157.02C63.7494 157.033 63.6594 157.04 63.5661 157.04C63.3128 157.04 63.0961 156.997 62.9161 156.91C62.7428 156.823 62.6094 156.693 62.5161 156.52C62.4228 156.34 62.3728 156.12 62.3661 155.86H62.5161C62.4828 156.1 62.3861 156.317 62.2261 156.51C62.0661 156.697 61.8594 156.847 61.6061 156.96C61.3594 157.067 61.0761 157.12 60.7561 157.12ZM60.9661 156.2C61.2528 156.2 61.4961 156.15 61.6961 156.05C61.8961 155.943 62.0461 155.797 62.1461 155.61C62.2461 155.417 62.2961 155.187 62.2961 154.92V154.56L60.9661 154.84C60.6794 154.893 60.4794 154.98 60.3661 155.1C60.2594 155.213 60.2061 155.367 60.2061 155.56C60.2061 155.76 60.2728 155.917 60.4061 156.03C60.5394 156.143 60.7261 156.2 60.9661 156.2ZM67.9922 157.12C67.6189 157.12 67.2922 157.033 67.0122 156.86C66.7389 156.68 66.5289 156.45 66.3822 156.17L66.3522 157H65.2322V149.9H66.4122V152.41C66.5455 152.17 66.7489 151.967 67.0222 151.8C67.3022 151.627 67.6255 151.54 67.9922 151.54C68.4389 151.54 68.8255 151.653 69.1522 151.88C69.4789 152.1 69.7289 152.42 69.9022 152.84C70.0822 153.253 70.1722 153.75 70.1722 154.33C70.1722 154.91 70.0822 155.41 69.9022 155.83C69.7289 156.243 69.4789 156.563 69.1522 156.79C68.8255 157.01 68.4389 157.12 67.9922 157.12ZM67.7122 156.06C68.1055 156.06 68.4089 155.91 68.6222 155.61C68.8355 155.303 68.9422 154.877 68.9422 154.33C68.9422 153.783 68.8355 153.36 68.6222 153.06C68.4089 152.753 68.1122 152.6 67.7322 152.6C67.4589 152.6 67.2222 152.67 67.0222 152.81C66.8289 152.943 66.6789 153.14 66.5722 153.4C66.4655 153.653 66.4122 153.963 66.4122 154.33C66.4122 154.69 66.4655 155 66.5722 155.26C66.6855 155.513 66.8389 155.71 67.0322 155.85C67.2255 155.99 67.4522 156.06 67.7122 156.06ZM79.1044 157V152.14H77.3244V151.1H78.1644C78.431 151.1 78.6444 151.063 78.8044 150.99C78.971 150.91 79.091 150.783 79.1644 150.61C79.2444 150.43 79.2844 150.193 79.2844 149.9H80.3444V157H79.1044ZM77.0044 157V155.86H81.9644V157H77.0044Z" fill="#292524"/>
<rect x="104" y="137" width="69" height="33" rx="2" fill="#1C1917"/>
<path d="M125.88 157V151.04H123.9V149.9H129.1V151.04H127.12V157H125.88ZM131.756 157.12C131.423 157.12 131.123 157.06 130.856 156.94C130.589 156.82 130.376 156.65 130.216 156.43C130.056 156.203 129.976 155.937 129.976 155.63C129.976 155.177 130.116 154.827 130.396 154.58C130.683 154.327 131.093 154.143 131.626 154.03L133.296 153.68C133.296 153.307 133.216 153.023 133.056 152.83C132.903 152.63 132.659 152.53 132.326 152.53C132.019 152.53 131.783 152.603 131.616 152.75C131.449 152.897 131.339 153.09 131.286 153.33L130.056 153.26C130.156 152.747 130.403 152.333 130.796 152.02C131.196 151.7 131.699 151.54 132.306 151.54C133.033 151.54 133.576 151.733 133.936 152.12C134.296 152.507 134.476 153.047 134.476 153.74V155.73C134.476 155.863 134.503 155.957 134.556 156.01C134.609 156.057 134.683 156.08 134.776 156.08H135.036V157C134.996 157.007 134.929 157.013 134.836 157.02C134.749 157.033 134.659 157.04 134.566 157.04C134.313 157.04 134.096 156.997 133.916 156.91C133.743 156.823 133.609 156.693 133.516 156.52C133.423 156.34 133.373 156.12 133.366 155.86H133.516C133.483 156.1 133.386 156.317 133.226 156.51C133.066 156.697 132.859 156.847 132.606 156.96C132.359 157.067 132.076 157.12 131.756 157.12ZM131.966 156.2C132.253 156.2 132.496 156.15 132.696 156.05C132.896 155.943 133.046 155.797 133.146 155.61C133.246 155.417 133.296 155.187 133.296 154.92V154.56L131.966 154.84C131.679 154.893 131.479 154.98 131.366 155.1C131.259 155.213 131.206 155.367 131.206 155.56C131.206 155.76 131.273 155.917 131.406 156.03C131.539 156.143 131.726 156.2 131.966 156.2ZM138.992 157.12C138.619 157.12 138.292 157.033 138.012 156.86C137.739 156.68 137.529 156.45 137.382 156.17L137.352 157H136.232V149.9H137.412V152.41C137.546 152.17 137.749 151.967 138.022 151.8C138.302 151.627 138.626 151.54 138.992 151.54C139.439 151.54 139.826 151.653 140.152 151.88C140.479 152.1 140.729 152.42 140.902 152.84C141.082 153.253 141.172 153.75 141.172 154.33C141.172 154.91 141.082 155.41 140.902 155.83C140.729 156.243 140.479 156.563 140.152 156.79C139.826 157.01 139.439 157.12 138.992 157.12ZM138.712 156.06C139.106 156.06 139.409 155.91 139.622 155.61C139.836 155.303 139.942 154.877 139.942 154.33C139.942 153.783 139.836 153.36 139.622 153.06C139.409 152.753 139.112 152.6 138.732 152.6C138.459 152.6 138.222 152.67 138.022 152.81C137.829 152.943 137.679 153.14 137.572 153.4C137.466 153.653 137.412 153.963 137.412 154.33C137.412 154.69 137.466 155 137.572 155.26C137.686 155.513 137.839 155.71 138.032 155.85C138.226 155.99 138.452 156.06 138.712 156.06ZM147.944 157C147.944 156.447 148.021 155.96 148.174 155.54C148.328 155.113 148.594 154.72 148.974 154.36C149.354 153.993 149.884 153.633 150.564 153.28C150.831 153.14 151.051 153.007 151.224 152.88C151.398 152.753 151.528 152.613 151.614 152.46C151.701 152.307 151.744 152.117 151.744 151.89C151.744 151.683 151.701 151.503 151.614 151.35C151.534 151.197 151.411 151.077 151.244 150.99C151.078 150.903 150.871 150.86 150.624 150.86C150.218 150.86 149.904 150.97 149.684 151.19C149.464 151.41 149.324 151.727 149.264 152.14L147.974 152.07C148.048 151.357 148.311 150.79 148.764 150.37C149.218 149.95 149.844 149.74 150.644 149.74C151.158 149.74 151.591 149.827 151.944 150C152.298 150.173 152.564 150.42 152.744 150.74C152.924 151.053 153.014 151.417 153.014 151.83C153.014 152.203 152.954 152.527 152.834 152.8C152.714 153.067 152.514 153.317 152.234 153.55C151.961 153.777 151.588 154.017 151.114 154.27C150.714 154.483 150.388 154.687 150.134 154.88C149.888 155.067 149.704 155.243 149.584 155.41C149.464 155.57 149.398 155.72 149.384 155.86H153.024V157H147.944Z" fill="#44403B"/>
<rect x="175" y="137" width="69" height="33" rx="2" fill="#1C1917"/>
<path d="M196.88 157V151.04H194.9V149.9H200.1V151.04H198.12V157H196.88ZM202.756 157.12C202.423 157.12 202.123 157.06 201.856 156.94C201.589 156.82 201.376 156.65 201.216 156.43C201.056 156.203 200.976 155.937 200.976 155.63C200.976 155.177 201.116 154.827 201.396 154.58C201.683 154.327 202.093 154.143 202.626 154.03L204.296 153.68C204.296 153.307 204.216 153.023 204.056 152.83C203.903 152.63 203.659 152.53 203.326 152.53C203.019 152.53 202.783 152.603 202.616 152.75C202.449 152.897 202.339 153.09 202.286 153.33L201.056 153.26C201.156 152.747 201.403 152.333 201.796 152.02C202.196 151.7 202.699 151.54 203.306 151.54C204.033 151.54 204.576 151.733 204.936 152.12C205.296 152.507 205.476 153.047 205.476 153.74V155.73C205.476 155.863 205.503 155.957 205.556 156.01C205.609 156.057 205.683 156.08 205.776 156.08H206.036V157C205.996 157.007 205.929 157.013 205.836 157.02C205.749 157.033 205.659 157.04 205.566 157.04C205.313 157.04 205.096 156.997 204.916 156.91C204.743 156.823 204.609 156.693 204.516 156.52C204.423 156.34 204.373 156.12 204.366 155.86H204.516C204.483 156.1 204.386 156.317 204.226 156.51C204.066 156.697 203.859 156.847 203.606 156.96C203.359 157.067 203.076 157.12 202.756 157.12ZM202.966 156.2C203.253 156.2 203.496 156.15 203.696 156.05C203.896 155.943 204.046 155.797 204.146 155.61C204.246 155.417 204.296 155.187 204.296 154.92V154.56L202.966 154.84C202.679 154.893 202.479 154.98 202.366 155.1C202.259 155.213 202.206 155.367 202.206 155.56C202.206 155.76 202.273 155.917 202.406 156.03C202.539 156.143 202.726 156.2 202.966 156.2ZM209.992 157.12C209.619 157.12 209.292 157.033 209.012 156.86C208.739 156.68 208.529 156.45 208.382 156.17L208.352 157H207.232V149.9H208.412V152.41C208.546 152.17 208.749 151.967 209.022 151.8C209.302 151.627 209.626 151.54 209.992 151.54C210.439 151.54 210.826 151.653 211.152 151.88C211.479 152.1 211.729 152.42 211.902 152.84C212.082 153.253 212.172 153.75 212.172 154.33C212.172 154.91 212.082 155.41 211.902 155.83C211.729 156.243 211.479 156.563 211.152 156.79C210.826 157.01 210.439 157.12 209.992 157.12ZM209.712 156.06C210.106 156.06 210.409 155.91 210.622 155.61C210.836 155.303 210.942 154.877 210.942 154.33C210.942 153.783 210.836 153.36 210.622 153.06C210.409 152.753 210.112 152.6 209.732 152.6C209.459 152.6 209.222 152.67 209.022 152.81C208.829 152.943 208.679 153.14 208.572 153.4C208.466 153.653 208.412 153.963 208.412 154.33C208.412 154.69 208.466 155 208.572 155.26C208.686 155.513 208.839 155.71 209.032 155.85C209.226 155.99 209.452 156.06 209.712 156.06ZM221.434 157.16C220.634 157.16 220.028 156.97 219.614 156.59C219.201 156.21 218.978 155.71 218.944 155.09L220.194 155.02C220.234 155.393 220.368 155.657 220.594 155.81C220.828 155.963 221.111 156.04 221.444 156.04C221.684 156.04 221.901 156.003 222.094 155.93C222.294 155.857 222.451 155.74 222.564 155.58C222.684 155.413 222.744 155.2 222.744 154.94C222.744 154.68 222.691 154.467 222.584 154.3C222.478 154.127 222.324 154 222.124 153.92C221.924 153.833 221.691 153.79 221.424 153.79H220.874V152.76H221.424C221.631 152.76 221.814 152.73 221.974 152.67C222.141 152.603 222.271 152.5 222.364 152.36C222.464 152.22 222.514 152.037 222.514 151.81C222.514 151.49 222.421 151.25 222.234 151.09C222.054 150.93 221.798 150.85 221.464 150.85C221.104 150.85 220.834 150.93 220.654 151.09C220.474 151.243 220.368 151.453 220.334 151.72L219.074 151.65C219.141 151.07 219.378 150.607 219.784 150.26C220.191 149.913 220.754 149.74 221.474 149.74C221.948 149.74 222.358 149.817 222.704 149.97C223.058 150.123 223.328 150.347 223.514 150.64C223.701 150.927 223.794 151.273 223.794 151.68C223.794 152.127 223.658 152.487 223.384 152.76C223.111 153.027 222.714 153.207 222.194 153.3V153.11C222.768 153.177 223.214 153.38 223.534 153.72C223.861 154.053 224.024 154.48 224.024 155C224.024 155.453 223.918 155.843 223.704 156.17C223.491 156.49 223.188 156.737 222.794 156.91C222.408 157.077 221.954 157.16 221.434 157.16Z" fill="#44403B"/>
<path d="M0 101H276V202H0V101Z" fill="url(#paint0_linear_8860_677)"/>
</g>
<defs>
<linearGradient id="paint0_linear_8860_677" x1="138" y1="101" x2="138" y2="202" gradientUnits="userSpaceOnUse">
<stop stop-color="#0C0A09" stop-opacity="0"/>
<stop offset="0.985577" stop-color="#0C0A09" stop-opacity="0.5"/>
</linearGradient>
<clipPath id="clip0_8860_677">
<rect width="276" height="202" fill="white"/>
</clipPath>
</defs>
</svg>
