<svg width="276" height="202" viewBox="0 0 276 202" fill="none" xmlns="http://www.w3.org/2000/svg">
<g clip-path="url(#clip0_8859_521)">
<rect x="40" y="38" width="196" height="351" rx="28" fill="#292524" stroke="#1C1917" stroke-width="8"/>
<path d="M186.345 57.4983C187.89 56.2485 189.858 55.5 192 55.5C194.142 55.5 196.11 56.2485 197.655 57.4983L196.713 58.6652C195.425 57.6238 193.785 57 192 57C190.215 57 188.575 57.6238 187.287 58.6652L186.345 57.4983ZM187.916 59.4432C189.032 58.5406 190.453 58 192 58C193.547 58 194.968 58.5406 196.084 59.4432L195.142 60.6101C194.283 59.9158 193.19 59.5 192 59.5C190.81 59.5 189.717 59.9158 188.858 60.6101L187.916 59.4432ZM189.487 61.3882C190.173 60.8327 191.048 60.5 192 60.5C192.952 60.5 193.827 60.8327 194.513 61.3882L193.571 62.5551C193.142 62.2079 192.595 62 192 62C191.405 62 190.858 62.2079 190.429 62.5551L189.487 61.3882ZM191.057 63.333C191.315 63.1247 191.643 63 192 63C192.357 63 192.685 63.1247 192.943 63.333L192 64.5L191.057 63.333Z" fill="#57534D"/>
<path d="M205.5 56.5H213.5C213.776 56.5 214 56.7239 214 57V63C214 63.2761 213.776 63.5 213.5 63.5H205.5C205.224 63.5 205 63.2761 205 63V57C205 56.7239 205.224 56.5 205.5 56.5ZM214.5 58.5H215.5V61.5H214.5V58.5Z" fill="#57534D"/>
<rect x="44" y="142" width="188" height="109" rx="24" fill="#44403B"/>
<path d="M62.98 56.74C63.5133 56.74 63.9667 56.8633 64.34 57.11C64.72 57.35 65.0067 57.7067 65.2 58.18C65.4 58.6467 65.5 59.22 65.5 59.9C65.5 60.4867 65.45 61.0367 65.35 61.55C65.2567 62.0633 65.1 62.5167 64.88 62.91C64.6667 63.2967 64.38 63.6033 64.02 63.83C63.6667 64.05 63.2267 64.16 62.7 64.16C62.28 64.16 61.9233 64.09 61.63 63.95C61.3367 63.81 61.0967 63.6133 60.91 63.36C60.73 63.1067 60.5933 62.8133 60.5 62.48L61.4 62.4C61.48 62.68 61.62 62.9033 61.82 63.07C62.02 63.2367 62.3133 63.32 62.7 63.32C63.0933 63.32 63.43 63.21 63.71 62.99C63.9967 62.7633 64.2167 62.4267 64.37 61.98C64.5233 61.5333 64.6067 60.9733 64.62 60.3L64.8 60.34C64.7267 60.58 64.5967 60.8033 64.41 61.01C64.23 61.21 64.0033 61.3733 63.73 61.5C63.4633 61.62 63.16 61.68 62.82 61.68C62.3533 61.68 61.9467 61.58 61.6 61.38C61.2533 61.18 60.9833 60.9 60.79 60.54C60.5967 60.1733 60.5 59.7467 60.5 59.26C60.5 58.74 60.6033 58.2933 60.81 57.92C61.0233 57.54 61.3167 57.25 61.69 57.05C62.0633 56.8433 62.4933 56.74 62.98 56.74ZM62.96 57.58C62.4933 57.58 62.1167 57.7267 61.83 58.02C61.5433 58.3133 61.4 58.7267 61.4 59.26C61.4 59.7467 61.5333 60.1367 61.8 60.43C62.0733 60.7167 62.4333 60.86 62.88 60.86C63.2 60.86 63.4867 60.7967 63.74 60.67C63.9933 60.5367 64.1933 60.35 64.34 60.11C64.4867 59.87 64.56 59.5867 64.56 59.26C64.56 58.9333 64.4933 58.6433 64.36 58.39C64.2333 58.1367 64.05 57.94 63.81 57.8C63.57 57.6533 63.2867 57.58 62.96 57.58ZM68.3761 64V62.78H69.6161V64H68.3761ZM68.3761 60.14V58.92H69.6161V60.14H68.3761ZM72.4922 64C72.4922 63.5 72.5689 63.05 72.7222 62.65C72.8822 62.2433 73.1589 61.8567 73.5522 61.49C73.9522 61.1233 74.5055 60.7533 75.2122 60.38C75.5389 60.2067 75.8022 60.0467 76.0022 59.9C76.2022 59.7533 76.3489 59.5967 76.4422 59.43C76.5355 59.2633 76.5822 59.06 76.5822 58.82C76.5822 58.5733 76.5289 58.36 76.4222 58.18C76.3155 57.9933 76.1555 57.8467 75.9422 57.74C75.7355 57.6333 75.4755 57.58 75.1622 57.58C74.6622 57.58 74.2655 57.71 73.9722 57.97C73.6855 58.23 73.5055 58.6 73.4322 59.08L72.5322 59.02C72.6122 58.3267 72.8789 57.7733 73.3322 57.36C73.7855 56.9467 74.3955 56.74 75.1622 56.74C75.6489 56.74 76.0655 56.8267 76.4122 57C76.7589 57.1733 77.0222 57.4167 77.2022 57.73C77.3889 58.0367 77.4822 58.3933 77.4822 58.8C77.4822 59.16 77.4222 59.4733 77.3022 59.74C77.1822 60 76.9789 60.2433 76.6922 60.47C76.4122 60.6967 76.0255 60.94 75.5322 61.2C75.1055 61.4267 74.7455 61.6567 74.4522 61.89C74.1655 62.1233 73.9455 62.35 73.7922 62.57C73.6455 62.7833 73.5655 62.98 73.5522 63.16H77.4922V64H72.4922ZM80.8283 64V58.74H78.9683V58H79.9283C80.1816 58 80.3849 57.9633 80.5383 57.89C80.6983 57.8167 80.8116 57.7 80.8783 57.54C80.9516 57.38 80.9883 57.1667 80.9883 56.9H81.6883V64H80.8283ZM78.5883 64V63.16H83.3883V64H78.5883Z" fill="#57534D"/>
<rect x="56" y="154" width="78" height="36" rx="18" fill="#57534D"/>
<rect x="71" y="166" width="48" height="12" rx="2" fill="#44403B"/>
<rect x="142" y="154" width="78" height="36" rx="18" fill="#57534D"/>
<rect x="157" y="166" width="48" height="12" rx="2" fill="#44403B"/>
<rect x="116" y="87" width="90" height="12" rx="2" fill="#44403B"/>
<rect x="116" y="103" width="48" height="12" rx="2" fill="#44403B"/>
<circle cx="80" cy="101" r="24" fill="#57534D"/>
<path d="M72 111C72 106.582 75.5817 103 80 103C84.4183 103 88 106.582 88 111H72ZM80 102C76.685 102 74 99.315 74 96C74 92.685 76.685 90 80 90C83.315 90 86 92.685 86 96C86 99.315 83.315 102 80 102Z" fill="#44403B"/>
<path d="M0 101H276V202H0V101Z" fill="url(#paint0_linear_8859_521)"/>
</g>
<defs>
<linearGradient id="paint0_linear_8859_521" x1="138" y1="101" x2="138" y2="202" gradientUnits="userSpaceOnUse">
<stop stop-color="#0C0A09" stop-opacity="0"/>
<stop offset="0.985577" stop-color="#0C0A09" stop-opacity="0.5"/>
</linearGradient>
<clipPath id="clip0_8859_521">
<rect width="276" height="202" fill="white"/>
</clipPath>
</defs>
</svg>
