<svg width="500" height="500" viewBox="0 0 500 500" fill="none" xmlns="http://www.w3.org/2000/svg">
<g clip-path="url(#clip0_8870_1870)">
<rect width="500" height="500" fill="#C9FE6E"/>
<rect x="106.128" y="36.1277" width="287.745" height="581.362" rx="41.1064" fill="#57534D" stroke="#0C0A09" stroke-width="11.7447"/>
<path d="M287.494 268.115L233.618 304.032C232.45 304.811 230.872 304.496 230.093 303.328C229.815 302.91 229.667 302.42 229.667 301.918V230.083C229.667 228.679 230.804 227.541 232.208 227.541C232.71 227.541 233.201 227.69 233.618 227.968L287.494 263.885C288.662 264.664 288.978 266.242 288.199 267.41C288.013 267.689 287.774 267.929 287.494 268.115Z" fill="black"/>
<path d="M352.001 379.283C354.742 376.823 358.977 376.905 361.617 379.55C364.256 382.196 364.347 386.41 361.892 389.159L352 399.066L342.108 389.159C339.653 386.41 339.745 382.189 342.384 379.55C345.025 376.909 349.253 376.82 352.001 379.283Z" fill="#D9D9D9"/>
<path d="M346.507 438.295L340.333 439.667L341.705 433.494C340.83 431.857 340.333 429.986 340.333 428C340.333 421.557 345.557 416.333 352 416.333C358.443 416.333 363.667 421.557 363.667 428C363.667 434.443 358.443 439.667 352 439.667C350.014 439.667 348.144 439.17 346.507 438.295ZM346.844 435.83L347.607 436.237C348.946 436.954 350.443 437.333 352 437.333C357.155 437.333 361.333 433.155 361.333 428C361.333 422.845 357.155 418.667 352 418.667C346.846 418.667 342.667 422.845 342.667 428C342.667 429.557 343.047 431.054 343.763 432.393L344.171 433.156L343.407 436.593L346.844 435.83Z" fill="#D9D9D9"/>
<path d="M363.348 457.45L356.986 479.717C356.81 480.334 356.431 480.362 356.149 479.798L350.834 469.167L340.244 464.931C339.649 464.693 339.656 464.337 340.283 464.128L362.551 456.706C363.167 456.5 363.521 456.845 363.348 457.45ZM360.208 459.946L345.948 464.699L352.524 467.33L356.071 474.425L360.208 459.946Z" fill="#D9D9D9"/>
<g clip-path="url(#clip1_8870_1870)">
<path d="M320.975 64.7528C323.243 62.9181 326.132 61.8192 329.277 61.8192C332.422 61.8192 335.31 62.9181 337.579 64.7528L336.196 66.466C334.305 64.937 331.898 64.0213 329.277 64.0213C326.656 64.0213 324.249 64.937 322.358 66.466L320.975 64.7528ZM323.281 67.6081C324.919 66.283 327.005 65.4894 329.277 65.4894C331.548 65.4894 333.635 66.283 335.273 67.6081L333.889 69.3213C332.629 68.302 331.024 67.6915 329.277 67.6915C327.53 67.6915 325.925 68.302 324.665 69.3213L323.281 67.6081ZM325.587 70.4635C326.595 69.6479 327.879 69.1596 329.277 69.1596C330.675 69.1596 331.959 69.6479 332.967 70.4635L331.583 72.1766C330.953 71.6669 330.151 71.3617 329.277 71.3617C328.403 71.3617 327.601 71.6669 326.971 72.1766L325.587 70.4635ZM327.893 73.3187C328.271 73.0129 328.753 72.8298 329.277 72.8298C329.801 72.8298 330.283 73.0129 330.661 73.3187L329.277 75.0319L327.893 73.3187Z" fill="white"/>
</g>
<path d="M349.096 63.2872H360.841C361.246 63.2872 361.575 63.6159 361.575 64.0213V72.8298C361.575 73.2352 361.246 73.5638 360.841 73.5638H349.096C348.69 73.5638 348.362 73.2352 348.362 72.8298V64.0213C348.362 63.6159 348.69 63.2872 349.096 63.2872ZM362.309 66.2234H363.777V70.6277H362.309V66.2234Z" fill="white"/>
<path d="M139.864 63.9587C140.647 63.9587 141.313 64.1398 141.861 64.5019C142.419 64.8543 142.839 65.3779 143.123 66.0728C143.417 66.7579 143.564 67.5996 143.564 68.5979C143.564 69.4592 143.49 70.2666 143.344 71.0202C143.206 71.7738 142.976 72.4394 142.654 73.0168C142.34 73.5845 141.919 74.0347 141.391 74.3675C140.872 74.6904 140.226 74.8519 139.453 74.8519C138.836 74.8519 138.313 74.7492 137.882 74.5436C137.452 74.3381 137.099 74.0494 136.825 73.6775C136.561 73.3055 136.36 72.8749 136.223 72.3855L137.545 72.2681C137.662 72.6792 137.868 73.007 138.161 73.2517C138.455 73.4964 138.885 73.6187 139.453 73.6187C140.031 73.6187 140.525 73.4572 140.936 73.1343C141.357 72.8015 141.68 72.3072 141.905 71.6515C142.13 70.9958 142.252 70.1736 142.272 69.1851L142.536 69.2438C142.428 69.5962 142.238 69.9241 141.964 70.2275C141.699 70.5211 141.366 70.7609 140.965 70.9468C140.574 71.123 140.128 71.2111 139.629 71.2111C138.944 71.2111 138.347 71.0643 137.838 70.7707C137.329 70.477 136.933 70.066 136.649 69.5375C136.365 68.9992 136.223 68.3728 136.223 67.6583C136.223 66.8949 136.375 66.2392 136.678 65.6911C136.992 65.1332 137.422 64.7075 137.97 64.4138C138.518 64.1104 139.15 63.9587 139.864 63.9587ZM139.835 65.1919C139.15 65.1919 138.597 65.4072 138.176 65.8379C137.755 66.2685 137.545 66.8753 137.545 67.6583C137.545 68.3728 137.74 68.9453 138.132 69.376C138.533 69.7968 139.062 70.0072 139.717 70.0072C140.187 70.0072 140.608 69.9143 140.98 69.7283C141.352 69.5326 141.645 69.2585 141.861 68.9062C142.076 68.5538 142.184 68.1379 142.184 67.6583C142.184 67.1787 142.086 66.753 141.89 66.3811C141.704 66.0092 141.435 65.7204 141.083 65.5149C140.73 65.2996 140.314 65.1919 139.835 65.1919ZM147.786 74.617V72.826H149.607V74.617H147.786ZM147.786 68.9502V67.1592H149.607V68.9502H147.786ZM153.829 74.617C153.829 73.883 153.941 73.2224 154.167 72.6351C154.401 72.0381 154.808 71.4704 155.385 70.9321C155.972 70.3938 156.785 69.8507 157.822 69.3026C158.302 69.0481 158.688 68.8132 158.982 68.5979C159.275 68.3826 159.491 68.1526 159.628 67.9079C159.765 67.6632 159.833 67.3647 159.833 67.0124C159.833 66.6502 159.755 66.337 159.598 66.0728C159.442 65.7987 159.207 65.5834 158.894 65.4268C158.59 65.2702 158.209 65.1919 157.749 65.1919C157.015 65.1919 156.432 65.3828 156.002 65.7645C155.581 66.1462 155.317 66.6894 155.209 67.3941L153.888 67.306C154.005 66.2881 154.397 65.4758 155.062 64.8689C155.728 64.2621 156.623 63.9587 157.749 63.9587C158.463 63.9587 159.075 64.086 159.584 64.3404C160.093 64.5949 160.479 64.9521 160.744 65.4121C161.018 65.8624 161.155 66.386 161.155 66.983C161.155 67.5115 161.067 67.9715 160.89 68.363C160.714 68.7447 160.416 69.1019 159.995 69.4347C159.584 69.7675 159.016 70.1247 158.292 70.5064C157.665 70.8392 157.137 71.1768 156.706 71.5194C156.285 71.8619 155.962 72.1947 155.737 72.5177C155.522 72.8309 155.405 73.1196 155.385 73.3838H161.169V74.617H153.829ZM166.067 74.617V66.8949H163.336V65.8085H164.746C165.118 65.8085 165.416 65.7547 165.641 65.647C165.876 65.5394 166.042 65.3681 166.14 65.1332C166.248 64.8983 166.302 64.5851 166.302 64.1936H167.33V74.617H166.067ZM162.778 74.617V73.3838H169.825V74.617H162.778Z" fill="white"/>
<circle cx="151" cy="470" r="16" fill="#D9D9D9"/>
<rect x="179" y="466" width="68" height="8" rx="2" fill="#D9D9D9"/>
</g>
<defs>
<clipPath id="clip0_8870_1870">
<rect width="500" height="500" fill="white"/>
</clipPath>
<clipPath id="clip1_8870_1870">
<rect width="17.617" height="17.617" fill="white" transform="translate(320.468 59.617)"/>
</clipPath>
</defs>
</svg>
