<svg width="500" height="500" viewBox="0 0 500 500" fill="none" xmlns="http://www.w3.org/2000/svg">
<g clip-path="url(#clip0_8867_1711)">
<rect width="500" height="500" fill="#C9FE6E"/>
<rect x="80" y="78" width="514" height="473" rx="4" fill="#0C0A09"/>
<line x1="80" y1="138" x2="605" y2="138" stroke="#57534D" stroke-width="4"/>
<path d="M118.995 110.976C118.743 110.976 118.497 110.998 118.257 111.045L120.534 114.988H118.992L116.987 111.512L113.509 105.488C113.901 105.261 114.256 104.968 114.549 104.622C115.15 103.918 115.514 103.009 115.514 102.012C115.514 99.7972 113.717 98 111.503 98C109.289 98 107.492 99.7972 107.492 102.012C107.492 103.009 107.857 103.921 108.458 104.622L104.752 111.045C104.512 110.998 104.266 110.976 104.014 110.976C101.797 110.976 100 112.774 100 114.988C100 117.203 101.797 119 104.014 119C106.231 119 108.025 117.203 108.025 114.988C108.025 113.991 107.66 113.079 107.059 112.378L105.552 114.988H104.011L106.016 111.512L109.495 105.488L111.5 102.012V104.678L110.762 105.955C111.002 106.002 111.248 106.024 111.5 106.024C111.752 106.024 111.998 106.002 112.238 105.955L115.944 112.378C115.343 113.082 114.978 113.991 114.978 114.988C114.978 117.203 116.775 119 118.989 119C121.203 119 123 117.203 123 114.988C123 112.774 121.203 110.976 118.989 110.976H118.995Z" fill="#57534D"/>
<rect x="223" y="102" width="68" height="8" rx="2" fill="#57534D"/>
<rect x="303" y="102" width="68" height="8" rx="2" fill="#57534D"/>
<rect x="383" y="102" width="68" height="8" rx="2" fill="#57534D"/>
<path d="M114.928 231.768C112.528 231.768 110.4 231.272 108.544 230.28C106.688 229.288 105.2 227.928 104.08 226.2C102.96 224.44 102.304 222.408 102.112 220.104L106.432 219.816C106.656 221.512 107.136 222.952 107.872 224.136C108.64 225.32 109.616 226.216 110.8 226.824C112.016 227.432 113.424 227.736 115.024 227.736C116.624 227.736 117.968 227.544 119.056 227.16C120.144 226.744 120.96 226.152 121.504 225.384C122.08 224.584 122.368 223.64 122.368 222.552C122.368 221.464 122.112 220.52 121.6 219.72C121.12 218.888 120.192 218.12 118.816 217.416C117.472 216.712 115.472 215.992 112.816 215.256C110.448 214.584 108.528 213.848 107.056 213.048C105.616 212.248 104.56 211.272 103.888 210.12C103.248 208.968 102.928 207.544 102.928 205.848C102.928 203.928 103.376 202.248 104.272 200.808C105.2 199.336 106.512 198.2 108.208 197.4C109.904 196.568 111.92 196.152 114.256 196.152C116.592 196.152 118.592 196.632 120.256 197.592C121.92 198.52 123.232 199.8 124.192 201.432C125.184 203.064 125.808 204.92 126.064 207L121.744 207.288C121.552 205.912 121.152 204.696 120.544 203.64C119.936 202.552 119.104 201.704 118.048 201.096C116.992 200.488 115.696 200.184 114.16 200.184C112.048 200.184 110.368 200.696 109.12 201.72C107.872 202.712 107.248 204.024 107.248 205.656C107.248 206.712 107.472 207.592 107.92 208.296C108.4 208.968 109.232 209.576 110.416 210.12C111.6 210.632 113.264 211.192 115.408 211.8C118.192 212.568 120.4 213.432 122.032 214.392C123.696 215.352 124.88 216.504 125.584 217.848C126.32 219.16 126.688 220.76 126.688 222.648C126.688 224.44 126.192 226.024 125.2 227.4C124.208 228.776 122.832 229.848 121.072 230.616C119.312 231.384 117.264 231.768 114.928 231.768ZM133.101 231V196.92H153.837V200.952H137.229V211.944H153.261V215.88H137.229V226.968H154.221V231H133.101ZM171.963 231.768C169.275 231.768 166.987 231.08 165.099 229.704C163.243 228.328 161.819 226.312 160.827 223.656C159.867 221 159.387 217.784 159.387 214.008C159.387 210.168 159.867 206.92 160.827 204.264C161.819 201.608 163.243 199.592 165.099 198.216C166.987 196.84 169.275 196.152 171.963 196.152C174.651 196.152 176.923 196.84 178.779 198.216C180.667 199.592 182.091 201.608 183.051 204.264C184.043 206.92 184.539 210.168 184.539 214.008C184.539 217.784 184.043 221 183.051 223.656C182.091 226.312 180.667 228.328 178.779 229.704C176.923 231.08 174.651 231.768 171.963 231.768ZM171.963 227.736C173.723 227.736 175.211 227.224 176.427 226.2C177.675 225.144 178.619 223.592 179.259 221.544C179.899 219.496 180.219 216.984 180.219 214.008C180.219 211.032 179.899 208.52 179.259 206.472C178.619 204.392 177.675 202.824 176.427 201.768C175.211 200.712 173.723 200.184 171.963 200.184C170.203 200.184 168.699 200.712 167.451 201.768C166.235 202.824 165.307 204.392 164.667 206.472C164.027 208.52 163.707 211.032 163.707 214.008C163.707 216.984 164.027 219.496 164.667 221.544C165.307 223.592 166.235 225.144 167.451 226.2C168.699 227.224 170.203 227.736 171.963 227.736Z" fill="white"/>
<rect x="100" y="261" width="160" height="12" rx="2" fill="#57534D"/>
<rect x="272" y="261" width="34" height="12" rx="2" fill="white"/>
<rect x="318" y="261" width="62" height="12" rx="2" fill="#57534D"/>
<rect x="100" y="285" width="71" height="12" rx="2" fill="#57534D"/>
<rect x="183" y="285" width="89" height="12" rx="2" fill="white"/>
<rect x="284" y="285" width="96" height="12" rx="2" fill="#57534D"/>
<rect x="100" y="309" width="234" height="12" rx="2" fill="#57534D"/>
<rect x="346" y="309" width="34" height="12" rx="2" fill="white"/>
<rect x="100" y="333" width="53" height="12" rx="2" fill="white"/>
<rect x="165" y="333" width="40" height="12" rx="2" fill="white"/>
<rect x="217" y="333" width="163" height="12" rx="2" fill="#57534D"/>
<rect x="100" y="357" width="97.5" height="12" rx="2" fill="#57534D"/>
<rect x="209.5" y="357" width="61" height="12" rx="2" fill="white"/>
<rect x="282.5" y="357" width="97.5" height="12" rx="2" fill="#57534D"/>
<rect x="100" y="381" width="195" height="12" rx="2" fill="#57534D"/>
<rect x="307" y="381" width="38" height="12" rx="2" fill="white"/>
<rect x="357" y="381" width="23" height="12" rx="2" fill="#57534D"/>
<rect x="100" y="405" width="148" height="12" rx="2" fill="#57534D"/>
<rect x="100" y="433" width="127" height="27" rx="4" fill="white"/>
</g>
<defs>
<clipPath id="clip0_8867_1711">
<rect width="500" height="500" fill="white"/>
</clipPath>
</defs>
</svg>
