<svg width="500" height="500" viewBox="0 0 500 500" fill="none" xmlns="http://www.w3.org/2000/svg">
<g clip-path="url(#clip0_8868_1748)">
<rect width="500" height="500" fill="#C9FE6E"/>
<path d="M551.736 168.183C630.534 230.807 620.701 374.321 529.775 488.729C438.848 603.137 301.259 645.116 222.462 582.491C143.664 519.866 153.497 376.352 244.423 261.944C335.35 147.536 472.939 105.558 551.736 168.183Z" fill="#0C0A09"/>
<path d="M525.883 147.516C596.529 203.663 580.088 341.925 489.161 456.333C398.235 570.741 267.254 617.971 196.608 561.825C125.962 505.678 142.403 367.416 233.33 253.008C324.256 138.6 455.237 91.37 525.883 147.516Z" fill="white"/>
<path d="M494.586 175.428C554.225 222.826 540.346 339.544 463.587 436.126C386.828 532.708 276.256 572.579 216.617 525.181C156.979 477.783 170.858 361.064 247.617 264.483C324.376 167.901 434.948 128.03 494.586 175.428Z" fill="#0C0A09"/>
<path d="M483.493 166.492C543.131 213.89 529.252 330.609 452.493 427.19C375.734 523.772 265.162 563.643 205.524 516.245C145.885 468.847 159.764 352.129 236.523 255.547C313.282 158.965 423.854 119.094 483.493 166.492Z" fill="#57534D"/>
<path d="M444.039 208.123C488.447 243.416 478.112 330.328 420.956 402.245C363.799 474.162 281.464 503.851 237.056 468.557C192.648 433.264 202.983 346.352 260.139 274.435C317.296 202.518 399.631 172.829 444.039 208.123Z" fill="#0C0A09"/>
<path d="M432.945 199.187C477.353 234.481 467.018 321.392 409.862 393.309C352.705 465.226 270.371 494.916 225.963 459.622C181.554 424.328 191.889 337.417 249.046 265.5C306.202 193.583 388.537 163.893 432.945 199.187Z" fill="white"/>
<path d="M398.842 244.945C428.047 268.155 421.25 325.31 383.662 372.605C346.074 419.9 291.929 439.425 262.725 416.214C233.52 393.004 240.317 335.848 277.905 288.554C315.493 241.259 369.638 221.734 398.842 244.945Z" fill="#0C0A09"/>
<path d="M387.749 236.009C416.953 259.219 410.156 316.375 372.569 363.67C334.981 410.965 280.835 430.489 251.631 407.279C222.427 384.069 229.223 326.913 266.811 279.618C304.399 232.323 358.545 212.799 387.749 236.009Z" fill="#57534D"/>
<path d="M354.068 283.936C367.685 294.758 364.516 321.408 346.99 343.46C329.464 365.512 304.217 374.616 290.6 363.794C276.983 352.971 280.152 326.322 297.678 304.27C315.204 282.217 340.451 273.114 354.068 283.936Z" fill="#0C0A09"/>
<path d="M342.974 275C356.591 285.823 353.422 312.472 335.896 334.525C318.37 356.577 293.124 365.68 279.507 354.858C265.89 344.036 269.059 317.386 286.585 295.334C304.111 273.282 329.357 264.178 342.974 275Z" fill="white"/>
<path d="M125.857 136.857L132.12 162.235L309.08 307.423L304.631 312.847L127.931 167.873L101.401 166.698L62.342 134.688L88.0055 130.778L86.7977 104.847L125.857 136.857Z" fill="#0C0A09"/>
</g>
<defs>
<clipPath id="clip0_8868_1748">
<rect width="500" height="500" fill="white"/>
</clipPath>
</defs>
</svg>
