<svg width="130" height="33" viewBox="0 0 130 33" fill="none" xmlns="http://www.w3.org/2000/svg">
<g clip-path="url(#clip0_8457_1842)">
<path d="M44.8216 18.5579C44.8216 14.2394 47.2275 10.7466 51.2499 10.7466C53.261 10.7466 54.8063 11.5628 55.7952 13.0577L55.7239 11.2828C55.7097 11.1215 55.8095 11.0361 55.9569 11.0361H59.0189C59.1662 11.0361 59.2518 11.1073 59.2518 11.2686L59.1805 18.4535L59.2518 25.7856C59.2518 25.9469 59.1662 26.0181 59.0189 26.0181H55.9712C55.8238 26.0181 55.7382 25.9327 55.7525 25.7856L55.7952 23.8636C54.7873 25.3917 53.2278 26.2934 51.1738 26.2934C47.0183 26.2934 44.8169 22.9192 44.8169 18.5532L44.8216 18.5579ZM55.8713 18.6434C55.8998 15.1078 54.5733 13.1289 52.196 13.1147C49.6476 13.072 48.3923 15.0936 48.3923 18.3539C48.3923 21.8467 49.6618 23.9538 52.1247 23.9395C54.4877 23.9395 55.8428 22.1646 55.8713 18.6434Z" fill="white"/>
<path d="M60.431 18.5582C60.431 14.2397 62.8368 10.7326 66.8592 10.7326C68.8419 10.7326 70.3586 11.5347 71.3476 12.9868L71.3333 5.88732C71.3333 5.74021 71.4189 5.65479 71.5663 5.65479H74.6282C74.7756 5.65479 74.8612 5.72597 74.8612 5.88732L74.8042 15.2268L74.8612 25.7906C74.8612 25.952 74.7756 26.0232 74.6282 26.0232H71.5663C71.4189 26.0232 71.319 25.9377 71.3333 25.7764L71.4046 23.8876C70.3824 25.4015 68.8371 26.3174 66.7832 26.3174C62.6276 26.3174 60.4263 22.929 60.4263 18.563L60.431 18.5582ZM71.4807 18.6721C71.5092 15.1081 70.1827 13.1007 67.8054 13.0723C65.2569 13.0295 64.0017 15.0939 64.0017 18.3827C64.0017 21.8755 65.2712 23.9825 67.7341 23.9683C70.0828 23.9683 71.4522 22.1934 71.4807 18.6721Z" fill="white"/>
<path d="M75.6359 11.0361H78.9451C79.0782 11.0361 79.1638 11.0931 79.2066 11.226L82.0498 20.2L82.9389 23.0521L83.9136 20.1715L86.9185 11.226C86.9613 11.0931 87.0516 11.0361 87.1943 11.0361H90.0233C90.1992 11.0361 90.2705 11.1358 90.2134 11.3114L84.9834 25.8426C84.9406 25.9755 84.836 26.0467 84.7076 26.0467H80.961C80.8136 26.0467 80.728 25.9755 80.6852 25.8426L75.4552 11.3114C75.3981 11.1358 75.4837 11.0361 75.6454 11.0361H75.6359Z" fill="white"/>
<path d="M90.9077 25.7857L90.979 18.4109L90.9077 11.2687C90.9077 11.1073 90.9933 11.0361 91.1407 11.0361H94.2454C94.3928 11.0361 94.4784 11.1073 94.4784 11.2687L94.4071 18.4109L94.4784 25.7857C94.4784 25.947 94.3928 26.0182 94.2454 26.0182H91.1407C90.9933 26.0182 90.9077 25.947 90.9077 25.7857ZM90.922 9.23278V6.35217C90.922 6.20505 91.0076 6.11963 91.1692 6.11963H94.2454C94.3928 6.11963 94.4784 6.20505 94.4784 6.35217V9.23278C94.4784 9.3799 94.3928 9.46532 94.2454 9.46532H91.1692C91.0076 9.46532 90.922 9.3799 90.922 9.23278Z" fill="white"/>
<path d="M95.7621 21.192C95.7621 21.0449 95.8477 20.9595 95.9951 20.9595H98.9239C99.0713 20.9595 99.1569 21.0449 99.1569 21.192C99.2567 23.2279 100.54 24.1438 102.903 24.1438C104.872 24.1438 106.08 23.3276 106.08 21.8896C106.08 18.4253 96.0949 21.4103 96.0949 15.2694C96.0949 12.2892 98.5435 10.7041 102.347 10.7041C106.151 10.7041 108.657 12.1895 108.89 15.2884C108.904 15.464 108.804 15.5494 108.657 15.5494H105.856C105.709 15.5494 105.623 15.464 105.609 15.3169C105.404 13.7176 104.268 12.8729 102.3 12.8729C100.55 12.8729 99.4421 13.542 99.4421 15.0274C99.4421 18.3731 109.413 15.2742 109.413 21.6049C109.413 24.6326 106.569 26.36 102.737 26.36C98.5388 26.36 95.8714 24.6136 95.7573 21.1968L95.7621 21.192Z" fill="white"/>
<path d="M110.701 25.7857L110.772 18.4109L110.701 11.2687C110.701 11.1073 110.787 11.0361 110.934 11.0361H114.039C114.186 11.0361 114.272 11.1073 114.272 11.2687L114.201 18.4109L114.272 25.7857C114.272 25.947 114.186 26.0182 114.039 26.0182H110.934C110.787 26.0182 110.701 25.947 110.701 25.7857ZM110.715 9.23278V6.35217C110.715 6.20505 110.801 6.11963 110.963 6.11963H114.039C114.186 6.11963 114.272 6.20505 114.272 6.35217V9.23278C114.272 9.3799 114.186 9.46532 114.039 9.46532H110.963C110.801 9.46532 110.715 9.3799 110.715 9.23278Z" fill="white"/>
<path d="M115.57 18.5579C115.57 14.2394 117.976 10.7466 121.998 10.7466C124.009 10.7466 125.554 11.5628 126.543 13.0577L126.472 11.2828C126.458 11.1215 126.558 11.0361 126.705 11.0361H129.767C129.914 11.0361 130 11.1073 130 11.2686L129.929 18.4535L130 25.7856C130 25.9469 129.914 26.0181 129.767 26.0181H126.719C126.572 26.0181 126.486 25.9327 126.5 25.7856L126.543 23.8636C125.535 25.3917 123.976 26.2934 121.922 26.2934C117.766 26.2934 115.565 22.9192 115.565 18.5532L115.57 18.5579ZM126.615 18.6434C126.643 15.1078 125.317 13.1289 122.939 13.1147C120.391 13.072 119.136 15.0936 119.136 18.3539C119.136 21.8467 120.405 23.9538 122.868 23.9395C125.231 23.9395 126.586 22.1646 126.615 18.6434Z" fill="white"/>
<path d="M29.003 20.4374C28.6179 20.4374 28.2423 20.4706 27.8762 20.5418L31.3518 26.5498H28.9982L25.9363 21.2537L20.6254 12.0756C21.2245 11.7291 21.7665 11.283 22.2134 10.7563C23.1311 9.68375 23.6874 8.29802 23.6874 6.77941C23.6874 3.40524 20.944 0.666992 17.5635 0.666992C14.1829 0.666992 11.4395 3.40524 11.4395 6.77941C11.4395 8.29802 11.9958 9.6885 12.9135 10.7563L7.2555 20.5418C6.8894 20.4706 6.51379 20.4374 6.12867 20.4374C2.7434 20.4374 0 23.1757 0 26.5498C0 29.924 2.7434 32.6622 6.12867 32.6622C9.51393 32.6622 12.2526 29.924 12.2526 26.5498C12.2526 25.0312 11.6963 23.6407 10.7787 22.573L8.47743 26.5498H6.12391L9.18587 21.2537L14.4967 12.0756L17.5587 6.77941V10.8417L16.4319 12.7874C16.798 12.8586 17.1736 12.8918 17.5587 12.8918C17.9438 12.8918 18.3194 12.8586 18.6855 12.7874L24.3435 22.573C23.4259 23.6455 22.8696 25.0312 22.8696 26.5498C22.8696 29.924 25.613 32.6622 28.9935 32.6622C32.374 32.6622 35.1174 29.924 35.1174 26.5498C35.1174 23.1757 32.374 20.4374 28.9935 20.4374H29.003Z" fill="white"/>
</g>
<defs>
<clipPath id="clip0_8457_1842">
<rect width="130" height="32" fill="white" transform="translate(0 0.666992)"/>
</clipPath>
</defs>
</svg>
