<svg width="1280" height="720" viewBox="0 0 1280 720" fill="none" xmlns="http://www.w3.org/2000/svg">
<g clip-path="url(#clip0_8836_48)">
<rect width="1280" height="720" fill="#0C0A09"/>
<path d="M1145.86 469.556C1135.58 469.556 1125.56 470.445 1115.79 472.352L1208.53 633.278H1145.73L1064.03 491.42L922.325 245.583C938.311 236.301 952.772 224.353 964.696 210.245C989.182 181.516 1004.03 144.399 1004.03 103.723C1004.03 13.3447 930.826 -60 840.628 -60C750.427 -60 677.228 13.3447 677.228 103.723C677.228 144.399 692.071 181.643 716.557 210.245L565.591 472.352C555.822 470.445 545.8 469.556 535.525 469.556C445.199 469.556 372 542.902 372 633.278C372 723.657 445.199 797 535.525 797C625.85 797 698.923 723.657 698.923 633.278C698.923 592.602 684.08 555.357 659.597 526.758L598.194 633.278H535.398L617.097 491.42L758.8 245.583L840.5 103.723V212.532L810.435 264.648C820.203 266.555 830.225 267.445 840.5 267.445C850.775 267.445 860.797 266.555 870.565 264.648L1021.53 526.758C997.048 555.485 982.205 592.602 982.205 633.278C982.205 723.657 1055.4 797 1145.6 797C1235.8 797 1309 723.657 1309 633.278C1309 542.902 1235.8 469.556 1145.6 469.556H1145.86Z" fill="white" fill-opacity="0.04"/>
<path d="M840.628 -60.5C931.103 -60.5 1004.53 13.0694 1004.53 103.723C1004.53 144.523 989.637 181.755 965.077 210.569L965.076 210.568C953.221 224.594 938.867 236.489 923.006 245.762L1064.46 491.171L1146.02 632.777H1207.66L1115.36 472.602L1115.01 471.995L1115.7 471.861C1125.42 469.963 1135.39 469.071 1145.6 469.057V469.056H1145.86V469.057C1236.22 469.194 1309.5 542.711 1309.5 633.277C1309.5 723.931 1236.08 797.5 1145.6 797.5C1055.13 797.5 981.705 723.931 981.705 633.277C981.705 592.604 996.502 555.479 1020.92 526.703L870.309 265.205C860.617 267.072 850.681 267.944 840.5 267.944C830.196 267.944 820.142 267.053 810.339 265.139L809.651 265.005L810.002 264.398L840 212.398V105.593L759.233 245.832L617.53 491.67L536.263 632.777H597.905L659.163 526.509L659.517 525.896L659.977 526.433C684.534 555.118 699.423 592.478 699.423 633.277C699.423 723.931 626.127 797.5 535.524 797.5C444.922 797.5 371.5 723.932 371.5 633.277C371.5 542.626 444.922 469.056 535.524 469.056C545.706 469.056 555.643 469.928 565.334 471.795L715.948 210.299C691.525 181.646 676.728 144.395 676.728 103.723C676.728 13.0695 750.15 -60.4999 840.628 -60.5Z" stroke="white" stroke-opacity="0.1"/>
<rect width="1280" height="720" fill="url(#paint0_linear_8836_48)"/>
</g>
<defs>
<linearGradient id="paint0_linear_8836_48" x1="640" y1="0" x2="640" y2="720" gradientUnits="userSpaceOnUse">
<stop stop-color="#0C0A09" stop-opacity="0.1"/>
<stop offset="0.985577" stop-color="#0C0A09"/>
</linearGradient>
<clipPath id="clip0_8836_48">
<rect width="1280" height="720" fill="white"/>
</clipPath>
</defs>
</svg>
