<svg width="1920" height="2" viewBox="0 0 1920 2" fill="none" xmlns="http://www.w3.org/2000/svg">
<rect width="1920" height="2" fill="#F280CA"/>
<rect x="83" width="1837" height="2" fill="#0468BF"/>
<rect x="145" width="1775" height="2" fill="#F2BD1D"/>
<rect x="267" width="1653" height="2" fill="#0468BF"/>
<rect x="301" width="1619" height="2" fill="#F280CA"/>
<rect x="380" width="1540" height="2" fill="#F2BD1D"/>
<rect x="408" width="1512" height="2" fill="#0468BF"/>
<rect x="551" width="1369" height="2" fill="#F2BD1D"/>
<rect x="638" width="1282" height="2" fill="#F280CA"/>
<rect x="735" width="1185" height="2" fill="#F24130"/>
<rect x="806" width="1114" height="2" fill="#0468BF"/>
<rect x="893" width="1027" height="2" fill="#F24130"/>
<rect x="917" width="1003" height="2" fill="#F280CA"/>
<rect x="1055" width="865" height="2" fill="#F26A1B"/>
<rect x="1267" width="653" height="2" fill="#F2BD1D"/>
<rect x="1319" width="601" height="2" fill="#F26A1B"/>
<rect x="1352" width="568" height="2" fill="#F24130"/>
<rect x="1423" width="497" height="2" fill="#F26A1B"/>
<rect x="1519" width="401" height="2" fill="#F280CA"/>
<rect x="1615" width="305" height="2" fill="#F24130"/>
<rect x="1806" width="114" height="2" fill="#0468BF"/>
</svg>
