<?xml version="1.0" encoding="UTF-8"?><svg id="Calque_2" xmlns="http://www.w3.org/2000/svg" viewBox="0 0 157.92 157.92"><defs><style>.cls-1{fill:#f9b40d;}.cls-2{fill:#ff5a02;}.cls-3{fill:#ff98f1;}</style></defs><g id="Calque_2-2"><rect class="cls-1" x="49.98" y="49.98" width="57.96" height="57.96"/><rect class="cls-1" x="94.5" y="36.53" width="26.9" height="26.9" transform="translate(-3.73 90.97) rotate(-45)"/><rect class="cls-1" x="94.5" y="94.5" width="26.9" height="26.9" transform="translate(-44.71 107.94) rotate(-45)"/><rect class="cls-1" x="36.53" y="94.5" width="26.9" height="26.9" transform="translate(-61.69 66.96) rotate(-45)"/><rect class="cls-1" x="36.53" y="36.53" width="26.9" height="26.9" transform="translate(-20.7 49.98) rotate(-45)"/><rect class="cls-2" x="63.68" y="63.68" width="30.57" height="30.57"/><polygon class="cls-3" points="83.68 18.87 83.68 0 74.25 0 74.25 18.87 69.58 18.87 69.58 37.62 88.34 37.62 88.34 18.87 83.68 18.87"/><polygon class="cls-2" points="124.79 39.8 138.13 26.46 131.46 19.79 118.12 33.13 114.82 29.84 101.56 43.1 114.82 56.36 128.09 43.1 124.79 39.8"/><polygon class="cls-3" points="139.06 83.68 157.92 83.68 157.92 74.25 139.06 74.25 139.06 69.58 120.3 69.58 120.3 88.34 139.06 88.34 139.06 83.68"/><polygon class="cls-2" points="118.12 124.79 131.46 138.13 138.13 131.46 124.79 118.12 128.09 114.82 114.82 101.56 101.56 114.82 114.82 128.09 118.12 124.79"/><polygon class="cls-3" points="74.25 139.06 74.25 157.92 83.68 157.92 83.68 139.06 88.34 139.06 88.34 120.3 69.58 120.3 69.58 139.06 74.25 139.06"/><polygon class="cls-2" points="33.13 118.12 19.79 131.46 26.46 138.13 39.8 124.79 43.1 128.09 56.36 114.82 43.1 101.56 29.84 114.82 33.13 118.12"/><polygon class="cls-3" points="18.87 74.25 0 74.25 0 83.68 18.87 83.68 18.87 88.34 37.62 88.34 37.62 69.58 18.87 69.58 18.87 74.25"/><polygon class="cls-2" points="39.8 33.13 26.46 19.79 19.79 26.46 33.13 39.8 29.84 43.1 43.1 56.36 56.36 43.1 43.1 29.84 39.8 33.13"/></g></svg>