<svg width="309" height="382" viewBox="0 0 309 382" fill="none" xmlns="http://www.w3.org/2000/svg">
<path d="M231.744 165.054L231.744 319.846L77.0479 319.846L77.0479 165.054L231.744 165.054ZM230.685 318.796L230.685 166.114L78.0969 166.114L78.0969 318.796L230.685 318.796Z" fill="black"/>
<path d="M88.1084 253.002L88.1084 231.907L67.026 231.907L67.026 253.002L88.1084 253.002Z" fill="black"/>
<path d="M88.6383 231.377L88.6383 253.522L66.5068 253.522L66.5068 231.377L88.6383 231.377ZM87.5791 252.473L87.5791 232.437L67.5559 232.437L67.5559 252.473L87.5791 252.473Z" fill="black"/>
<path d="M241.755 253.002L241.755 231.907L220.672 231.907L220.672 253.002L241.755 253.002Z" fill="black"/>
<path d="M242.285 231.377L242.285 253.522L220.153 253.522L220.153 231.377L242.285 231.377ZM241.226 252.473L241.226 232.437L221.202 232.437L221.202 252.473L241.226 252.473Z" fill="black"/>
<path d="M165.462 308.248L165.462 330.394L143.33 330.394L143.33 308.248L165.462 308.248ZM164.402 329.344L164.402 309.308L144.379 309.308L144.379 329.344L164.402 329.344Z" fill="black"/>
<path d="M164.932 176.131L164.932 155.036L143.849 155.036L143.849 176.131L164.932 176.131Z" fill="black"/>
<path d="M165.462 154.506L165.462 176.651L143.33 176.651L143.33 154.506L165.462 154.506ZM164.402 175.601L164.402 155.566L144.379 155.566L144.379 175.601L164.402 175.601Z" fill="black"/>
<path d="M164.932 22.3893L164.932 1.29395L143.849 1.29395L143.849 22.3893L164.932 22.3893Z" fill="black"/>
<path d="M165.462 0.764096L165.462 22.9092L143.33 22.9092L143.33 0.764095L165.462 0.764096ZM164.402 21.8595L164.402 1.824L144.379 1.824L144.379 21.8595L164.402 21.8595Z" fill="black"/>
<g opacity="0.5">
<path d="M153.861 22.3893L153.861 26.6084L154.921 26.6084L154.921 22.3893L153.861 22.3893Z" fill="black"/>
<path d="M154.921 34.8834L154.921 43.1687L153.861 43.1687L153.861 34.8834L154.921 34.8834ZM154.921 51.4438L154.921 59.7291L153.861 59.7291L153.861 51.4438L154.921 51.4438ZM154.921 68.0043L154.921 76.2896L153.861 76.2896L153.861 68.0043L154.921 68.0043ZM154.921 84.5749L154.921 92.8602L153.861 92.8602L153.861 84.5749L154.921 84.5749ZM154.921 101.135L154.921 109.41L153.861 109.41L153.861 101.135L154.921 101.135ZM154.921 117.696L154.921 125.971L153.861 125.971L153.861 117.696L154.921 117.696ZM154.921 134.256L154.921 142.531L153.861 142.531L153.861 134.256L154.921 134.256Z" fill="black"/>
<path d="M153.861 150.817L153.861 155.036L154.921 155.036L154.921 150.817L153.861 150.817Z" fill="black"/>
</g>
<g opacity="0.5">
<path d="M62.8096 241.925L62.8096 242.985L67.026 242.985L67.026 241.925L62.8096 241.925Z" fill="black"/>
<path d="M54.549 241.925L54.549 242.985L46.2892 242.985L46.2892 241.925L54.549 241.925ZM38.0192 241.925L38.0192 242.985L29.7593 242.985L29.7593 241.925L38.0192 241.925ZM21.4893 241.925L21.4893 242.985L13.2295 242.985L13.2295 241.925L21.4893 241.925Z" fill="black"/>
<path d="M4.95996 241.925L4.95996 242.985L1.27307 242.985L1.27307 246.674L0.213867 246.674L0.213867 241.925L4.95996 241.925Z" fill="black"/>
<path d="M1.27308 255.123L1.27308 263.581L0.213869 263.581L0.213869 255.123L1.27308 255.123ZM1.27307 272.04L1.27307 280.498L0.213868 280.498L0.213868 272.04L1.27307 272.04ZM1.27307 288.947L1.27307 297.405L0.213868 297.405L0.213868 288.947L1.27307 288.947ZM1.27307 305.854L1.27307 314.312L0.213868 314.312L0.213868 305.854L1.27307 305.854ZM1.27307 322.771L1.27307 331.229L0.213868 331.229L0.213868 322.771L1.27307 322.771ZM1.27307 339.678L1.27307 348.136L0.213868 348.136L0.213868 339.678L1.27307 339.678ZM1.27307 356.584L1.27307 365.043L0.213867 365.043L0.213867 356.584L1.27307 356.584ZM1.27307 373.491L1.27307 381.95L0.213867 381.95L0.213867 373.491L1.27307 373.491Z" fill="black"/>
</g>
<g opacity="0.5">
<path d="M241.756 241.925L241.756 242.985L245.972 242.985L245.972 241.925L241.756 241.925Z" fill="black"/>
<path d="M295.562 241.925L295.562 242.985L287.302 242.985L287.302 241.925L295.562 241.925ZM279.032 241.925L279.032 242.985L270.772 242.985L270.772 241.925L279.032 241.925ZM262.502 241.925L262.502 242.985L254.242 242.985L254.242 241.925L262.502 241.925Z" fill="black"/>
<path d="M308.567 241.925L308.567 246.674L307.508 246.674L307.508 242.985L303.821 242.985L303.821 241.925L308.567 241.925Z" fill="black"/>
<path d="M308.568 255.123L308.568 263.581L307.509 263.581L307.509 255.123L308.568 255.123ZM308.568 272.04L308.568 280.498L307.509 280.498L307.509 272.04L308.568 272.04ZM308.568 288.947L308.568 297.405L307.509 297.405L307.509 288.947L308.568 288.947ZM308.568 305.854L308.568 314.312L307.509 314.312L307.509 305.854L308.568 305.854ZM308.568 322.771L308.568 331.229L307.509 331.229L307.509 322.771L308.568 322.771ZM308.568 339.678L308.568 348.136L307.509 348.136L307.509 339.678L308.568 339.678ZM308.568 356.584L308.568 365.043L307.509 365.043L307.509 356.584L308.568 356.584ZM308.568 373.491L308.568 381.95L307.509 381.95L307.509 373.491L308.568 373.491Z" fill="black"/>
</g>
<path d="M103.803 319.326C103.803 304.827 92.0567 293.074 77.567 293.074C63.0773 293.074 51.3311 304.827 51.3311 319.326C51.3311 333.825 63.0773 345.578 77.567 345.578C92.0567 345.578 103.803 333.825 103.803 319.326Z" fill="#FF98F1"/>
<path d="M174.139 242.455C174.139 231.542 165.297 222.694 154.391 222.694C143.484 222.694 134.643 231.542 134.643 242.455C134.643 253.368 143.484 262.215 154.391 262.215C165.297 262.215 174.139 253.368 174.139 242.455Z" fill="#FF98F1"/>
<path d="M241.755 165.584C241.755 159.758 237.036 155.036 231.214 155.036C225.392 155.036 220.673 159.758 220.673 165.584C220.673 171.409 225.392 176.131 231.214 176.131C237.036 176.131 241.755 171.409 241.755 165.584Z" fill="#FF98F1"/>
</svg>
