<svg width="309" height="382" viewBox="0 0 309 382" fill="none" xmlns="http://www.w3.org/2000/svg">
<path d="M231.53 165.054L231.53 319.846L76.834 319.846L76.834 165.054L231.53 165.054ZM230.471 318.796L230.471 166.114L77.883 166.114L77.883 318.796L230.471 318.796Z" fill="white"/>
<path d="M87.8945 253.002L87.8945 231.907L66.8121 231.907L66.8121 253.002L87.8945 253.002Z" fill="white"/>
<path d="M88.4244 231.377L88.4244 253.522L66.293 253.522L66.293 231.377L88.4244 231.377ZM87.3652 252.473L87.3652 232.437L67.342 232.437L67.342 252.473L87.3652 252.473Z" fill="white"/>
<path d="M241.541 253.002L241.541 231.907L220.459 231.907L220.459 253.002L241.541 253.002Z" fill="white"/>
<path d="M242.071 231.377L242.071 253.522L219.939 253.522L219.939 231.377L242.071 231.377ZM241.012 252.473L241.012 232.437L220.988 232.437L220.988 252.473L241.012 252.473Z" fill="white"/>
<path d="M165.247 308.248L165.247 330.394L143.115 330.394L143.115 308.248L165.247 308.248ZM164.187 329.344L164.187 309.308L144.164 309.308L144.164 329.344L164.187 329.344Z" fill="white"/>
<path d="M164.719 176.131L164.719 155.036L143.636 155.036L143.636 176.131L164.719 176.131Z" fill="white"/>
<path d="M165.247 154.506L165.247 176.651L143.115 176.651L143.115 154.506L165.247 154.506ZM164.187 175.601L164.187 155.566L144.164 155.566L144.164 175.601L164.187 175.601Z" fill="white"/>
<path d="M164.719 22.3893L164.719 1.29395L143.636 1.29395L143.636 22.3893L164.719 22.3893Z" fill="white"/>
<path d="M165.247 0.764096L165.247 22.9092L143.115 22.9092L143.115 0.764095L165.247 0.764096ZM164.187 21.8595L164.187 1.824L144.164 1.824L144.164 21.8595L164.187 21.8595Z" fill="white"/>
<g opacity="0.5">
<path d="M153.646 22.3893L153.646 26.6084L154.706 26.6084L154.706 22.3893L153.646 22.3893Z" fill="white"/>
<path d="M154.706 34.8834L154.706 43.1687L153.646 43.1687L153.646 34.8834L154.706 34.8834ZM154.706 51.4438L154.706 59.7291L153.646 59.7291L153.646 51.4438L154.706 51.4438ZM154.706 68.0043L154.706 76.2896L153.646 76.2896L153.646 68.0043L154.706 68.0043ZM154.706 84.5749L154.706 92.8602L153.646 92.8602L153.646 84.5749L154.706 84.5749ZM154.706 101.135L154.706 109.41L153.646 109.41L153.646 101.135L154.706 101.135ZM154.706 117.696L154.706 125.971L153.646 125.971L153.646 117.696L154.706 117.696ZM154.706 134.256L154.706 142.531L153.646 142.531L153.646 134.256L154.706 134.256Z" fill="white"/>
<path d="M153.646 150.817L153.646 155.036L154.706 155.036L154.706 150.817L153.646 150.817Z" fill="white"/>
</g>
<g opacity="0.5">
<path d="M62.5957 241.925L62.5957 242.985L66.8122 242.985L66.8122 241.925L62.5957 241.925Z" fill="white"/>
<path d="M54.3351 241.925L54.3351 242.985L46.0753 242.985L46.0753 241.925L54.3351 241.925ZM37.8053 241.925L37.8053 242.985L29.5454 242.985L29.5454 241.925L37.8053 241.925ZM21.2754 241.925L21.2754 242.985L13.0156 242.985L13.0156 241.925L21.2754 241.925Z" fill="white"/>
<path d="M4.74609 241.925L4.74609 242.985L1.05921 242.985L1.05921 246.674L0 246.674L5.66312e-08 241.925L4.74609 241.925Z" fill="white"/>
<path d="M1.05921 255.123L1.05921 263.581L1.41153e-06 263.581L1.5124e-06 255.123L1.05921 255.123ZM1.05921 272.04L1.05921 280.498L1.2098e-06 280.498L1.31067e-06 272.04L1.05921 272.04ZM1.05921 288.947L1.05921 297.405L1.00819e-06 297.405L1.10905e-06 288.947L1.05921 288.947ZM1.05921 305.854L1.05921 314.312L8.06573e-07 314.312L9.0744e-07 305.854L1.05921 305.854ZM1.05921 322.771L1.05921 331.229L6.04839e-07 331.229L7.05706e-07 322.771L1.05921 322.771ZM1.05921 339.678L1.05921 348.136L4.03226e-07 348.136L5.04093e-07 339.678L1.05921 339.678ZM1.05921 356.584L1.05921 365.043L2.01612e-07 365.043L3.0248e-07 356.584L1.05921 356.584ZM1.05921 373.491L1.05921 381.95L0 381.95L1.00867e-07 373.491L1.05921 373.491Z" fill="white"/>
</g>
<g opacity="0.5">
<path d="M241.541 241.925L241.541 242.985L245.758 242.985L245.758 241.925L241.541 241.925Z" fill="white"/>
<path d="M295.347 241.925L295.347 242.985L287.087 242.985L287.087 241.925L295.347 241.925ZM278.817 241.925L278.817 242.985L270.557 242.985L270.557 241.925L278.817 241.925ZM262.287 241.925L262.287 242.985L254.027 242.985L254.027 241.925L262.287 241.925Z" fill="white"/>
<path d="M308.354 241.925L308.354 246.674L307.294 246.674L307.294 242.985L303.607 242.985L303.607 241.925L308.354 241.925Z" fill="white"/>
<path d="M308.352 255.123L308.352 263.581L307.293 263.581L307.293 255.123L308.352 255.123ZM308.352 272.04L308.352 280.498L307.293 280.498L307.293 272.04L308.352 272.04ZM308.352 288.947L308.352 297.405L307.293 297.405L307.293 288.947L308.352 288.947ZM308.352 305.854L308.352 314.312L307.293 314.312L307.293 305.854L308.352 305.854ZM308.352 322.771L308.352 331.229L307.293 331.229L307.293 322.771L308.352 322.771ZM308.352 339.678L308.352 348.136L307.293 348.136L307.293 339.678L308.352 339.678ZM308.352 356.584L308.352 365.043L307.293 365.043L307.293 356.584L308.352 356.584ZM308.352 373.491L308.352 381.95L307.293 381.95L307.293 373.491L308.352 373.491Z" fill="white"/>
</g>
<path d="M103.589 319.326C103.589 304.827 91.8428 293.074 77.3531 293.074C62.8634 293.074 51.1172 304.827 51.1172 319.326C51.1172 333.825 62.8634 345.578 77.3531 345.578C91.8428 345.578 103.589 333.825 103.589 319.326Z" fill="#FF5A02"/>
<path d="M173.924 242.455C173.924 231.542 165.083 222.694 154.176 222.694C143.269 222.694 134.428 231.542 134.428 242.455C134.428 253.368 143.269 262.215 154.176 262.215C165.083 262.215 173.924 253.368 173.924 242.455Z" fill="#FF5A02"/>
<path d="M241.541 165.584C241.541 159.758 236.822 155.036 231 155.036C225.178 155.036 220.459 159.758 220.459 165.584C220.459 171.409 225.178 176.131 231 176.131C236.822 176.131 241.541 171.409 241.541 165.584Z" fill="#FF5A02"/>
</svg>
