<svg width="309" height="382" viewBox="0 0 309 382" fill="none" xmlns="http://www.w3.org/2000/svg">
<path d="M231.53 165.054L231.53 319.846L76.834 319.846L76.834 165.054L231.53 165.054ZM230.471 318.796L230.471 166.114L77.883 166.114L77.883 318.796L230.471 318.796Z" fill="black"/>
<path d="M87.8945 253.002L87.8945 231.907L66.8121 231.907L66.8121 253.002L87.8945 253.002Z" fill="black"/>
<path d="M88.4244 231.377L88.4244 253.522L66.293 253.522L66.293 231.377L88.4244 231.377ZM87.3652 252.473L87.3652 232.437L67.342 232.437L67.342 252.473L87.3652 252.473Z" fill="black"/>
<path d="M241.541 253.002L241.541 231.907L220.459 231.907L220.459 253.002L241.541 253.002Z" fill="black"/>
<path d="M242.071 231.377L242.071 253.522L219.939 253.522L219.939 231.377L242.071 231.377ZM241.012 252.473L241.012 232.437L220.988 232.437L220.988 252.473L241.012 252.473Z" fill="black"/>
<path d="M165.248 308.248L165.248 330.394L143.116 330.394L143.116 308.248L165.248 308.248ZM164.188 329.344L164.188 309.308L144.165 309.308L144.165 329.344L164.188 329.344Z" fill="black"/>
<path d="M164.718 176.131L164.718 155.036L143.635 155.036L143.635 176.131L164.718 176.131Z" fill="black"/>
<path d="M165.248 154.506L165.248 176.651L143.116 176.651L143.116 154.506L165.248 154.506ZM164.188 175.601L164.188 155.566L144.165 155.566L144.165 175.601L164.188 175.601Z" fill="black"/>
<path d="M164.718 22.3893L164.718 1.29395L143.635 1.29395L143.635 22.3893L164.718 22.3893Z" fill="black"/>
<path d="M165.248 0.764096L165.248 22.9092L143.116 22.9092L143.116 0.764095L165.248 0.764096ZM164.188 21.8595L164.188 1.824L144.165 1.824L144.165 21.8595L164.188 21.8595Z" fill="black"/>
<g opacity="0.5">
<path d="M153.647 22.3893L153.647 26.6084L154.707 26.6084L154.707 22.3893L153.647 22.3893Z" fill="black"/>
<path d="M154.707 34.8834L154.707 43.1687L153.647 43.1687L153.647 34.8834L154.707 34.8834ZM154.707 51.4438L154.707 59.7291L153.647 59.7291L153.647 51.4438L154.707 51.4438ZM154.707 68.0043L154.707 76.2896L153.647 76.2896L153.647 68.0043L154.707 68.0043ZM154.707 84.5749L154.707 92.8602L153.647 92.8602L153.647 84.5749L154.707 84.5749ZM154.707 101.135L154.707 109.41L153.647 109.41L153.647 101.135L154.707 101.135ZM154.707 117.696L154.707 125.971L153.647 125.971L153.647 117.696L154.707 117.696ZM154.707 134.256L154.707 142.531L153.647 142.531L153.647 134.256L154.707 134.256Z" fill="black"/>
<path d="M153.647 150.817L153.647 155.036L154.707 155.036L154.707 150.817L153.647 150.817Z" fill="black"/>
</g>
<g opacity="0.5">
<path d="M62.5957 241.925L62.5957 242.985L66.8122 242.985L66.8122 241.925L62.5957 241.925Z" fill="black"/>
<path d="M54.3351 241.925L54.3351 242.985L46.0753 242.985L46.0753 241.925L54.3351 241.925ZM37.8053 241.925L37.8053 242.985L29.5454 242.985L29.5454 241.925L37.8053 241.925ZM21.2754 241.925L21.2754 242.985L13.0156 242.985L13.0156 241.925L21.2754 241.925Z" fill="black"/>
<path d="M4.74609 241.925L4.74609 242.985L1.05921 242.985L1.05921 246.674L0 246.674L5.66312e-08 241.925L4.74609 241.925Z" fill="black"/>
<path d="M1.05921 255.123L1.05921 263.581L1.41153e-06 263.581L1.5124e-06 255.123L1.05921 255.123ZM1.05921 272.04L1.05921 280.498L1.2098e-06 280.498L1.31067e-06 272.04L1.05921 272.04ZM1.05921 288.947L1.05921 297.405L1.00819e-06 297.405L1.10905e-06 288.947L1.05921 288.947ZM1.05921 305.854L1.05921 314.312L8.06573e-07 314.312L9.0744e-07 305.854L1.05921 305.854ZM1.05921 322.771L1.05921 331.229L6.04839e-07 331.229L7.05706e-07 322.771L1.05921 322.771ZM1.05921 339.678L1.05921 348.136L4.03226e-07 348.136L5.04093e-07 339.678L1.05921 339.678ZM1.05921 356.584L1.05921 365.043L2.01612e-07 365.043L3.0248e-07 356.584L1.05921 356.584ZM1.05921 373.491L1.05921 381.95L0 381.95L1.00867e-07 373.491L1.05921 373.491Z" fill="black"/>
</g>
<g opacity="0.5">
<path d="M241.542 241.925L241.542 242.985L245.758 242.985L245.758 241.925L241.542 241.925Z" fill="black"/>
<path d="M295.348 241.925L295.348 242.985L287.088 242.985L287.088 241.925L295.348 241.925ZM278.818 241.925L278.818 242.985L270.558 242.985L270.558 241.925L278.818 241.925ZM262.288 241.925L262.288 242.985L254.028 242.985L254.028 241.925L262.288 241.925Z" fill="black"/>
<path d="M308.354 241.925L308.354 246.674L307.294 246.674L307.294 242.985L303.607 242.985L303.607 241.925L308.354 241.925Z" fill="black"/>
<path d="M308.354 255.123L308.354 263.581L307.295 263.581L307.295 255.123L308.354 255.123ZM308.354 272.04L308.354 280.498L307.295 280.498L307.295 272.04L308.354 272.04ZM308.354 288.947L308.354 297.405L307.295 297.405L307.295 288.947L308.354 288.947ZM308.354 305.854L308.354 314.312L307.295 314.312L307.295 305.854L308.354 305.854ZM308.354 322.771L308.354 331.229L307.295 331.229L307.295 322.771L308.354 322.771ZM308.354 339.678L308.354 348.136L307.295 348.136L307.295 339.678L308.354 339.678ZM308.354 356.584L308.354 365.043L307.295 365.043L307.295 356.584L308.354 356.584ZM308.354 373.491L308.354 381.95L307.295 381.95L307.295 373.491L308.354 373.491Z" fill="black"/>
</g>
<path d="M103.589 319.326C103.589 304.827 91.8428 293.074 77.3531 293.074C62.8634 293.074 51.1172 304.827 51.1172 319.326C51.1172 333.825 62.8634 345.578 77.3531 345.578C91.8428 345.578 103.589 333.825 103.589 319.326Z" fill="#F9B40D"/>
<path d="M173.925 242.455C173.925 231.542 165.084 222.694 154.177 222.694C143.27 222.694 134.429 231.542 134.429 242.455C134.429 253.368 143.27 262.215 154.177 262.215C165.084 262.215 173.925 253.368 173.925 242.455Z" fill="#F9B40D"/>
<path d="M241.541 165.584C241.541 159.758 236.822 155.036 231 155.036C225.178 155.036 220.459 159.758 220.459 165.584C220.459 171.409 225.178 176.131 231 176.131C236.822 176.131 241.541 171.409 241.541 165.584Z" fill="#F9B40D"/>
</svg>
