<svg width="24" height="25" viewBox="0 0 24 25" fill="none" xmlns="http://www.w3.org/2000/svg">
<circle cx="12" cy="12.5" r="12" fill="#97F76F"/>
<path d="M16.5624 13.5329C16.4089 13.5329 16.2592 13.5464 16.1132 13.5753L17.4988 16.0165H16.5605L15.3398 13.8646L13.2226 10.1354C13.4614 9.99465 13.6775 9.8134 13.8557 9.59939C14.2215 9.16361 14.4433 8.60057 14.4433 7.98354C14.4433 6.61258 13.3496 5.5 12.0019 5.5C10.6542 5.5 9.5605 6.61258 9.5605 7.98354C9.5605 8.60057 9.78228 9.16554 10.1481 9.59939L7.8925 13.5753C7.74655 13.5464 7.59681 13.5329 7.44327 13.5329C6.09369 13.5329 5 14.6455 5 16.0165C5 17.3874 6.09369 18.5 7.44327 18.5C8.79285 18.5 9.88465 17.3874 9.88465 16.0165C9.88465 15.3994 9.66288 14.8345 9.29707 14.4006L8.37964 16.0165H7.44137L8.66206 13.8646L10.7793 10.1354L12 7.98354V9.63409L11.5508 10.4247C11.6967 10.4536 11.8465 10.4671 12 10.4671C12.1535 10.4671 12.3033 10.4536 12.4492 10.4247L14.7048 14.4006C14.339 14.8364 14.1173 15.3994 14.1173 16.0165C14.1173 17.3874 15.2109 18.5 16.5586 18.5C17.9063 18.5 19 17.3874 19 16.0165C19 14.6455 17.9063 13.5329 16.5586 13.5329H16.5624Z" fill="#0C0A09"/>
</svg>
