<svg width="280" height="280" viewBox="0 0 280 280" fill="none" xmlns="http://www.w3.org/2000/svg">
<g clip-path="url(#clip0_8692_16)">
<rect width="280" height="280" fill="#97F76F"/>
<circle cx="140.5" cy="280.5" r="97.5" fill="white"/>
<rect x="116" y="27" width="48" height="48" rx="24" fill="#155DFC"/>
<path d="M126.732 52.3332H134.036C134.275 56.6918 135.677 60.7404 137.936 64.1746C131.983 63.2495 127.333 58.387 126.732 52.3332ZM126.732 49.6666C127.333 43.6129 131.983 38.7504 137.936 37.8254C135.677 41.2594 134.275 45.3082 134.036 49.6666H126.732ZM153.267 49.6666H145.963C145.725 45.3082 144.323 41.2594 142.064 37.8254C148.016 38.7504 152.666 43.6129 153.267 49.6666ZM153.267 52.3332C152.666 58.387 148.016 63.2495 142.064 64.1746C144.323 60.7404 145.725 56.6918 145.963 52.3332H153.267ZM136.708 52.3332H143.292C143.063 56.0438 141.886 59.4976 140 62.4554C138.114 59.4976 136.936 56.0438 136.708 52.3332ZM136.708 49.6666C136.936 45.9561 138.114 42.5023 140 39.5446C141.886 42.5023 143.063 45.9561 143.292 49.6666H136.708Z" fill="white"/>
<rect x="39" y="58" width="48" height="48" rx="24" fill="#155DFC"/>
<path d="M63.0013 68.6667C55.6375 68.6667 49.668 74.6362 49.668 82C49.668 88.6551 54.5438 94.1711 60.918 95.1714V85.8542H57.5325V82H60.918V79.0625C60.918 75.7209 62.9085 73.875 65.9541 73.875C67.4129 73.875 68.9388 74.1354 68.9388 74.1354V77.4167H67.2575C65.6012 77.4167 65.0847 78.4445 65.0847 79.499V82H68.7825L68.1915 85.8542H65.0847V95.1714C71.4588 94.1711 76.3347 88.6551 76.3347 82C76.3347 74.6362 70.3651 68.6667 63.0013 68.6667Z" fill="white"/>
<rect x="193" y="58" width="48" height="48" rx="24" fill="#155DFC"/>
<path d="M205 70H229C229.736 70 230.333 70.597 230.333 71.3333V92.6667C230.333 93.4031 229.736 94 229 94H205C204.264 94 203.667 93.4031 203.667 92.6667V71.3333C203.667 70.597 204.264 70 205 70ZM217.081 81.5772L208.53 74.3169L206.804 76.3497L217.097 85.0895L227.206 76.3415L225.461 74.3251L217.081 81.5772Z" fill="white"/>
<path d="M140 95.3333C142.946 95.3333 145.333 92.9455 145.333 90C145.333 87.0545 142.946 84.6667 140 84.6667C137.054 84.6667 134.667 87.0545 134.667 90C134.667 92.9455 137.054 95.3333 140 95.3333ZM140 194L141 194L141 90L140 90L139 90L139 194L140 194Z" fill="white"/>
<path d="M217 145L217 146L218 146L218 145L217 145ZM217 126.333C219.946 126.333 222.333 123.946 222.333 121C222.333 118.054 219.946 115.667 217 115.667C214.054 115.667 211.667 118.054 211.667 121C211.667 123.946 214.054 126.333 217 126.333ZM217 145L218 145L218 121L217 121L216 121L216 145L217 145ZM217 145L217 144L140 144V145V146L217 146L217 145Z" fill="white"/>
<path d="M63 145L63 146L62 146L62 145L63 145ZM63 126.333C60.0545 126.333 57.6667 123.946 57.6667 121C57.6667 118.054 60.0545 115.667 63 115.667C65.9455 115.667 68.3333 118.054 68.3333 121C68.3333 123.946 65.9455 126.333 63 126.333ZM63 145L62 145L62 121L63 121L64 121L64 145L63 145ZM63 145L63 144L140 144V145V146L63 146L63 145Z" fill="white"/>
</g>
<defs>
<clipPath id="clip0_8692_16">
<rect width="280" height="280" fill="white"/>
</clipPath>
</defs>
</svg>
