<svg xmlns="http://www.w3.org/2000/svg" version="1.1" xmlns:xlink="http://www.w3.org/1999/xlink" width="1000" height="1000"><g clip-path="url(#SvgjsClipPath1022)"><rect width="1000" height="1000" fill="#c9fe6e"></rect><g transform="matrix(1.3671875,0,0,1.3671875,150,150)"><svg xmlns="http://www.w3.org/2000/svg" version="1.1" xmlns:xlink="http://www.w3.org/1999/xlink" width="512" height="512"><svg width="512" height="512" viewBox="0 0 512 512" fill="none" xmlns="http://www.w3.org/2000/svg">
<path d="M422.854 311.803C417.239 311.803 411.763 312.29 406.426 313.334L457.099 401.402H422.784L378.143 323.769L300.711 189.232C309.446 184.153 317.348 177.614 323.864 169.894C337.244 154.172 345.354 133.859 345.354 111.599C345.354 62.1385 305.357 22 256.07 22C206.782 22 166.784 62.1385 166.784 111.599C166.784 133.859 174.895 154.241 188.275 169.894L105.783 313.334C100.445 312.29 94.9689 311.803 89.354 311.803C39.9979 311.803 0 351.943 0 401.402C0 450.862 39.9979 491 89.354 491C138.71 491 178.639 450.862 178.639 401.402C178.639 379.141 170.528 358.759 157.15 343.108L123.598 401.402H89.2846L133.927 323.769L211.357 189.232L256 111.599V171.145L239.572 199.666C244.909 200.71 250.385 201.197 256 201.197C261.615 201.197 267.091 200.71 272.428 199.666L354.92 343.108C341.542 358.829 333.431 379.141 333.431 401.402C333.431 450.862 373.429 491 422.716 491C472.002 491 512 450.862 512 401.402C512 351.943 472.002 311.803 422.716 311.803H422.854Z" fill="#0C0A09"></path>
</svg></svg></g></g><defs><clipPath id="SvgjsClipPath1022"><rect width="1000" height="1000" x="0" y="0" rx="350" ry="350"></rect></clipPath></defs></svg>