<?xml version="1.0" encoding="UTF-8"?>
<svg id="Layer_1" xmlns="http://www.w3.org/2000/svg" version="1.1" viewBox="0 0 64.6 15.6">
  <!-- Generator: Adobe Illustrator 29.5.1, SVG Export Plug-In . SVG Version: 2.1.0 Build 141)  -->
  <defs>
    <style>
      .st0 {
        fill: #eb1000;
      }
    </style>
  </defs>
  <path class="st0" d="M6.3.5h4.4l6.2,14.9h-4.6l-3.9-9.9-2.6,6.5h3.1l1.2,3.4H0L6.3.5ZM22,3.6c.5,0,.9,0,1.4.2V0h3.9v14.7c-.9.4-2.8.9-4.7.9-3.5,0-6.5-2-6.5-5.9s2.9-6.1,5.9-6.1h0ZM22.5,12.4c.4,0,.6,0,.9-.2v-5.4c-.3-.1-.6-.2-1-.2-1.3,0-2.5.9-2.5,2.9s1.2,2.8,2.5,2.8h0ZM34.2,3.6c3.2,0,6,2.2,6,6s-2.7,6-6,6-6-2.2-6-6,2.7-6,6-6ZM34.2,12.4c1.1,0,2.1-.9,2.1-2.8s-1-2.8-2.1-2.8-2.1.9-2.1,2.8,1,2.8,2.1,2.8ZM41.2,0h3.9v3.7c.5,0,1-.2,1.5-.2,3,0,5.8,2,5.8,5.9s-3,6.2-6.5,6.2-3.5-.3-4.7-.9V0h0ZM45.9,12.4c1.3,0,2.6-1,2.6-2.9s-1.2-2.7-2.5-2.7-.7,0-.9.2v5.4c.2,0,.5.2.8.2h0ZM59,3.6c2.9,0,5.6,1.9,5.6,5.6s0,1,0,1.5h-7.3c.4,1.3,1.6,1.9,3,1.9s2.3-.3,3.5-.8v3c-1.1.6-2.5.8-3.9.8-3.7,0-6.6-2.2-6.6-6s2.6-6,5.7-6ZM60.9,8.3c-.2-1.3-1-1.8-1.9-1.8s-1.6.5-1.9,1.8c0,0,3.8,0,3.8,0Z"/>
</svg>