<?xml version="1.0" encoding="UTF-8"?>
<svg id="Logo" xmlns="http://www.w3.org/2000/svg" version="1.1" viewBox="0 0 532.5 139.6">
  <!-- Generator: Adobe Illustrator 29.5.1, SVG Export Plug-In . SVG Version: 2.1.0 Build 141)  -->
  <defs>
    <style>
      .st0 {
        fill: #fff;
      }
    </style>
  </defs>
  <path class="st0" d="M529.9,0h-95.4l-39.5,39.5c-.7.7-1.1,1.7-1.1,2.8v22.6h23.3v-22.8c0-.6.5-1.1,1.1-1.1h12.7c.6,0,1.1.5,1.1,1.1v22.7h22.6c.6,0,1.1.5,1.1,1.1v12.7c0,.6-.5,1.1-1.1,1.1h-22.6v22.7c0,.6-.5,1.1-1.1,1.1h-12.7c-.6,0-1.1-.5-1.1-1.1v-22.6h-23.3v54.9c0,2.2,1.8,3.9,3.9,3.9h92.5c1,0,2-.4,2.8-1.1l39.4-39.5V2.6c0-1.4-1.1-2.6-2.6-2.6ZM512.9,103.6h-15.2c-.3,0-.6,0-.8-.4l-14.2-19.2-14.2,19.2c-.2.3-.5.4-.8.4h-15c-.9,0-1.4-1-.8-1.7l21.6-29.2c.3-.4.3-.9,0-1.3l-21.8-29.4c-.3-.4,0-1,.5-1h15.9c.3,0,.7.2.8.4l13.8,18.6,13.7-18.7c.2-.3.5-.4.8-.4h16c.5,0,.8.6.5,1l-21.7,29.6c-.3.3-.3.8,0,1.2l21.7,29.4c.5.5,0,1.5-.8,1.5Z"/>
  <g>
    <path class="st0" d="M282.5,95.3h-7.5c-.2,0-.3.2-.3.3v42.7c0,.2.1.3.3.3h7.5c.2,0,.3-.1.3-.3v-42.7c0-.2,0-.3-.3-.3Z"/>
    <path class="st0" d="M65.2,94.4c-12.7,0-22.7,9.9-22.7,22.6s10,22.6,22.7,22.6c12.8-.1,22.8-10,22.8-22.6s-10-22.6-22.8-22.6ZM79.6,117c0,8.4-6.3,15.1-14.4,15.1s-14.4-6.6-14.4-15.1,6.3-15.1,14.4-15.1c8.1,0,14.4,6.6,14.4,15.1Z"/>
    <path class="st0" d="M115.1,95.3h-19.1c0,0-.2,0-.2.3v42.8c0,.1,0,.2.2.2h7.7c0,0,.2-.1.2-.2v-12h9.9c11.3,0,18.6-6.3,18.6-16,.1-9.2-6.7-15.1-17.3-15.1ZM114.8,119.1h-10.8v-16.5h10.8c5.8,0,9.7,3.1,9.7,7.8s-3.9,8.7-9.7,8.7Z"/>
    <path class="st0" d="M19.4,95.3H.2c-.1,0-.2,0-.2.3v42.8c0,.1.1.2.2.2h7.7c0,0,.2-.1.2-.2v-12h9.9c11.3,0,18.6-6.3,18.6-16,.2-9.2-6.7-15.1-17.2-15.1ZM19,119.1h-10.8v-16.5h10.8c5.8,0,9.7,3.1,9.7,7.8s-3.9,8.7-9.7,8.7Z"/>
    <path class="st0" d="M179.1,95.3h-7.6c-.1,0-.2,0-.2.3v23.5c0,7.8-4.6,13-11.4,13s-11.3-5.2-11.3-13v-23.6c0,0-.1-.3-.2-.3h-7.6c-.1,0-.2,0-.2.3v23.5c0,12.7,7.4,20.6,19.4,20.6s19.6-7.9,19.6-20.6v-23.5c-.3,0-.4-.2-.5-.2Z"/>
    <path class="st0" d="M216.2,131.5h-19.5v-36c0,0-.1-.3-.2-.3h-7.7c-.1,0-.2,0-.2.3v40.8c0,1.3,1,2.3,2.3,2.3h22.5c.7,0,1.3-.4,1.5-1l2.1-4.9c0-.1.1-.2.1-.3,0-.5-.4-.9-.9-.9Z"/>
    <path class="st0" d="M248.6,95.2c0,0-.1,0-.2,0h-7.7c-.1,0-.2,0-.2,0l-18.5,43.1v.2c0,.1.1.1.2.1h8.1c.1,0,.2-.1.2-.2l3.4-8.5h21.1l3.4,8.5c0,.1.1.2.2.2h8c.1,0,.2,0,.2-.1s.1-.2,0-.2l-18.2-43.1ZM236.9,122.7l7.6-18.8,7.7,18.8h-15.3Z"/>
    <path class="st0" d="M321.1,123.2l.7-.3h0c5.2-2.5,8.1-7.2,8.1-12.9,0-8.8-6.9-14.7-17.1-14.7h-18.1c-.1,0-.2,0-.2.3v42.8c0,.1.1.2.2.2h7.7c.1,0,.2-.1.2-.2v-13.6h10l9.7,13.8c0,.1.1.1.2.1h9.1c.1,0,.2-.1.2-.1v-.3l-10.7-15.1ZM302.6,102.6h9.9c5.4,0,9.3,3.1,9.3,7.4s-3.9,7.4-9.3,7.4h-9.9v-14.8Z"/>
    <path class="st0" d="M124.6,62.1l-.7-.2.6-.3c2.4-1.2,5.2-4.2,5.2-9.5s-5.4-11.1-14.4-11.1h-19.3c0,0-.2,0-.2.2v40.8c0,1.3,1,2.3,2.3,2.3h18.2c9.3,0,15.4-4.6,15.4-11.6s-3.5-9.3-7.1-10.6ZM104,47.9h10.1c7.3,0,8.1,3.9,8.1,5.5,0,3.7-3.1,6.1-8.1,6.1h-10.1v-11.6ZM115.7,77.5h-11.7v-11.3h12c4.9,0,7.8,2,7.8,5.3-.1,2.8-2.2,6-8.1,6Z"/>
    <path class="st0" d="M227.6,84.1v-42.9c0,0-.1-.2-.2-.2h-7.7c-.1,0-.2,0-.2.2v28.8l-24.6-28.9c0,0-.1,0-.2,0h-5.8c-.1,0-.2,0-.2.2v42.9c0,0,.1.2.2.2h7.7c.1,0,.2,0,.2-.2v-28l24.4,28.2c0,0,.1,0,.2,0h6c.1,0,.2-.2.2-.3Z"/>
    <path class="st0" d="M310,85.3c12.1,0,19.6-7.9,19.6-20.6v-23.5c0,0-.1-.2-.2-.2h-7.6c-.1,0-.2,0-.2.2v23.5c0,7.8-4.6,13-11.5,13s-11.3-5.2-11.3-13v-23.5c0,0-.1-.2-.2-.2h-7.6c-.1,0-.2,0-.2.2v23.5c-.2,12.7,7.2,20.6,19.2,20.6Z"/>
    <path class="st0" d="M340,95.3c-.1,0-.2,0-.2.2v40.8c0,1.3,1,2.3,2.3,2.3h23.8c.5,0,1-.3,1.4-.7l3.9-5.2c.1-.1.2-.3.2-.5,0-.5-.4-.9-.9-.9h-22.4v-10.5h15.5c.1,0,.2,0,.2-.2v-6.8c0,0-.1-.2-.2-.2h-15.5v-11.1h21.4c.1,0,.2,0,.2-.2v-6.8c0,0-.1-.2-.2-.2h-29.5Z"/>
    <path class="st0" d="M340,41c-.1,0-.2,0-.2.2v40.8c0,1.3,1,2.3,2.3,2.3h23.8c.5,0,1-.3,1.4-.7l3.9-5.2c.1,0,.2-.3.2-.5,0-.5-.4-.9-.9-.9h-22.4v-10.4h15.5c.1,0,.2,0,.2-.2v-6.8c0,0-.1-.2-.2-.2h-15.5v-11.1h21.4c.1,0,.2,0,.2-.2v-6.8c0,0-.1-.2-.2-.2h-29.5Z"/>
    <path class="st0" d="M285.2,78.7c0,.2,0,.3-.1.5l-4,5.4c-.3.4-.8.7-1.4.7h-21.2c-6.1,0-11.8-2.4-16-6.7-4.2-4.2-6.5-9.9-6.5-15.9,0-12.7,9.9-22.6,22.7-22.6s22.7,9.9,22.7,22.6-2,10.4-5.8,14.5l-.9,1,9.6-.4c.6,0,.9.4.9.9ZM244.3,62.7c0,8.4,6.3,15.1,14.4,15.1s14.4-6.6,14.4-15.1-6.3-15.1-14.4-15.1c-8.1,0-14.4,6.6-14.4,15.1Z"/>
    <path class="st0" d="M163.2,41.1c0,0-.1,0-.2,0h-7.7c-.1,0-.2,0-.2,0l-18.4,42.9v.2c0,0,.1,0,.2,0h8.1c.1,0,.2,0,.2-.2l3.4-8.4h21l3.4,8.4c0,0,.1.2.2.2h8c.1,0,.2,0,.2,0s.1-.2,0-.2l-18.2-42.9ZM166.7,68.5h-15.2l7.5-18.7,7.7,18.7Z"/>
  </g>
</svg>