<?xml version="1.0" encoding="UTF-8"?>
<svg id="Calque_1" xmlns="http://www.w3.org/2000/svg" version="1.1" viewBox="0 0 122.3 35.9">
  <!-- Generator: Adobe Illustrator 29.5.1, SVG Export Plug-In . SVG Version: 2.1.0 Build 141)  -->
  <defs>
    <style>
      .st0, .st1 {
        fill: #fff;
      }

      .st1 {
        fill-rule: evenodd;
      }
    </style>
  </defs>
  <path class="st1" d="M63.6,30.5v-.6c0-1.3-.6-1.8-2-1.8s-2,.6-2,1.9c0,2.5,2.4,2.4,2.4,3.9s0,.6-.4.6-.4-.2-.4-.6v-.5h-1.6v.7c0,1.4.6,1.8,2,1.8s2-.5,2-2.1c0-2.5-2.4-2.5-2.4-3.8s0-.6.4-.6.4.2.4.6v.4h1.6ZM64.7,35.8h3.2v-1.4h-1.6v-1.9h1.6v-1.4h-1.6v-1.6h1.6v-1.4h-3.2v7.6h0ZM70.7,35.8v-3.3h.4c.3,0,.5,0,.5.4v2.9h1.6c0,0,0-.2,0-.8v-1.6c0-1-.3-1.4-.9-1.5.7,0,.9-.7.9-1.2v-.9c0-1.2-.6-1.6-2-1.6h-2v7.6h1.6ZM70.7,29.6h.4c.4,0,.5.1.5.8s0,.8-.5.8h-.4v-1.6h0ZM76.7,28.3l-.7,5.9-.7-5.9h-1.6l1.3,7.6h2.1l1.3-7.6h-1.7ZM80.9,28.3h-1.6v7.6h1.6s0-7.6,0-7.6ZM83.9,35.8v-3.3h.4c.3,0,.5,0,.5.4v2.9h1.6c0,0,0-.2,0-.8v-1.6c0-1-.3-1.4-.9-1.5.7,0,.9-.7.9-1.2v-.9c0-1.2-.6-1.6-2-1.6h-2v7.6h1.6ZM83.9,29.6h.4c.4,0,.5.1.5.8s0,.8-.5.8h-.4v-1.6h0ZM92.7,35.8v-1.4h-1.6v-6.2h-1.6v7.6s3.2,0,3.2,0ZM91.9,28.3v1.4h.5l-.6,1.4h.8l.7-1.4v-1.4h-1.4ZM95.7,35.8l.2-1.3h1.1l.2,1.3h1.6l-1.3-7.6h-2.1l-1.3,7.6h1.6ZM96.4,29.5l.3,3.6h-.7l.4-3.6h0ZM101.7,28.3l-.7,5.9-.7-5.9h-1.6l1.3,7.6h2.1l1.3-7.6h-1.7ZM104.3,35.8h3.2v-1.4h-1.6v-1.9h1.6v-1.4h-1.6v-1.6h1.6v-1.4h-3.2v7.6h0ZM112,33.6l-1.3-5.3h-2v7.6h1.5v-5.3l1.4,5.3h1.9v-7.6h-1.5v5.3ZM116.4,28.3h-1.5v7.6h1.5s0-7.6,0-7.6ZM119.4,35.8v-3.3h.4c.3,0,.5,0,.5.4v2.9h1.6c0,0,0-.2,0-.8v-1.6c0-1-.3-1.4-.9-1.5.7,0,.9-.7.9-1.2v-.9c0-1.2-.6-1.6-2-1.6h-2v7.6h1.6ZM119.4,29.6h.4c.4,0,.5.1.5.8s0,.8-.5.8h-.4v-1.6h0Z"/>
  <path class="st0" d="M100.3,11.5c-1.6,0-2.4,2.9-1.9,7.1.6,5.2,5.2,5.2,8.4,3.9v2.6c-1.9.5-3.5.7-4.9.7-7.9,0-8.7-6.5-8.7-8.4,0-3.3,1.2-7.9,7.4-7.9s6.5,2.7,6.6,6.3h-5c0-2.3-.5-4.2-1.9-4.2"/>
  <path class="st0" d="M117,15.2v-.3c0-1.6-.4-3.4-1.7-3.4s-1.8,1.5-1.9,3.6h3.7,0ZM122.3,17.5h-9c.3,6.5,5.1,6.3,8.4,5v2.6c-1.9.5-3.3.7-4.7.7-7.7,0-8.8-5.7-8.8-8.6s1.5-7.7,7.3-7.7,6.8,2.7,6.8,6.5c0,0,0,1.5,0,1.5Z"/>
  <path class="st0" d="M68.3,23.1v-6h0c-1.3.1-3.2.7-3.2,3.3s1.2,2.7,2.3,2.7h1,0ZM73.5,25.2h-8.4c-3.1,0-5.3-1.3-5.3-4.7s1.6-4.2,3.5-4.8c.9-.3,1.9-.5,2.8-.5h2.1v-.5c0-3.6-3.6-3.2-5.6-2.6-.4.1-.7.2-1,.4v-2.4c1.8-.4,3-.6,4.9-.6,4.5,0,7,2.1,7,5.7v10.1h0Z"/>
  <path class="st0" d="M38.2,10v15.3h-5.2v-15.3h5.2Z"/>
  <path class="st0" d="M59.6,11.7c-1.2,0-3.1.5-3.1,3.4v10.2h-5.2v-10.3c0-3.1,2.9-5.5,7.3-5.5h1.1v2.3h0Z"/>
  <path class="st0" d="M51.2,3.5v2.2h-1.5c-.5,0-1,0-1.5.3-.9.4-1.5,1.1-1.5,2.6v1.3h3.7v2.2h-3.7v13h-5.2v-15.4c0-5.7,3.9-6.3,8.6-6.3h1.1Z"/>
  <path class="st0" d="M90.8,25.2h-5.3v-9.2c0-3.6-1.4-3.8-3.3-3.8h-.4v13h-5.2v-15.3h6.6c7.6,0,7.6,3.5,7.6,6.4v8.9h0Z"/>
  <path class="st0" d="M35.6,6.8c-1.9,0-3.4-1.5-3.4-3.4s1.5-3.4,3.4-3.4,3.4,1.5,3.4,3.4-1.5,3.4-3.4,3.4Z"/>
  <path class="st0" d="M35.6,35.2c-1.9,0-3.4-1.5-3.4-3.4s1.5-3.4,3.4-3.4,3.4,1.5,3.4,3.4-1.5,3.4-3.4,3.4Z"/>
  <path class="st0" d="M8.9,17.4c0-3.3-.8-5.4-3.2-5.4h-.4v11.1h.5c2.3,0,3.1-2.2,3.1-5.7ZM0,25.2V3.5h5.3v6.4h1.7c3.6,0,5.4,1.4,6.3,3.1.9,1.6.9,3.5.9,4.4,0,2.4-.8,7.8-6.8,7.8,0,0-7.4,0-7.4,0Z"/>
  <path class="st0" d="M21.8,12v11.1h.4c2.4,0,3.2-2.1,3.2-5.4s-.8-5.7-3.1-5.7h-.5ZM30.7,17.8c0,.9,0,2.8-.9,4.4s-2.7,3.1-6.3,3.1h-1.7v6.4h-5.3V10h7.4c6,0,6.8,5.4,6.8,7.8Z"/>
</svg>