<?xml version="1.0" encoding="UTF-8"?>
<svg id="Calque_1" xmlns="http://www.w3.org/2000/svg" version="1.1" viewBox="0 0 640 178.7">
  <!-- Generator: Adobe Illustrator 29.5.1, SVG Export Plug-In . SVG Version: 2.1.0 Build 141)  -->
  <defs>
    <style>
      .st0 {
        fill: #00b6ff;
      }

      .st1 {
        fill: #ff3737;
      }

      .st2 {
        fill: #24cb71;
      }

      .st3 {
        fill: #874fff;
      }

      .st4 {
        fill: #ff7237;
      }
    </style>
  </defs>
  <path d="M0,40.8C0,18.3,18.3,0,40.8,0h97c22.6,0,40.8,18.3,40.8,40.8v97c0,22.6-18.3,40.8-40.8,40.8H40.8c-22.6,0-40.8-18.3-40.8-40.8V40.8Z"/>
  <path class="st2" d="M47.5,131.2c0-11.6,9.4-20.9,20.9-20.9h20.9v20.9c0,11.6-9.4,20.9-20.9,20.9s-20.9-9.4-20.9-20.9Z"/>
  <path class="st4" d="M89.4,26.5v41.9h20.9c11.6,0,20.9-9.4,20.9-20.9s-9.4-20.9-20.9-20.9h-20.9Z"/>
  <circle class="st0" cx="110.1" cy="89.4" r="20.9"/>
  <path class="st1" d="M47.5,47.5c0,11.6,9.4,20.9,20.9,20.9h20.9V26.5h-20.9c-11.6,0-20.9,9.4-20.9,20.9Z"/>
  <path class="st3" d="M47.5,89.4c0,11.6,9.4,20.9,20.9,20.9h20.9v-41.9h-20.9c-11.6,0-20.9,9.4-20.9,20.9Z"/>
  <path d="M600.4,151c-5.5,0-10.5-1.1-14.8-3.2-4.3-2.1-7.7-5-10.3-8.6-2.5-3.7-3.7-8-3.7-12.8s2-11.4,6.1-15.3c4-3.9,9.8-6.6,17.4-8.1l19.7-4c3.9-.8,6.6-2,8.1-3.7,1.5-1.7,2.2-4.1,2.2-7.4l2,19.7-28.3,6.1c-3.8.8-6.8,2.2-8.9,4.2-2,2-3,4.8-3,8.4s1.4,6.7,4.2,8.9c2.9,2.2,6.9,3.4,11.8,3.4s7.8-.9,11.1-2.7c3.5-1.8,6.2-4.3,8.1-7.4,2-3.2,3-6.9,3-11.1v-29.4c0-4-1.5-7.2-4.4-9.4-2.8-2.4-6.7-3.5-11.6-3.5s-11.1,1.6-14.5,4.7c-3.4,3.1-5.3,7.6-5.9,13.3l-14.8-2c.6-5.9,2.4-11,5.4-15.3,3-4.4,7.1-7.7,12.1-10.1,5.1-2.4,11.1-3.5,18-3.5,9.9,0,17.5,2.5,22.8,7.6,5.3,5,7.9,11.5,7.9,19.5v59.3h-14.7v-10.9c-1.5,3.7-4.4,6.9-8.9,9.6-4.4,2.6-9.7,3.9-16,3.9Z"/>
  <path d="M452,148.5v-83.9h14.7v9.4c1.1-3.2,3.6-6.1,7.4-8.4,3.8-2.4,8.3-3.5,13.3-3.5s9.5,1.1,13.7,3.2c4.2,2.1,6.9,5.3,8.1,9.6,1.5-3.9,4.2-7,8.1-9.2,4-2.4,8.5-3.5,13.5-3.5,8.5,0,15.1,2.5,19.6,7.4s6.7,12.1,6.7,21.5v57.5h-15v-55.5c0-5.6-1.2-9.8-3.7-12.6-2.4-2.9-5.8-4.4-10.5-4.4s-9,1.8-11.8,5.4c-2.7,3.5-4,8.6-4,15.3v51.8h-15v-55.5c0-5.6-1.2-9.8-3.7-12.6-2.4-2.9-5.8-4.4-10.5-4.4s-9,1.8-11.8,5.4c-2.7,3.5-4,8.6-4,15.3v51.8h-15Z"/>
  <path d="M394.7,178.7c-10.5,0-18.9-2.4-25.5-7.2s-10.7-11.5-12.5-20.2l14.7-3.2c1.2,5.5,3.9,9.8,7.9,12.8,4,3.1,9.2,4.7,15.3,4.7s13-1.9,16.7-5.7c3.8-3.7,5.7-9.2,5.7-16.6v-13.3c-1.7,4.1-4.8,7.5-9.4,10.1-4.5,2.6-9.6,3.9-15.2,3.9s-13.9-1.7-19.6-5c-5.6-3.5-10-8.3-13.1-14.5-3.1-6.2-4.7-13.3-4.7-21.3s1.6-15.4,4.7-21.5c3.1-6.2,7.5-10.9,13-14.3,5.6-3.5,12.2-5.2,19.7-5.2s10.7,1.3,15.3,3.9c4.7,2.5,7.9,5.5,9.6,9.2v-10.6h14.7v78.7c0,7.4-1.5,13.7-4.4,19-2.9,5.4-7.2,9.5-12.8,12.3-5.5,2.8-12.2,4.2-20.2,4.2ZM394.3,130.6c7.2,0,12.9-2.5,17.2-7.6,4.4-5,6.6-11.7,6.6-20s-2.2-15.1-6.6-20.2c-4.4-5-10.1-7.6-17.2-7.6s-13,2.5-17.4,7.6c-4.3,5-6.4,11.8-6.4,20.2s2.2,15,6.6,20,10.1,7.6,17.2,7.6Z"/>
  <path d="M324.8,148.4v-83.8h15v83.9h-15ZM324.6,53.8v-23.9h15.3v23.9h-15.3Z"/>
  <path d="M238.6,148.5V30h15.8v118.5h-15.8ZM241.8,98.4v-14.3h64.6v14.3h-64.6ZM241.8,44.4v-14.5h70.8v14.5h-70.8Z"/>
</svg>