<?xml version="1.0" encoding="UTF-8"?>
<svg id="Calque_1" xmlns="http://www.w3.org/2000/svg" version="1.1" viewBox="0 0 598.6 207">
  <!-- Generator: Adobe Illustrator 29.5.1, SVG Export Plug-In . SVG Version: 2.1.0 Build 141)  -->
  <defs>
    <style>
      .st0 {
        fill: #fff;
      }
    </style>
  </defs>
  <g id="Calque_2">
    <g id="LOGOS">
      <polygon class="st0" points="82.6 3.6 20.7 64 19.2 64 19.2 3.6 .2 3.6 .2 143.4 19.2 143.4 19.2 73.5 20.7 73.5 85.9 143.4 113.6 143.4 41.5 68.2 109.1 3.6 82.6 3.6"/>
      <polygon class="st0" points="124.3 3.6 214.5 3.6 214.5 21.3 143.2 21.3 143.2 63.5 188.6 63.5 188.6 81.3 143.2 81.3 143.2 125.7 214 125.7 214 143.4 124.3 143.4 124.3 3.6"/>
      <path class="st0" d="M490.2,65.2v69c-13.6,8.3-36,12.8-53,12.8-47.4,0-74.9-33.8-74.9-73.5,0-41.5,30.2-73.5,72.9-73.5s41.3,6.9,52.2,18.2l-13.5,14.4c-11.5-11.1-24.7-14.8-38.7-14.8-32,0-52.8,25.1-52.8,55.7s23.5,55.7,54.4,55.7,25.9-2.6,34.4-7.3v-38.9h-31v-17.8h50Z"/>
      <polygon class="st0" points="504.5 3.6 504.5 143.4 598.4 143.4 598.4 125.7 523.5 125.7 523.5 80.8 569.4 80.8 569.4 63 523.5 63 523.5 21.3 594.8 21.3 594.8 3.6 504.5 3.6"/>
      <path class="st0" d="M237.8,125.6v17.8h41.8c50,0,76.7-34.2,76.7-69.9S341.8,3.6,282.7,3.6h-45v17.8h43.6c45.5,0,54.7,34.3,54.7,52.1,0,34.6-27.3,52.1-59.3,52.1h-39Z"/>
      <polygon class="st0" points="233.2 79.1 198.5 72.6 233.2 66.2 239.7 31.5 246.2 66.2 280.9 72.6 246.2 79.1 239.7 113.8 233.2 79.1"/>
      <path class="st0" d="M578.5,205.4h20.1v-3.7h-15.9v-29h-4.3v32.7ZM530.6,189c0-7.3,6-13.3,13.3-13.3s13.3,6,13.3,13.3c0,7.3-6,13.3-13.3,13.3,0,0,0,0,0,0-7.3,0-13.2-5.9-13.3-13.2,0,0,0,0,0-.1M526.3,189c-.2,9.7,7.4,17.7,17.1,18,9.7.2,17.7-7.4,18-17.1s-7.4-17.7-17.1-18c-.2,0-.3,0-.5,0-9.5-.1-17.3,7.4-17.5,17,0,0,0,0,0,.1M480.1,189c0-7.3,6-13.3,13.3-13.2,7.3,0,13.3,6,13.2,13.3,0,7.3-6,13.3-13.3,13.2-7.3,0-13.2-5.9-13.3-13.2,0,0,0,0,0-.1M475.8,189c-.2,9.7,7.4,17.7,17.1,18,9.7.2,17.7-7.4,18-17.1.2-9.7-7.4-17.7-17.1-18-.2,0-.3,0-.5,0-9.5-.1-17.4,7.4-17.5,17,0,0,0,0,0,.1M431.3,205.4h4.2v-14.3h18.9v14.3h4.3v-32.7h-4.3v14.6h-18.9v-14.6h-4.2v32.7ZM413.8,183c-2.4-7.1-9.4-11.1-16.2-11.1-9.4-.3-17.3,7-17.6,16.5-.3,9.4,7,17.3,16.5,17.6.4,0,.8,0,1.2,0,6.9,0,13.9-4,16.2-11h-4.4c-2.2,4.5-6.8,7.4-11.8,7.3-7.4,0-13.3-6-13.3-13.3,0-7.4,6-13.3,13.3-13.3,5,0,9.6,2.8,11.8,7.3h4.4ZM339,195.9c0,5,4.4,10.2,12.5,10.2s13.5-3.6,13.5-9.7-6.1-8.7-11.7-9.6c-5.3-.6-9-1.7-9-5.3s1.7-5.7,7.8-5.7,7.3,2.3,7.3,5.6h4.3c0-5.5-4.2-9.4-11.2-9.4s-12.4,4.5-12.4,9.8,6.8,7.5,11.4,8.2c5.2,1,9.2,2.1,9.2,6.4s-3.1,6-9.1,6-8.3-3-8.3-6.4h-4.2ZM273.6,195.9c0,5,4.4,10.2,12.5,10.2s13.5-3.6,13.5-9.7-6.1-8.7-11.7-9.6c-5.3-.6-9-1.7-9-5.3s1.7-5.7,7.8-5.7,7.3,2.3,7.3,5.6h4.3c0-5.5-4.2-9.4-11.2-9.4s-12.4,4.5-12.4,9.8,6.8,7.5,11.4,8.2c5.2,1,9.3,2.1,9.3,6.4s-3.1,6-9.1,6-8.3-3-8.3-6.4h-4.3ZM232.9,195.9c0,5,4.4,10.2,12.5,10.2s13.5-3.6,13.5-9.7-6.1-8.7-11.7-9.6c-5.3-.6-9-1.7-9-5.3s1.7-5.7,7.8-5.7,7.3,2.3,7.3,5.6h4.3c0-5.5-4.2-9.4-11.2-9.4s-12.4,4.5-12.4,9.8,6.8,7.5,11.4,8.2c5.2,1,9.3,2.1,9.3,6.4s-3.1,6-9.1,6-8.3-3-8.3-6.4h-4.2ZM196.6,205.4h22v-3.7h-17.7v-10.6h15.1v-3.7h-15.2v-10.9h17.5v-3.8h-21.8v32.7ZM177.8,172.7h-4.3v25.3l-20.2-25.3h-3.6v32.7h4.2v-25.3l20.1,25.2h3.6v-32.7ZM126.8,205.4h4.2v-32.7h-4.2v32.7ZM84,195.9c0,5,4.4,10.2,12.5,10.2s13.5-3.6,13.5-9.7-6.1-8.7-11.7-9.6c-5.3-.6-9-1.7-9-5.3s1.7-5.7,7.8-5.7,7.3,2.3,7.3,5.6h4.3c0-5.5-4.2-9.4-11.2-9.4s-12.4,4.5-12.4,9.8,6.8,7.5,11.4,8.2c5.2,1,9.3,2.1,9.3,6.4s-3.1,6-9.1,6-8.3-3-8.3-6.4h-4.2ZM63.8,192.8c0,5.3-3.5,9.6-9.3,9.6s-9.3-4.4-9.3-9.6v-20h-4.3v20c0,8.1,5.9,13.3,13.6,13.3s13.5-5.4,13.5-13.3v-20h-4.3v20.1ZM15.3,205.4c5.1,0,9.9-3.3,9.9-9.2,0-3.8-2.6-7-6.2-8.1,2.6-1.2,4.3-3.9,4.3-6.8,0-5.1-3.9-8.6-9.3-8.6H0v32.7h15.3ZM13.8,176.3c2.9,0,5.3,2.4,5.3,5.3s-2.4,5.3-5.3,5.3H4.2v-10.6h9.5ZM15,190.3c3.1,0,5.7,2.5,5.8,5.6,0,0,0,0,0,.1,0,3.2-2.6,5.8-5.8,5.8,0,0,0,0,0,0H4.2v-11.6h10.8Z"/>
    </g>
  </g>
</svg>