<svg width="192" height="40" viewBox="0 0 192 40" fill="none" xmlns="http://www.w3.org/2000/svg">
<g clip-path="url(#clip0_1133_4998)">
<path d="M126.773 24.7724C127.4 27.7019 129.871 29.2818 133.86 29.2818C138.046 29.2818 140.09 27.6689 140.09 25.2007C140.09 22.3043 137.453 21.6463 132.674 20.7574C128.323 19.9344 124.499 18.8811 124.467 14.5038C124.467 10.3567 127.598 7.78955 132.872 7.78955C138.541 7.78955 141.31 10.62 141.87 14.9651H138.904C138.442 12.4632 136.859 10.62 132.872 10.62C129.641 10.62 127.434 12.0679 127.434 14.4055C127.467 16.8083 129.906 17.3349 133.069 17.8616C138.442 18.7835 143.056 19.6058 143.056 25.1354C143.056 29.1512 140.551 32.212 133.564 32.212C128.29 32.212 124.169 29.8421 123.478 24.7731H126.773V24.7724Z" fill="white"/>
<path d="M168.105 18.8811V21.1189C168.105 27.8661 163.853 31.6846 158.25 31.6846H147.505V8.31543H158.25C163.853 8.51274 168.105 12.2322 168.105 18.8811ZM165.138 19.1444C165.138 15.1617 163.161 11.1459 156.371 11.1459H150.472V28.7551H156.371C163.161 28.7551 165.138 24.8384 165.138 20.8556V19.1444Z" fill="white"/>
<path d="M192 8.31543V31.6846H186.232L176.542 11.1459H175.52V31.6846H172.553V8.31543H178.321L188.012 28.8541H189.033V8.31543H192Z" fill="white"/>
<path d="M111.78 0H110.182V40H111.78V0Z" fill="white"/>
<path d="M0 28.668V34.4465H5.78664L0 28.668Z" fill="white"/>
<path d="M0 17.1108H11.5733L17.3599 22.8894V34.4464H11.5733V22.8894H0V17.1108Z" fill="white"/>
<path d="M0 11.3322H23.1466V34.4463H28.9325V11.3322L23.1466 5.55371H0V11.3322Z" fill="white"/>
<path d="M55.9261 28.8534V31.6839H40.8306V8.31543H43.7972V28.8534H55.9268H55.9261Z" fill="white"/>
<path d="M57.0798 18.8811C57.0798 11.6073 61.3318 7.78955 66.9353 7.78955H69.6383C73.6259 7.78955 77.4497 10.4557 78.4714 15.3597H75.3072C74.5161 12.5952 72.1099 10.62 68.2868 10.62C62.0244 10.62 60.0464 14.6351 60.0464 19.1445V20.8564C60.0464 25.3657 62.0244 29.2825 68.2868 29.2825C72.4397 29.2825 74.8459 27.0439 75.5048 24.0162H78.5699C77.7788 29.4138 73.8566 32.212 69.6376 32.212H66.9346C61.3311 32.212 57.0791 28.3942 57.0791 21.1204V18.8818L57.0798 18.8811Z" fill="white"/>
<path d="M98.1805 11.1459H90.5997V31.6846H87.633V11.1459H80.0522V8.31543H98.1805V11.1459Z" fill="white"/>
</g>
<defs>
<clipPath id="clip0_1133_4998">
<rect width="192" height="40" fill="white"/>
</clipPath>
</defs>
</svg>
