<?xml version="1.0" encoding="UTF-8"?>
<svg id="logo-lm" xmlns="http://www.w3.org/2000/svg" version="1.1" viewBox="0 0 482.2 289.8">
  <!-- Generator: Adobe Illustrator 29.5.1, SVG Export Plug-In . SVG Version: 2.1.0 Build 141)  -->
  <defs>
    <style>
      .st0 {
        fill: #fff;
      }
    </style>
  </defs>
  <path class="st0" d="M428.8,289.8H51.3c-.3-.3-.5-.6-.8-.9.8-.4,1.7-.6,2.3-1.2,26.2-25.9,52.3-51.8,78.4-77.6,30.6-30.3,61.1-60.5,91.7-90.8,5.3-5.3,10.7-10.4,16-15.8,1.7-1.7,2.6-1.7,4.3,0,29.8,30,59.8,59.9,89.7,89.8,31.5,31.5,62.9,63,94.4,94.4.6.6,1.3,1.1,2,1.6-.2.2-.3.4-.5.5Z"/>
  <path class="st0" d="M209,52.9c-3.4-3.3-6.6-6.5-9.6-9.4,14.2-14.5,28.4-29,42.5-43.5,4.8,4.7,9.4,9.1,13.8,13.7.4.4.2,1.7-.2,2.4-4.4,8.7-8.8,17.4-13.2,26.1-.4.8-.8,1.5-1.4,2.8,1.2-.5,1.9-.8,2.7-1.1,9-4.1,18.1-8.1,27.1-12.3,1.5-.7,2.4-.7,3.7.6,4,4,8.1,7.9,11.7,11.4-14.5,14.9-28.8,29.4-42.9,43.8-3.6-3.5-7-6.9-10.3-10.1,7-7.1,14.2-14.4,21.4-21.6-.1-.2-.2-.4-.3-.6-.7.3-1.5.6-2.2.9-8.6,3.9-17.2,7.8-25.8,11.7-1.4.6-2.4.8-3.5-.5-1.5-1.8-4.2-3.3-4.5-5.2s1.5-4.3,2.5-6.4c3.6-7.9,7.3-15.8,10.6-24-7.4,7.2-14.8,14.3-22.1,21.3ZM444.2,260.9c.2-.9.3-1.2.3-1.5,3.9-13.7,7.8-27.4,11.6-41.1.2-.8.4-2.1-.1-2.6-4.7-4.8-9.5-9.4-14.5-14.2-14.1,14.4-28.4,29-42.5,43.4,3,2.9,6.4,6.2,9.9,9.7,9.3-9.1,18.9-18.4,28.1-27.3,0-.3,0,0-.1.3-3.2,13.4-6.3,26.8-9.7,40.1-.9,3.6-.7,6.1,2.3,8.6,3.4,2.8,6.4,6.2,9.8,9.6,14.3-14.6,28.5-29.1,42.7-43.6-2.9-2.8-6.2-6-10.1-9.9-8.9,9.2-18.1,18.6-27.7,28.5ZM284.4,128.7c2.5-2.6,5.4-5.5,8.7-8.9-6-5.9-12.3-11.9-18.2-17.6,3.3-3.3,6.3-6.4,9.6-9.8,4.7,4.7,9.6,9.6,14.4,14.3,2.8-2.9,5.7-5.8,9.2-9.3-4.8-4.7-9.9-9.5-14.4-13.9,2.3-2.5,4.5-4.8,6.7-7.2,6.3,6.2,12.6,12.3,18.8,18.4,2.7-2.7,5.5-5.6,8.3-8.5-10-9.8-20.2-19.7-30.5-29.8-13.8,14.1-28,28.6-42.4,43.3,9.8,9.4,19.9,19.3,29.8,29ZM64,207.2c-3.1-2.8-5.8-5.3-8.2-7.5,5.9-6.3,11.8-12.5,17.8-18.9-2.6-2.4-5.4-5.1-8.3-7.8-9.8,9.6-19.8,19.4-29.6,28.9l43.2,43.2c9.8-9.6,19.8-19.3,29.9-29.2-3-2.8-5.8-5.4-8.7-8.2-6.1,5.9-12.4,12.1-18.4,18-3.3-3.1-6.4-6-9.3-8.7,5-5.3,9.8-10.5,14.8-15.8-2.8-2.6-5.7-5.3-9.4-8.8-4.7,5-9.5,10.2-13.8,14.8ZM169.6,73.7c-1.4-.5-2.3-.4-3.3.7-3,3.1-6.2,6.1-9.3,9.1-.4.4-.7.9-1.2,1.5,7.6,2.5,14.9,4.8,22.3,7.2,5.3,1.7,11.1,2.6,15.8,5.4,4.6,2.8,8.2,7.5,12.1,11.5,2,2.1,3.9,4.3,5.9,6.6,4-4.3,7.5-8,11.1-11.8-4.8-4.9-10-10.1-15-15.4-.8-.9-1.5-2-1.8-3.2-1.8-7.3-3.5-14.7-5.3-22-1.4-5.9-2.9-11.9-4.4-18.2-4.3,4.2-8.3,8.1-12.2,12-.4.4-.4,1.5-.2,2.2.8,3,1.7,5.9,2.5,8.9,1.2,4.3,2.4,8.6,3.7,13.4-7.3-3-14-5.4-20.7-7.9ZM394.4,154c-3.6-3.5-7.3-7.1-11.2-10.9-14,14.3-28.1,28.8-42.5,43.5,9.6,9.4,19.6,19.1,29.5,28.7,3.1-3.2,6.5-6.6,10.2-10.4-5.9-5.8-12.1-11.8-18.3-17.8,11-11.4,21.8-22.4,32.3-33.1ZM42.3,281.1c10-9.7,19.8-19.3,29.7-29-3.5-3.2-6.9-6.4-10.4-9.6-5.8,5.6-11.9,11.6-18.2,17.7-11-11.3-21.9-22.4-32.8-33.6-3.6,3.8-7.1,7.4-10.6,11.2,13.9,14.2,28,28.7,42.3,43.3ZM420.7,180.8c-14,14.3-28.1,28.8-42.2,43.2,3.2,3.2,6.8,6.8,10.7,10.6,14-14.3,28.2-28.8,42.3-43.3-3.2-3.2-6.9-6.7-10.8-10.5ZM361,145.5c-5.9,4.6-12.3,6-19.6,3.2-3.1,9.6-6.2,19-9.3,28.6-3.8-3.7-7.4-7.1-10.9-10.8-.5-.6-.3-2.1-.1-3,2.5-11.5,5-23,7.6-34.6.1-.4.1-.8-.2-1.5-7.5,7.8-15,15.6-22.4,23.2-4.2-4.1-7.9-7.7-11.1-10.8,14-14.5,28.1-29.1,41.9-43.4,9.4,9.1,18.5,17.5,27,26.5,5.7,5.8,3.9,17.2-2.9,22.6ZM350.1,126c-3.1-3.4-6.7-6.4-10-9.5-3.1,3.2-6.4,6.5-9.9,10.1,2,2.1,4.1,4.4,6.2,6.6.4.5.8,1,1.3,1.3.9.7,1.8,1.4,2.8,1.8,3.2,1.4,6.8.4,8.9-2.3,2.3-2.8,2.8-5.8.7-8ZM187.7,127.7c0,16.3-15.3,31-32.3,31s-31.1-15-31.1-31.3,13.2-31.5,31.2-31.5c17.9,0,32.1,14,32.2,31.8ZM172.7,127.7c-2.9-7.3-8.1-13.1-15.1-16.8-4.4-2.3-8.9-1.9-12.9,1-4.2,3-6.6,7.1-6.1,12.5.8,8.6,13.2,19.9,21.8,19.8,8,0,15.2-9.3,12.3-16.5ZM151.7,173.4c-3.4,3.6-6.7,7.2-10.1,10.7-.5.5-1.9.3-2.8.1-10.8-2.8-21.6-5.7-32.4-8.5-.7-.2-1.4-.3-2.3-.1,7.5,7.7,14.9,15.3,22,22.6-3.6,3.9-7.2,7.7-10.5,11.2-14.5-14.2-29-28.4-43.5-42.6.6-.7,1-1.2,1.4-1.6,6.8-6.8,13.7-13.5,20.5-20.2,4.5-4.4,9.9-6.7,16.3-5.9,8.2,1,14.2,7.6,14.4,16.1,0,3-.4,6.1-.6,9.3,9.3,2.9,18.6,6,27.6,8.9ZM110.3,156.8c-2.7-2.7-6.1-3.3-8.9-1.1-3.1,2.4-5.9,5.2-8.9,7.9,3.8,3.5,7.3,6.8,11.1,10.3,1.6-1.5,3.7-3.4,5.7-5.3.8-.8,1.6-1.5,2.2-2.4,2.1-3.2,1.7-6.5-1.2-9.4Z"/>
</svg>