<?xml version="1.0" encoding="utf-8"?>
<!-- Generator: Adobe Illustrator 29.5.1, SVG Export Plug-In . SVG Version: 9.03 Build 0)  -->
<svg version="1.0" id="Calque_1" xmlns="http://www.w3.org/2000/svg" xmlns:xlink="http://www.w3.org/1999/xlink" x="0px" y="0px"
	 viewBox="0 0 400 103.7" style="enable-background:new 0 0 400 103.7;" xml:space="preserve">
<style type="text/css">
	.st0{fill:#FFFFFF;}
</style>
<g>
	<g>
		<g>
			<path class="st0" d="M110.5,4.2c0,0,0.5-3.4,6.3-4.1c0,0,6.3-0.4,7.2,2.8c0,0,0.4,3.1-6.8,4.5C117.2,7.3,110.6,8.7,110.5,4.2z"/>
			<path class="st0" d="M82.9,19.6c0,0,6.2-4.5,17.9-3.5c0,0,9,0.3,9.2,5.3c0,0,0.6,5.8-8.6,10.4c0,0-4.3,2.9-12.8,0.3
				c0,0-6.8-2-9.2-6C79.4,26.2,77.6,22.7,82.9,19.6z"/>
			<path class="st0" d="M79.5,28.6c0,0,3.6,4.4,13.2,5.9c0,0,5.8,4.4,7,9.1c0,0,2.5,9-6.9,10.9c0,0-6.9,1.5-22.8,0.9
				c0,0-28-0.9-34.6-3.6c0,0-9.1-2.2-9.6-4.1c0,0-3.3-4.1,4.5-9.2c0,0,7.9-5,23.8-7.9C54.2,30.6,69.7,27.7,79.5,28.6z"/>
			<path class="st0" d="M67.8,57.3c0,0,26.4,0.2,28.8-2.7c0,0,16.2,0.4,16.6,12c0,0,2.1,22.6-18.7,30.5c0,0-9.9,6.3-48.2,6.5
				c0,0-28.8,0.5-42.8-6.5c0,0-9.4-3.7,2.2-14c0,0,10-9.3,30.2-16.8C36,66.4,51.1,60.4,67.8,57.3z"/>
		</g>
	</g>
	<g>
		<path class="st0" d="M156.2,24.3c1.9-0.5,4.3-0.7,7.1-0.7c1.3,0,2.5,0.1,3.8,0.3c1.2,0.2,2.3,0.7,3.2,1.2c1.9,1,2.9,2.8,3,5.3
			c0,2-0.6,3.7-1.7,4.9c-1.1,1.3-2.6,2.3-4.4,2.8v0.1c1.5,0.8,2.4,2.5,2.5,5c0.2,1.6,0.4,3.2,0.5,4.6c0.1,1.5,0.3,2.6,0.5,3.2H165
			c-0.2-0.8-0.5-3-0.8-6.5c-0.1-1.7-0.5-2.8-1.1-3.5c-0.6-0.6-1.4-0.9-2.6-0.9h-1.7l-2,10.8h-5.8L156.2,24.3z M159.7,36h2.3
			c1.6,0,2.9-0.4,3.8-1.3c1-0.8,1.5-2,1.5-3.3c0-1.1-0.4-1.9-1.1-2.5c-0.8-0.5-1.7-0.7-2.9-0.7c-1,0-1.8,0.1-2.2,0.2L159.7,36z"/>
		<path class="st0" d="M192.5,50.1c-1.1,0.6-2.3,1-3.6,1.2c-1.3,0.2-2.5,0.4-3.6,0.4c-5.6-0.1-8.4-2.9-8.4-8.4c0-3.2,1-6,3.1-8.5
			c2-2.5,4.7-3.8,8.2-3.9c2,0,3.6,0.6,4.9,1.6c1.2,1,1.8,2.5,1.9,4.4c0,2.5-1.1,4.3-3.3,5.3c-2.2,1-5.3,1.5-9.2,1.4
			c0,0.7,0.2,1.4,0.6,2c0.8,1,2,1.6,3.7,1.6c2.1,0,3.9-0.4,5.4-1.3L192.5,50.1z M189.6,36.8c0-0.5-0.2-0.9-0.6-1.2
			c-0.4-0.3-0.9-0.5-1.5-0.5c-1.3,0-2.3,0.5-3.1,1.4c-0.8,0.9-1.3,1.8-1.4,2.8C187.4,39.4,189.6,38.6,189.6,36.8L189.6,36.8
			L189.6,36.8z M195.7,22.7l-5.1,6.2h-4.1l3.7-6.2H195.7z"/>
		<path class="st0" d="M199.3,46.1c0.6,0.3,1.4,0.6,2.3,0.9c0.9,0.3,1.8,0.5,2.8,0.5c1.6-0.1,2.4-0.7,2.4-1.8c0-0.5-0.2-0.9-0.5-1.3
			c-0.4-0.4-1-0.8-1.9-1.2c-1.2-0.6-2.2-1.3-3-2.2c-0.9-0.8-1.3-1.9-1.3-3.1c0-2.1,0.8-3.8,2.4-5.1c1.5-1.2,3.6-1.8,6.2-1.8
			c2.4,0,4,0.4,5,1l-1.4,4.2c-0.4-0.2-0.9-0.4-1.6-0.6c-0.7-0.2-1.5-0.3-2.4-0.3c-1.7,0-2.5,0.6-2.6,1.8c0,0.8,0.8,1.5,2.5,2.2
			c1.1,0.5,2.1,1.2,3,2.1c0.4,0.4,0.8,0.9,1,1.5c0.2,0.6,0.4,1.2,0.4,1.9c0,2.3-0.9,4-2.5,5.2c-1.6,1.2-3.8,1.8-6.4,1.8
			c-2.6-0.1-4.6-0.6-5.9-1.5L199.3,46.1z"/>
		<path class="st0" d="M233.1,50.1c-1.1,0.6-2.3,1-3.6,1.2c-1.3,0.2-2.5,0.4-3.6,0.4c-5.6-0.1-8.4-2.9-8.4-8.4c0-3.2,1-6,3.1-8.5
			c2-2.5,4.7-3.8,8.2-3.9c2,0,3.6,0.6,4.9,1.6c1.2,1,1.8,2.5,1.9,4.4c0,2.5-1.1,4.3-3.3,5.3c-2.2,1-5.3,1.5-9.2,1.4
			c0,0.7,0.2,1.4,0.6,2c0.8,1,2,1.6,3.7,1.6c2.1,0,3.9-0.4,5.4-1.3L233.1,50.1z M230.2,36.8c0-0.5-0.2-0.9-0.6-1.2
			c-0.4-0.3-0.9-0.5-1.5-0.5c-1.3,0-2.3,0.5-3.1,1.4c-0.8,0.9-1.3,1.8-1.4,2.8C228,39.4,230.2,38.6,230.2,36.8L230.2,36.8
			L230.2,36.8z"/>
		<path class="st0" d="M251.8,51.3c0-1.2,0.1-2.5,0.2-4H252c-0.9,1.6-1.9,2.8-3.1,3.4c-1.2,0.7-2.3,1-3.5,1c-1.8,0-3.2-0.7-4.2-1.9
			c-1.1-1.2-1.6-2.9-1.6-5c0-3.5,1.1-6.7,3.4-9.5c2.2-2.8,5.7-4.3,10.4-4.4c2.5,0,4.6,0.3,6.4,1l-1.9,10.4c-0.5,3-0.8,6-0.8,9H251.8
			z M253.4,35.4c-0.4-0.1-0.9-0.2-1.5-0.2c-0.9,0-1.7,0.3-2.5,0.8c-0.8,0.5-1.5,1.2-2,2c-1.2,1.7-1.8,3.6-1.8,5.6
			c0,1,0.2,1.8,0.6,2.4c0.4,0.6,1,0.9,1.7,0.9c0.9,0,1.8-0.5,2.7-1.6c0.9-1.1,1.5-2.8,2-5.3L253.4,35.4z"/>
		<path class="st0" d="M284.3,31.3l-2.5,13.4c-0.5,2.5-0.8,4.7-1.1,6.5h-5l0.4-3.2l-0.1,0c-2,2.5-4.2,3.8-6.6,3.7
			c-3.3,0-4.9-1.9-5-5.6c0-1.1,0.1-2.3,0.4-3.7l2.1-11.1h5.7l-2,10.7c-0.2,1-0.3,1.8-0.3,2.7c0,0.6,0.2,1.2,0.5,1.6
			c0.3,0.5,0.7,0.7,1.5,0.7c1,0,2-0.6,2.8-1.7c0.9-1.1,1.5-2.7,1.9-4.7l1.7-9.2L284.3,31.3L284.3,31.3z"/>
		<path class="st0" d="M168.2,77.2h-9.4l-1.2,6.7h11l-1,5h-16.6l5.1-27.5h15.8l-0.9,5h-10.3l-1.1,5.8h9.8L168.2,77.2z"/>
		<path class="st0" d="M173.3,88.9l2.4-13.5c0.5-2.5,0.8-4.7,1-6.5h5l-0.4,3.3h0.1c2-2.5,4.4-3.7,7.1-3.7c3.3,0.1,4.9,1.9,5,5.4
			c0,1.1-0.1,2.2-0.3,3.3l-2.2,11.6h-5.8l2.1-11.1c0.1-0.7,0.2-1.4,0.2-2.2c0-0.8-0.1-1.3-0.4-1.8c-0.3-0.4-0.8-0.6-1.6-0.6
			c-1,0-2,0.6-2.9,1.7c-0.9,1.2-1.7,2.9-2.2,5.1l-1.6,8.8L173.3,88.9L173.3,88.9z"/>
		<path class="st0" d="M208.8,63.6l-1,5.4h4.1l-0.9,4.5H207l-1.3,6.7c-0.2,0.9-0.3,1.7-0.3,2.5c-0.1,1.1,0.5,1.7,1.7,1.7
			c0.5,0,1,0,1.5-0.1l-0.6,4.6c-0.9,0.3-2,0.5-3.4,0.5c-1.7,0-2.9-0.4-3.8-1.2c-0.8-0.8-1.2-1.8-1.2-3.1c0-1,0.1-2.2,0.4-3.7
			l1.5-7.9H199l0.8-4.5h2.5l0.7-3.8L208.8,63.6z"/>
		<path class="st0" d="M213.7,88.9l2.2-11.9c0.5-3.3,0.8-6,1-8.1h4.9c-0.1,1.3-0.2,2.7-0.4,4.1h0.1c0.7-1.3,1.6-2.4,2.6-3.3
			c1-0.8,2.2-1.3,3.5-1.3c0.4,0,0.7,0,1.1,0l-1.1,5.7c-0.2,0-0.5,0-0.9,0c-1.8,0-3.1,0.7-4.1,2.1c-1,1.4-1.6,3.1-2,5.1l-1.3,7.4
			L213.7,88.9L213.7,88.9z"/>
		<path class="st0" d="M246.5,87.8c-1.1,0.6-2.3,1-3.6,1.2c-1.3,0.2-2.5,0.4-3.6,0.4c-5.6-0.1-8.4-2.9-8.4-8.4c0-3.2,1-6,3.1-8.5
			c2-2.5,4.7-3.8,8.2-3.9c2,0,3.6,0.6,4.9,1.6c1.2,1,1.8,2.5,1.9,4.4c0,2.5-1.1,4.3-3.3,5.3c-2.2,1-5.3,1.5-9.2,1.4
			c0,0.7,0.2,1.4,0.6,2.1c0.8,1.1,2,1.6,3.7,1.6c2.1,0,3.9-0.4,5.4-1.3L246.5,87.8z M243.6,74.5c0-0.5-0.2-0.9-0.6-1.2
			c-0.4-0.3-0.9-0.5-1.5-0.5c-1.3,0-2.3,0.5-3.1,1.4c-0.8,0.9-1.3,1.8-1.4,2.8C241.4,77.1,243.6,76.3,243.6,74.5L243.6,74.5
			L243.6,74.5z"/>
		<path class="st0" d="M250.8,97l3.7-20.3c0.5-2.8,0.8-5.4,1.1-7.9h5.1l-0.4,3.1h0.1c1.7-2.2,3.8-3.3,6.2-3.3c2.1,0,3.7,0.8,4.7,2.2
			c1,1.4,1.5,3.2,1.5,5.4c0,3.5-1.1,6.6-3,9.2c-2,2.7-4.7,4-8.2,4.1c-1.6-0.1-2.8-0.3-3.5-0.8H258l-1.5,8.4L250.8,97L250.8,97z
			 M258.9,84c0.6,0.6,1.5,0.9,2.6,0.9c0.8,0,1.5-0.3,2.2-0.8c0.7-0.5,1.2-1.2,1.7-2c1-1.7,1.5-3.6,1.5-5.6c0-0.8-0.2-1.6-0.5-2.3
			c-0.4-0.7-1-1-2-1c-1.1,0-2.1,0.6-2.9,1.7c-0.9,1.1-1.5,2.7-1.9,4.7L258.9,84z"/>
		<path class="st0" d="M277,88.9l2.2-11.9c0.5-3.3,0.8-6,1-8.1h4.9c-0.1,1.3-0.2,2.7-0.4,4.1h0.1c0.7-1.3,1.5-2.4,2.6-3.3
			c1-0.8,2.2-1.3,3.5-1.3c0.4,0,0.7,0,1.1,0l-1.1,5.7c-0.2,0-0.5,0-0.9,0c-1.8,0-3.1,0.7-4,2.1c-1,1.4-1.6,3.1-2,5.1l-1.3,7.4
			L277,88.9L277,88.9z"/>
		<path class="st0" d="M309.8,87.8c-1.1,0.6-2.3,1-3.6,1.2c-1.3,0.2-2.5,0.4-3.6,0.4c-5.6-0.1-8.4-2.9-8.4-8.4c0-3.2,1-6,3-8.5
			c2-2.5,4.7-3.8,8.2-3.9c2,0,3.6,0.6,4.9,1.6c1.2,1,1.8,2.5,1.9,4.4c0,2.5-1.1,4.3-3.3,5.3c-2.2,1-5.3,1.5-9.2,1.4
			c0,0.7,0.2,1.4,0.6,2.1c0.8,1.1,2,1.6,3.7,1.6c2.1,0,3.9-0.4,5.4-1.3L309.8,87.8z M306.9,74.5c0-0.5-0.2-0.9-0.6-1.2
			c-0.4-0.3-0.9-0.5-1.5-0.5c-1.3,0-2.3,0.5-3.1,1.4c-0.8,0.9-1.3,1.8-1.5,2.8C304.7,77.1,306.9,76.3,306.9,74.5L306.9,74.5z"/>
		<path class="st0" d="M315.8,88.9l2.5-13.5c0.5-2.5,0.8-4.7,1-6.5h5l-0.4,3.3h0.1c2-2.5,4.4-3.7,7.1-3.7c3.3,0.1,4.9,1.9,5,5.4
			c0,1.1-0.1,2.2-0.3,3.3l-2.2,11.6h-5.8l2.1-11.1c0.1-0.7,0.2-1.4,0.2-2.2c0-0.8-0.1-1.3-0.4-1.8c-0.3-0.4-0.8-0.6-1.6-0.6
			c-1,0-2,0.6-2.9,1.7c-1,1.2-1.7,2.9-2.2,5.1l-1.6,8.8L315.8,88.9L315.8,88.9z"/>
		<path class="st0" d="M363,60l-3.9,21.2c-0.5,2.7-0.7,5.3-0.9,7.7H353l0.3-3.2h-0.1c-0.8,1.3-1.8,2.2-2.9,2.8
			c-1.1,0.6-2.3,0.9-3.5,0.9c-1.7,0-3.1-0.7-4.2-2c-1.2-1.3-1.8-3.1-1.8-5.5c0-3.6,1.1-6.7,3.4-9.3c2.2-2.6,5.1-4,8.8-4
			c0.9,0,1.7,0.2,2.6,0.5l1.7-9L363,60L363,60z M354.8,73.7c-0.5-0.4-1.3-0.7-2.3-0.7c-1.7,0.1-3.1,0.9-4.1,2.4
			c-1.1,1.6-1.6,3.4-1.7,5.4c0,2.5,0.9,3.7,2.7,3.8c0.9,0,1.7-0.5,2.6-1.4c0.8-0.9,1.4-2.3,1.8-4.2L354.8,73.7z"/>
		<path class="st0" d="M364.8,88.9L367,77c0.5-3.3,0.8-6,1-8.1h4.9c-0.1,1.3-0.2,2.7-0.4,4.1h0.1c0.7-1.3,1.5-2.4,2.6-3.3
			c1-0.8,2.2-1.3,3.5-1.3c0.4,0,0.7,0,1.1,0l-1.1,5.7c-0.2,0-0.5,0-0.9,0c-1.8,0-3.1,0.7-4,2.1c-1,1.4-1.6,3.1-2,5.1l-1.3,7.4
			L364.8,88.9L364.8,88.9z"/>
		<path class="st0" d="M397.6,87.8c-1.1,0.6-2.3,1-3.6,1.2c-1.3,0.2-2.5,0.4-3.6,0.4c-5.6-0.1-8.4-2.9-8.4-8.4c0-3.2,1-6,3-8.5
			c2-2.5,4.7-3.8,8.2-3.9c2,0,3.6,0.6,4.9,1.6c1.2,1,1.8,2.5,1.9,4.4c0,2.5-1.1,4.3-3.3,5.3c-2.2,1-5.3,1.5-9.2,1.4
			c0,0.7,0.2,1.4,0.6,2.1c0.8,1.1,2,1.6,3.7,1.6c2.1,0,3.9-0.4,5.4-1.3L397.6,87.8z M394.7,74.5c0-0.5-0.2-0.9-0.6-1.2
			c-0.4-0.3-0.9-0.5-1.5-0.5c-1.3,0-2.3,0.5-3.1,1.4c-0.8,0.9-1.3,1.8-1.5,2.8C392.5,77.1,394.7,76.3,394.7,74.5L394.7,74.5z"/>
	</g>
</g>
</svg>
