<?xml version="1.0" encoding="UTF-8"?>
<svg xmlns="http://www.w3.org/2000/svg" version="1.1" xmlns:cc="http://creativecommons.org/ns#" xmlns:dc="http://purl.org/dc/elements/1.1/" xmlns:inkscape="http://www.inkscape.org/namespaces/inkscape" xmlns:rdf="http://www.w3.org/1999/02/22-rdf-syntax-ns#" xmlns:sodipodi="http://sodipodi.sourceforge.net/DTD/sodipodi-0.dtd" xmlns:svg="http://www.w3.org/2000/svg" viewBox="0 0 1000 1000">
  <!-- Generator: Adobe Illustrator 29.5.1, SVG Export Plug-In . SVG Version: 2.1.0 Build 141)  -->
  <defs>
    <style>
      .st0 {
        fill: #fff;
      }
    </style>
  </defs>
  <g id="svg6" inkscape:version="0.92.4 (5da689c313, 2019-01-14)" sodipodi:docname="SFR.svg">
    <g>
      <path class="st0" d="M894.7,427.1c0-19.5-8.7-43.6-58.8-43.6h-58.8v92.8h57c46.1,0,60.5-19.7,60.5-49.2Z"/>
      <path class="st0" d="M0,0v1000h1000V0H0ZM334,654.2c-50.7,0-82.1-18.3-108.2-63.2l40.3-24c17.9,31.7,41.1,40.8,67.6,40.8s57.2-18.1,57.2-47.4-3.2-34.6-44.2-45.4c-.2,0-22.2-6.4-22.2-6.4-47.8-13.4-92.6-36.3-92.6-89.3s47.4-88.9,105.2-88.9,79.2,23.9,98.8,52.6l-40.3,23.5c-14.9-19.7-35.3-29.6-58.3-29.6-33.4,0-52,16.1-52,40.1s4.3,31.9,41,42.2h0c0,0,21.9,6.4,22.1,6.4,44.3,11.5,95.5,29.4,95.5,92.5s-54.1,96-110.1,96ZM683.3,386.7h-138.1v84.7h118.9v48h-118.9v127.6h-50.9v-309.1h189v48.8ZM897.8,646.9l-69.1-124.5h-51.6v124.5h-50.9v-309.1h114.2c45.9,0,107.2,12.9,107.2,89.8s-27.1,76.5-69.9,87.8l80.4,131.5h-60.3Z"/>
    </g>
  </g>
</svg>