<svg xmlns:xlink="http://www.w3.org/1999/xlink" width="124" height="37" viewBox="0 0 124 37" fill="none" xmlns="http://www.w3.org/2000/svg">
                        <g clip-path="url(#clip0_661_179)" fill="none">
                            <path fill-rule="evenodd" clip-rule="evenodd" d="M64.3076 31.2402V30.6456C64.3076 29.2968 63.6697 28.8079 62.3533 28.8079C60.8663 28.8079 60.3571 29.3807 60.3571 30.7404C60.3571 33.2689 62.7894 33.1091 62.7989 34.6815C62.7989 35.127 62.6716 35.3085 62.3519 35.3085C62.0323 35.3085 61.9064 35.1162 61.9064 34.6815V34.1506H60.3557V34.8616C60.3557 36.2633 60.9286 36.6885 62.3425 36.6885C63.8606 36.6885 64.3495 36.1996 64.3495 34.6165C64.3495 32.1421 61.9077 32.1421 61.9077 30.8149C61.9077 30.3694 62.035 30.1879 62.3533 30.1879C62.6716 30.1879 62.8002 30.3789 62.8002 30.8149V31.2402H64.3089H64.3076ZM65.4398 36.5396H68.6264V35.1595H66.9904V33.2689H68.5519V31.8875H66.9904V30.3369H68.6264V28.9568H65.4398V36.5396ZM71.3811 36.5396V33.2689H71.7738C72.0921 33.2689 72.2722 33.3962 72.2722 33.6508V36.2321C72.2722 36.3175 72.3047 36.4231 72.3683 36.5409H73.9285C73.8229 36.4244 73.8229 36.2971 73.8229 35.7134V34.0666C73.8229 33.0996 73.5249 32.6757 72.8884 32.5688C73.5886 32.4414 73.7809 31.8672 73.7809 31.4108V30.5089C73.7809 29.2981 73.1755 28.9582 71.8158 28.9582H69.8304V36.5409H71.3811V36.5396ZM71.3811 30.3369H71.7738C72.1449 30.3369 72.2302 30.4858 72.2302 31.1115C72.2302 31.7806 72.1016 31.8862 71.7738 31.8862H71.3811V30.3355V30.3369ZM77.4388 28.9568L76.717 34.8304L75.9952 28.9568H74.3917L75.6769 36.5396H77.7368L79.022 28.9568H77.4402H77.4388ZM81.5844 28.9568H80.0337V36.5396H81.5844V28.9568ZM84.5638 36.5396V33.2689H84.9566C85.2762 33.2689 85.4563 33.3962 85.4563 33.6508V36.2321C85.4563 36.3175 85.4875 36.4231 85.5511 36.5409H87.1126C87.007 36.4244 87.007 36.2971 87.007 35.7134V34.0666C87.007 33.0996 86.709 32.6757 86.0725 32.5688C86.7727 32.4414 86.965 31.8672 86.965 31.4108V30.5089C86.965 29.2981 86.3596 28.9582 84.9999 28.9582H83.0132V36.5409H84.5638V36.5396ZM84.5638 30.3369H84.9566C85.329 30.3369 85.4143 30.4858 85.4143 31.1115C85.4143 31.7806 85.287 31.8862 84.9566 31.8862H84.5638V30.3355V30.3369ZM93.3844 36.5396V35.1595H91.7497V28.9568H90.1991V36.5396H93.3844ZM92.6354 28.9568V30.3369H93.1663L92.5298 31.7169H93.3045L94.0168 30.3369V28.9568H92.6368H92.6354ZM96.4031 36.5396L96.5616 35.2015H97.6342L97.8156 36.5396H99.4191L98.1339 28.9568H96.074L94.7888 36.5396H96.4031ZM97.1141 30.2312L97.4635 33.8215H96.72L97.1128 30.2312H97.1141ZM102.428 28.9568L101.707 34.8304L100.985 28.9568H99.3812L100.666 36.5396H102.726L104.012 28.9568H102.428ZM104.981 36.5396H108.167V35.1595H106.532V33.2689H108.092V31.8875H106.532V30.3369H108.167V28.9568H104.981V36.5396ZM112.675 34.2982L111.337 28.9568H109.373V36.5396H110.839V31.2402L112.197 36.5396H114.14V28.9568H112.675V34.2982ZM117.129 28.9568H115.579V36.5396H117.129V28.9568ZM120.109 36.5396V33.2689H120.502C120.82 33.2689 121 33.3962 121 33.6508V36.2321C121 36.3175 121.032 36.4231 121.095 36.5409H122.656C122.549 36.4244 122.549 36.2971 122.549 35.7134V34.0666C122.549 33.0996 122.251 32.6757 121.615 32.5688C122.315 32.4414 122.506 31.8672 122.506 31.4108V30.5089C122.506 29.2981 121.901 28.9582 120.541 28.9582H118.555V36.5409H120.106L120.109 36.5396ZM120.109 30.3369H120.502C120.873 30.3369 120.958 30.4858 120.958 31.1115C120.958 31.7806 120.831 31.8862 120.502 31.8862H120.109V30.3355V30.3369Z" fill="#4C3E3D"></path>
                            <path d="M100.967 12.2272C99.3434 12.2272 98.5768 15.1091 99.0644 19.3643C99.6603 24.5459 104.285 24.5283 107.415 23.2173L107.411 25.7742C105.486 26.2997 103.918 26.4297 102.556 26.4297C94.6616 26.4297 93.8598 19.9386 93.8598 17.9978C93.8598 14.7028 95.0286 10.147 101.285 10.147C105.434 10.147 107.801 12.8461 107.84 16.4634H102.85C102.837 14.2017 102.362 12.2245 100.967 12.2245" fill="#4C3E3D"></path>
                            <path d="M117.721 15.9404V15.6181C117.653 14.0363 117.331 12.227 115.977 12.227C114.623 12.227 114.222 13.7438 114.036 15.8416L114.028 15.9404H117.721ZM122.995 18.2008H113.967L113.971 18.2956C114.291 24.6757 119.043 24.543 122.393 23.213L122.391 25.774C120.469 26.2995 119.135 26.4295 117.649 26.4295C109.975 26.4295 108.833 20.7306 108.833 17.8148C108.833 14.4453 110.302 10.14 116.164 10.1454C120.491 10.1481 122.995 12.8757 122.995 16.6663V18.2008Z" fill="#4C3E3D"></path>
                            <path d="M69.0084 23.7943L68.9908 17.7785L68.8919 17.788C67.5958 17.9031 65.7039 18.4854 65.7012 21.0924C65.6998 23.5329 66.8902 23.7455 68.0184 23.7929L69.0084 23.7956V23.7943ZM74.2197 25.949H65.7838C62.6743 25.9435 60.4343 24.68 60.4411 21.2333C60.4465 18.4285 62.0689 17.081 63.9392 16.4269C64.8777 16.1005 65.8772 15.9475 66.7643 15.877C67.6527 15.8066 68.4247 15.8188 68.9041 15.8174H68.9948V15.3285C68.9989 11.722 65.3991 12.108 63.365 12.7026C62.979 12.8204 62.6269 12.9463 62.3289 13.0709L62.3317 10.7117C64.1275 10.2878 65.3517 10.1443 67.2586 10.1443C71.7711 10.1443 74.2224 12.2611 74.2224 15.8012V25.949H74.2197Z" fill="#4C3E3D"></path>
                            <path d="M38.8807 10.6724L38.874 25.9489H33.6464L33.6491 10.6724H38.8807Z" fill="#4C3E3D"></path>
                            <path d="M60.3423 12.4016C59.1099 12.4572 57.2193 12.8946 57.2152 15.7779L57.2058 25.9487H51.9768L51.9836 15.6127C51.9876 12.5059 54.8317 10.1467 59.2778 10.1454H60.3396L60.3423 12.4016Z" fill="#4C3E3D"></path>
                            <path d="M51.9023 4.22583V6.44011C51.3863 6.44011 50.8662 6.44011 50.3746 6.47939C49.8519 6.52137 49.3535 6.60669 48.9215 6.78681C48.0439 7.15247 47.4575 7.89869 47.4561 9.36811V10.6723H51.1439L51.1411 12.9177H47.4453L47.448 25.9502H42.2231V10.5748C42.2231 4.8935 46.1194 4.22718 50.8405 4.22718H51.9023V4.22583Z" fill="#4C3E3D"></path>
                            <path d="M91.5332 25.9487H86.2758L86.265 16.7463C86.265 13.1195 84.889 12.9285 82.974 12.9177H82.6043L82.607 25.9487H77.3713L77.3672 10.6005C77.7911 10.6275 79.2077 10.6736 83.9315 10.6736C91.5088 10.6736 91.5292 14.188 91.5292 17.0456L91.5319 25.9487H91.5332Z" fill="#4C3E3D"></path>
                            <path d="M36.2641 7.51561C34.406 7.51561 32.8987 6.00692 32.8987 4.14746C32.8987 2.28801 34.406 0.776611 36.2641 0.776611C38.1222 0.776611 39.6282 2.2853 39.6282 4.14746C39.6282 6.00963 38.1222 7.51561 36.2641 7.51561Z" fill="#4C3E3D"></path>
                            <path d="M36.2641 35.8637C34.406 35.8637 32.8987 34.3537 32.8987 32.4943C32.8987 30.6348 34.406 29.1248 36.2641 29.1248C38.1222 29.1248 39.6282 30.6334 39.6282 32.4943C39.6282 34.3551 38.1222 35.8637 36.2641 35.8637Z" fill="#FFCD00"></path>
                            <path d="M9.60469 18.1264C9.60469 14.7921 8.83003 12.739 6.43021 12.739H6.00225V23.8415H6.50741C8.83545 23.8402 9.60469 21.6164 9.60469 18.1264ZM0.746216 25.9488V4.22583H6.00225V10.6723H7.66669C11.3084 10.6723 13.111 12.0943 14.0089 13.7276C14.9122 15.3704 14.9122 17.2434 14.9122 18.1643C14.9122 20.5871 14.147 25.9488 8.13934 25.9488H0.746216Z" fill="#4C3E3D"></path>
                            <path d="M22.4543 12.7377V23.8416H22.8836C25.2835 23.8416 26.0568 21.7885 26.0568 18.4528C26.0568 15.1172 25.2875 12.739 22.9608 12.739L22.4543 12.7363V12.7377ZM31.367 18.4569C31.367 19.3778 31.367 21.2508 30.4623 22.8949C29.563 24.5282 27.7618 25.9489 24.1201 25.9489H22.4543V32.3953H17.1996V10.6724H24.5941C30.6018 10.6724 31.367 16.0327 31.367 18.4569Z" fill="#4C3E3D"></path>
                        </g>
                        <defs>
                            <clipPath id="clip0_661_179">
                                <rect width="123.405" height="36" fill="white" transform="translate(0 0.539551)"></rect>
                            </clipPath>
                        </defs>
                    </svg>