<?xml version="1.0" encoding="UTF-8"?>
<svg id="Calque_1" xmlns="http://www.w3.org/2000/svg" version="1.1" xmlns:xlink="http://www.w3.org/1999/xlink" viewBox="0 0 40 40">
  <!-- Generator: Adobe Illustrator 29.5.1, SVG Export Plug-In . SVG Version: 2.1.0 Build 141)  -->
  <defs>
    <style>
      .st0 {
        clip-path: url(#clippath-21);
      }

      .st1 {
        clip-path: url(#clippath-6);
      }

      .st2 {
        clip-path: url(#clippath-7);
      }

      .st3 {
        clip-path: url(#clippath-17);
      }

      .st4 {
        clip-path: url(#clippath-15);
      }

      .st5 {
        clip-path: url(#clippath-18);
      }

      .st6 {
        clip-path: url(#clippath-4);
      }

      .st7 {
        fill: url(#Dégradé_sans_nom_11);
      }

      .st8 {
        clip-path: url(#clippath-22);
      }

      .st9 {
        clip-path: url(#clippath-23);
      }

      .st10 {
        fill: url(#Dégradé_sans_nom_7);
      }

      .st11 {
        fill: url(#Dégradé_sans_nom_6);
      }

      .st12 {
        fill: url(#Dégradé_sans_nom_14);
      }

      .st13 {
        clip-path: url(#clippath-9);
      }

      .st14 {
        clip-path: url(#clippath-10);
      }

      .st15 {
        fill: url(#Dégradé_sans_nom_20);
      }

      .st16 {
        fill: url(#Dégradé_sans_nom_13);
      }

      .st17 {
        fill: #fff;
      }

      .st18 {
        clip-path: url(#clippath-25);
      }

      .st19 {
        clip-path: url(#clippath-11);
      }

      .st20 {
        fill: none;
      }

      .st21 {
        fill: url(#Dégradé_sans_nom_2);
      }

      .st22 {
        fill: url(#Dégradé_sans_nom_19);
      }

      .st23 {
        clip-path: url(#clippath-1);
      }

      .st24 {
        clip-path: url(#clippath-5);
      }

      .st25 {
        clip-path: url(#clippath-20);
      }

      .st26 {
        clip-path: url(#clippath-8);
      }

      .st27 {
        fill: url(#Dégradé_sans_nom_18);
      }

      .st28 {
        clip-path: url(#clippath-3);
      }

      .st29 {
        clip-path: url(#clippath-26);
      }

      .st30 {
        fill: url(#Dégradé_sans_nom_9);
      }

      .st31 {
        clip-path: url(#clippath-12);
      }

      .st32 {
        clip-path: url(#clippath-14);
      }

      .st33 {
        fill: url(#Dégradé_sans_nom_22);
      }

      .st34 {
        fill: url(#Dégradé_sans_nom_4);
      }

      .st35 {
        clip-path: url(#clippath-19);
      }

      .st36 {
        fill: url(#Dégradé_sans_nom_12);
      }

      .st37 {
        fill: url(#Dégradé_sans_nom_16);
      }

      .st38 {
        fill: url(#Dégradé_sans_nom_3);
      }

      .st39 {
        fill: url(#Dégradé_sans_nom_21);
      }

      .st40 {
        fill: url(#Dégradé_sans_nom_15);
      }

      .st41 {
        fill: url(#Dégradé_sans_nom_5);
      }

      .st42 {
        clip-path: url(#clippath-16);
      }

      .st43 {
        clip-path: url(#clippath-2);
      }

      .st44 {
        clip-path: url(#clippath-13);
      }

      .st45 {
        fill: url(#Dégradé_sans_nom_10);
      }

      .st46 {
        clip-path: url(#clippath-24);
      }

      .st47 {
        fill: url(#Dégradé_sans_nom_17);
      }

      .st48 {
        clip-path: url(#clippath);
      }

      .st49 {
        fill: url(#Dégradé_sans_nom_8);
      }
    </style>
    <clipPath id="clippath">
      <polygon class="st20" points="20.6 22.4 19.7 23.2 20.3 25.2 21.1 25.5 20.6 22.4 20.6 22.4"/>
    </clipPath>
    <linearGradient id="Dégradé_sans_nom_22" data-name="Dégradé sans nom 22" x1="-522.5" y1="402.3" x2="-521.8" y2="402.3" gradientTransform="translate(1567.8 -1168.6) scale(3)" gradientUnits="userSpaceOnUse">
      <stop offset="0" stop-color="#f3997b"/>
      <stop offset="1" stop-color="#e30613"/>
    </linearGradient>
    <clipPath id="clippath-1">
      <polygon class="st20" points="19.8 5.7 17 13.8 17 14.7 17.5 13.9 20.1 5.7 19.8 5.7"/>
    </clipPath>
    <linearGradient id="Dégradé_sans_nom_2" data-name="Dégradé sans nom 2" x1="-316.6" y1="260.6" x2="-315.9" y2="260.6" gradientTransform="translate(-1389.5 1170.2) rotate(-180) scale(4.5)" gradientUnits="userSpaceOnUse">
      <stop offset="0" stop-color="#e30613"/>
      <stop offset="1" stop-color="#9c1006"/>
    </linearGradient>
    <clipPath id="clippath-2">
      <polygon class="st20" points="19.2 2.2 17.6 2.6 20 6.3 21.3 4.6 20.4 1 19.2 2.2"/>
    </clipPath>
    <linearGradient id="Dégradé_sans_nom_3" data-name="Dégradé sans nom 3" x1="-328.7" y1="268.5" x2="-328" y2="268.5" gradientTransform="translate(-1695.5 1406.1) rotate(-180) scale(5.2)" gradientUnits="userSpaceOnUse">
      <stop offset="0" stop-color="#9c1006"/>
      <stop offset=".2" stop-color="#9c1006"/>
      <stop offset=".7" stop-color="#e30613"/>
      <stop offset="1" stop-color="#e30613"/>
    </linearGradient>
    <clipPath id="clippath-3">
      <polygon class="st20" points="10.8 15.5 10.2 15.8 16 15.5 10.8 15.5 10.8 15.5"/>
    </clipPath>
    <linearGradient id="Dégradé_sans_nom_4" data-name="Dégradé sans nom 4" x1="-354.3" y1="287" x2="-353.6" y2="287" gradientTransform="translate(-2876.9 2358.8) rotate(-180) scale(8.2)" gradientUnits="userSpaceOnUse">
      <stop offset="0" stop-color="#901004"/>
      <stop offset="0" stop-color="#901004"/>
      <stop offset="1" stop-color="#ba0e0c"/>
    </linearGradient>
    <clipPath id="clippath-4">
      <polygon class="st20" points="16.9 15.5 10.2 15.8 17 20.2 16.9 15.5 16.9 15.5"/>
    </clipPath>
    <linearGradient id="Dégradé_sans_nom_5" data-name="Dégradé sans nom 5" x1="-360.6" y1="291.5" x2="-359.9" y2="291.5" gradientTransform="translate(-3413.1 2790.3) rotate(-180) scale(9.5)" gradientUnits="userSpaceOnUse">
      <stop offset="0" stop-color="#9c1006"/>
      <stop offset="0" stop-color="#901004"/>
      <stop offset="1" stop-color="#e4281f"/>
      <stop offset="1" stop-color="#e4281f"/>
    </linearGradient>
    <clipPath id="clippath-5">
      <polygon class="st20" points="20.4 4.8 17.5 13.9 24.2 16.4 24.2 16.4 21.3 4.6 20.4 4.8"/>
    </clipPath>
    <linearGradient id="Dégradé_sans_nom_6" data-name="Dégradé sans nom 6" x1="-358.8" y1="314.6" x2="-358" y2="314.6" gradientTransform="translate(-3959.7 3504) rotate(-180) scale(11.1)" gradientUnits="userSpaceOnUse">
      <stop offset="0" stop-color="#f3997b"/>
      <stop offset="0" stop-color="#f18b71"/>
      <stop offset=".2" stop-color="#ed6858"/>
      <stop offset=".4" stop-color="#e72f30"/>
      <stop offset=".6" stop-color="#e30613"/>
      <stop offset=".7" stop-color="#df0612"/>
      <stop offset=".8" stop-color="#d40810"/>
      <stop offset=".9" stop-color="#c10a0c"/>
      <stop offset="1" stop-color="#a70e08"/>
      <stop offset="1" stop-color="#9c1006"/>
    </linearGradient>
    <clipPath id="clippath-6">
      <polygon class="st20" points="12.2 10 16.2 17 17 17.1 17 13.8 12.2 10"/>
    </clipPath>
    <linearGradient id="Dégradé_sans_nom_7" data-name="Dégradé sans nom 7" x1="-345.1" y1="280.5" x2="-344.4" y2="280.5" gradientTransform="translate(-2321.6 1914.3) rotate(-180) scale(6.8)" gradientUnits="userSpaceOnUse">
      <stop offset="0" stop-color="#e30613"/>
      <stop offset=".2" stop-color="#e30613"/>
      <stop offset="1" stop-color="#9c1006"/>
    </linearGradient>
    <clipPath id="clippath-7">
      <polygon class="st20" points="8.6 9.9 13 17.1 16.2 17 12.2 10 8.6 9.9"/>
    </clipPath>
    <linearGradient id="Dégradé_sans_nom_8" data-name="Dégradé sans nom 8" x1="-432.9" y1="341.8" x2="-432.2" y2="341.8" gradientTransform="translate(4633.1 -3638) scale(10.7)" gradientUnits="userSpaceOnUse">
      <stop offset="0" stop-color="#d00910"/>
      <stop offset=".5" stop-color="#e30613"/>
      <stop offset="1" stop-color="#ee6b5a"/>
    </linearGradient>
    <clipPath id="clippath-8">
      <polygon class="st20" points="7.8 14.1 10.2 12.6 8.6 9.9 7.8 14.1"/>
    </clipPath>
    <linearGradient id="Dégradé_sans_nom_9" data-name="Dégradé sans nom 9" x1="-290.2" y1="241.5" x2="-289.5" y2="241.5" gradientTransform="translate(-956.7 816.7) rotate(-180) scale(3.3)" gradientUnits="userSpaceOnUse">
      <stop offset="0" stop-color="#9c1006"/>
      <stop offset=".4" stop-color="#9c1006"/>
      <stop offset="1" stop-color="#e30613"/>
    </linearGradient>
    <clipPath id="clippath-9">
      <polygon class="st20" points="17 25.4 20.6 26.3 23.2 26.3 20.1 24.7 18.2 24.3 17 25.4"/>
    </clipPath>
    <linearGradient id="Dégradé_sans_nom_10" data-name="Dégradé sans nom 10" x1="-481.4" y1="302.3" x2="-480.7" y2="302.3" gradientTransform="translate(2556.6 -1568.8) scale(5.3)" gradientUnits="userSpaceOnUse">
      <stop offset="0" stop-color="#9c1006"/>
      <stop offset="1" stop-color="#e30613"/>
    </linearGradient>
    <clipPath id="clippath-10">
      <polygon class="st20" points="20.4 1 21.3 4.6 23.4 3.4 23.7 1.6 21.8 1.9 20.4 1"/>
    </clipPath>
    <linearGradient id="Dégradé_sans_nom_11" data-name="Dégradé sans nom 11" x1="-319.5" y1="262.1" x2="-318.7" y2="262.1" gradientTransform="translate(-1454.6 1215.7) rotate(-180) scale(4.6)" gradientUnits="userSpaceOnUse">
      <stop offset="0" stop-color="#9c1006"/>
      <stop offset=".3" stop-color="#9c1006"/>
      <stop offset=".7" stop-color="#e30613"/>
      <stop offset="1" stop-color="#e30613"/>
    </linearGradient>
    <clipPath id="clippath-11">
      <polygon class="st20" points="21.3 4.6 22.5 7.9 23.4 3.4 21.3 4.6"/>
    </clipPath>
    <linearGradient id="Dégradé_sans_nom_12" data-name="Dégradé sans nom 12" x1="-277.8" y1="233.2" x2="-277.1" y2="233.2" gradientTransform="translate(-820.1 713.8) rotate(-180) scale(3)" gradientUnits="userSpaceOnUse">
      <stop offset="0" stop-color="#b60d0b"/>
      <stop offset="1" stop-color="#e30613"/>
    </linearGradient>
    <clipPath id="clippath-12">
      <polygon class="st20" points="23 5.6 25 5.5 23.2 4.5 23 5.6"/>
    </clipPath>
    <linearGradient id="Dégradé_sans_nom_13" data-name="Dégradé sans nom 13" x1="-270" y1="227.8" x2="-269.3" y2="227.8" gradientTransform="translate(-746.6 656) rotate(-180) scale(2.9)" gradientUnits="userSpaceOnUse">
      <stop offset="0" stop-color="#f3997b"/>
      <stop offset=".8" stop-color="#e30613"/>
      <stop offset="1" stop-color="#9c1006"/>
    </linearGradient>
    <clipPath id="clippath-13">
      <polygon class="st20" points="23 5.5 22.7 6.8 22.7 6.8 25 5.5 23 5.5"/>
    </clipPath>
    <linearGradient id="Dégradé_sans_nom_14" data-name="Dégradé sans nom 14" x1="-284.6" y1="238.1" x2="-283.9" y2="238.1" gradientTransform="translate(-891.9 773.4) rotate(-180) scale(3.2)" gradientUnits="userSpaceOnUse">
      <stop offset="0" stop-color="#e93e3a"/>
      <stop offset=".4" stop-color="#e30613"/>
      <stop offset="1" stop-color="#9c1006"/>
      <stop offset="1" stop-color="#9c1006"/>
    </linearGradient>
    <clipPath id="clippath-14">
      <polygon class="st20" points="10.4 17.1 17 22.4 17 22.4 17 16.8 10.4 17.1"/>
    </clipPath>
    <linearGradient id="Dégradé_sans_nom_15" data-name="Dégradé sans nom 15" x1="-359.9" y1="291.1" x2="-359.2" y2="291.1" gradientTransform="translate(-3349.7 2742.3) rotate(-180) scale(9.4)" gradientUnits="userSpaceOnUse">
      <stop offset="0" stop-color="#9c1006"/>
      <stop offset=".6" stop-color="#e30613"/>
      <stop offset="1" stop-color="#eb544a"/>
    </linearGradient>
    <clipPath id="clippath-15">
      <polygon class="st20" points="21.3 4.6 24.3 17 23.4 20.9 26.3 17.7 24.4 11.1 21.3 4.6"/>
    </clipPath>
    <linearGradient id="Dégradé_sans_nom_16" data-name="Dégradé sans nom 16" x1="-346.9" y1="282.1" x2="-346.2" y2="282.1" gradientTransform="translate(-2431.5 2011.3) rotate(-180) scale(7.1)" gradientUnits="userSpaceOnUse">
      <stop offset="0" stop-color="#f3997b"/>
      <stop offset=".3" stop-color="#ea4e46"/>
      <stop offset=".5" stop-color="#e30613"/>
      <stop offset="1" stop-color="#9c1006"/>
    </linearGradient>
    <clipPath id="clippath-16">
      <polygon class="st20" points="17 14.2 17 22.4 17 22.4 17.6 22.4 17.6 22.4 17.6 22.4 19.4 22.4 19.4 22.4 20.6 22.4 21.3 22.4 23.4 20.9 17.5 13.9 17 14.2"/>
    </clipPath>
    <linearGradient id="Dégradé_sans_nom_17" data-name="Dégradé sans nom 17" x1="-401.6" y1="283.8" x2="-400.9" y2="283.8" gradientTransform="translate(-3667.5 -5194.9) rotate(-90) scale(13)" gradientUnits="userSpaceOnUse">
      <stop offset="0" stop-color="#f3997b"/>
      <stop offset=".6" stop-color="#e30613"/>
      <stop offset=".8" stop-color="#c9090e"/>
      <stop offset="1" stop-color="#b90c0b"/>
    </linearGradient>
    <clipPath id="clippath-17">
      <polygon class="st20" points="17.5 13.9 23.4 20.9 25.9 17 17.5 13.9"/>
    </clipPath>
    <linearGradient id="Dégradé_sans_nom_18" data-name="Dégradé sans nom 18" x1="-430.2" y1="339.6" x2="-429.5" y2="339.6" gradientTransform="translate(5060.2 -3962.8) scale(11.7)" gradientUnits="userSpaceOnUse">
      <stop offset="0" stop-color="#9c1006"/>
      <stop offset=".1" stop-color="#9c1006"/>
      <stop offset=".8" stop-color="#e30613"/>
      <stop offset="1" stop-color="#e30613"/>
    </linearGradient>
    <clipPath id="clippath-18">
      <polygon class="st20" points="10.9 16.8 10.4 17.1 17 16.8 10.9 16.8"/>
    </clipPath>
    <linearGradient id="Dégradé_sans_nom_19" data-name="Dégradé sans nom 19" x1="-359.9" y1="290.9" x2="-359.2" y2="290.9" gradientTransform="translate(-3345 2734.8) rotate(-180) scale(9.3)" gradientUnits="userSpaceOnUse">
      <stop offset="0" stop-color="#901004"/>
      <stop offset="0" stop-color="#901004"/>
      <stop offset="1" stop-color="#c71053"/>
    </linearGradient>
    <clipPath id="clippath-19">
      <rect class="st20" x="7.3" y="1" width="25.4" height="38"/>
    </clipPath>
    <clipPath id="clippath-20">
      <polygon class="st20" points="17.6 22.4 17.6 22.4 17.6 22.4 18.3 24.8 19 25.3 20.6 26.3 20.3 25.2 19.7 23.2 19.7 23.2 19.4 22.4 19.4 22.4 19.4 22.4 17.6 22.4"/>
    </clipPath>
    <linearGradient id="Dégradé_sans_nom_20" data-name="Dégradé sans nom 20" x1="-521.3" y1="294.9" x2="-520.6" y2="294.9" gradientTransform="translate(1872.9 -1024.7) scale(3.6)" gradientUnits="userSpaceOnUse">
      <stop offset="0" stop-color="#f3997b"/>
      <stop offset=".6" stop-color="#e30613"/>
      <stop offset="1" stop-color="#9c1006"/>
      <stop offset="1" stop-color="#9c1006"/>
    </linearGradient>
    <clipPath id="clippath-21">
      <polygon class="st20" points="17.3 26.3 20.7 26.3 18.3 24.8 17.3 26.3"/>
    </clipPath>
    <linearGradient id="Dégradé_sans_nom_21" data-name="Dégradé sans nom 21" x1="-505" y1="310.1" x2="-504.3" y2="310.1" gradientTransform="translate(2118.7 1316.1) scale(4.2 -4.2)" gradientUnits="userSpaceOnUse">
      <stop offset="0" stop-color="#e30613"/>
      <stop offset=".5" stop-color="#e10612"/>
      <stop offset=".7" stop-color="#da0711"/>
      <stop offset=".8" stop-color="#ce080f"/>
      <stop offset=".9" stop-color="#bd0b0c"/>
      <stop offset="1" stop-color="#a70e08"/>
      <stop offset="1" stop-color="#9c1006"/>
    </linearGradient>
    <clipPath id="clippath-22">
      <polygon class="st20" points="19.4 22.4 19.7 23.2 20.6 22.4 19.4 22.4"/>
    </clipPath>
    <clipPath id="clippath-23">
      <rect class="st20" x="19.3" y="22.3" width="1.4" height="1"/>
    </clipPath>
    <clipPath id="clippath-24">
      <rect class="st20" x="19.5" y="22.4" width="0" height=".8" transform="translate(-6 7) rotate(-17.6)"/>
    </clipPath>
    <clipPath id="clippath-25">
      <rect class="st20" x="19.3" y="22.3" width=".5" height="1"/>
    </clipPath>
    <clipPath id="clippath-26">
      <rect class="st20" x="7.3" y="1" width="25.4" height="38"/>
    </clipPath>
  </defs>
  <g class="st48">
    <rect class="st33" x="19.7" y="22.4" width="1.4" height="3.1"/>
  </g>
  <g class="st23">
    <rect class="st21" x="17" y="5.7" width="3.2" height="9.1"/>
  </g>
  <g class="st43">
    <rect class="st38" x="17.6" y="1" width="3.7" height="5.3"/>
  </g>
  <g class="st28">
    <rect class="st34" x="10.2" y="15.5" width="5.8" height=".3"/>
  </g>
  <g class="st6">
    <rect class="st41" x="10.2" y="15.5" width="6.7" height="4.7"/>
  </g>
  <g class="st24">
    <rect class="st11" x="15.1" y="3.8" width="11.7" height="13.5" transform="translate(-2.5 11.9) rotate(-30)"/>
  </g>
  <g class="st1">
    <rect class="st10" x="12.2" y="10" width="4.8" height="7.1"/>
  </g>
  <g class="st2">
    <rect class="st49" x="8.6" y="9.9" width="7.6" height="7.2"/>
  </g>
  <g class="st26">
    <rect class="st30" x="7.8" y="9.9" width="2.4" height="4.2"/>
  </g>
  <g class="st13">
    <rect class="st45" x="17.2" y="22.4" width="5.7" height="5.7" transform="translate(-12 21.6) rotate(-45)"/>
  </g>
  <g class="st14">
    <rect class="st7" x="20.4" y="1" width="3.2" height="3.6"/>
  </g>
  <g class="st19">
    <rect class="st36" x="21.3" y="3.4" width="2.2" height="4.6"/>
  </g>
  <g class="st31">
    <rect class="st16" x="23" y="4.5" width="2" height="1.1"/>
  </g>
  <g class="st44">
    <rect class="st12" x="22.7" y="5.5" width="2.3" height="1.3"/>
  </g>
  <g class="st32">
    <rect class="st40" x="10.4" y="16.8" width="6.6" height="5.6"/>
  </g>
  <g class="st4">
    <rect class="st37" x="21.3" y="4.6" width="5" height="16.3"/>
  </g>
  <g class="st42">
    <rect class="st47" x="15.3" y="12.9" width="9.8" height="10.5" transform="translate(-6.4 12.5) rotate(-30)"/>
  </g>
  <g class="st3">
    <rect class="st27" x="17.5" y="13.9" width="8.3" height="7"/>
  </g>
  <g class="st5">
    <rect class="st22" x="10.4" y="16.8" width="6.6" height=".3"/>
  </g>
  <g class="st35">
    <path class="st17" d="M22,5c0,.2.2.3.3.3s.3-.2.3-.3-.2-.3-.3-.3-.3.2-.3.3"/>
  </g>
  <g class="st25">
    <rect class="st15" x="16.7" y="21.9" width="4.8" height="4.8" transform="translate(-11.6 20.7) rotate(-45)"/>
  </g>
  <g class="st0">
    <rect class="st39" x="17.2" y="24.1" width="3.7" height="2.9" transform="translate(-10.2 12.9) rotate(-30)"/>
  </g>
  <g class="st8">
    <g class="st9">
      <image width="9" height="6" transform="translate(19.3 23.3) scale(.2 -.2)" xlink:href="la-french-tech-1.png"/>
    </g>
  </g>
  <g class="st46">
    <g class="st18">
      <image width="3" height="6" transform="translate(19.3 23.3) scale(.2 -.2)" xlink:href="la-french-tech-2.png"/>
    </g>
  </g>
  <polygon points="7.8 21.9 8.6 21.9 8.6 25.4 10.3 25.4 10.3 26.2 7.8 26.2 7.8 21.9"/>
  <path d="M12.4,21.9h1.2l1.6,4.3h-.9l-.4-1.1h-1.7l-.4,1.1h-.9l1.6-4.3ZM13.6,24.4l-.6-1.6-.6,1.6h1.2Z"/>
  <polygon points="7.8 28.3 10.3 28.3 10.3 29 8.6 29 8.6 30 10 30 10 30.8 8.6 30.8 8.6 32.6 7.8 32.6 7.8 28.3"/>
  <g class="st29">
    <path d="M11.1,28.3h1.3c1,0,1.5.5,1.5,1.3s-.3.9-.7,1.1l1.4,1.9h-1.1l-1.2-1.8h-.5v1.8h-.9v-4.3ZM12,29v1.1h.5c.4,0,.6-.2.6-.6s-.2-.5-.6-.5h-.5Z"/>
    <polygon points="15.3 28.3 17.8 28.3 17.8 29 16.2 29 16.2 30 17.6 30 17.6 30.8 16.2 30.8 16.2 31.9 17.8 31.9 17.8 32.6 15.3 32.6 15.3 28.3"/>
    <polygon points="18.9 28.3 20 28.3 22 31.4 22 28.3 22.9 28.3 22.9 32.6 21.7 32.6 19.8 29.5 19.8 32.6 18.9 32.6 18.9 28.3"/>
    <path d="M27.2,31.3l.7.5c-.4.5-1,.9-1.8.9-1.4,0-2.3-1.1-2.3-2.3s.9-2.3,2.3-2.3,1.4.4,1.8.9l-.7.5c-.2-.4-.6-.6-1.1-.6-.8,0-1.4.6-1.4,1.5s.6,1.5,1.4,1.5.9-.2,1.1-.6"/>
    <polygon points="28.7 28.3 29.6 28.3 29.6 30 31.8 30 31.8 28.3 32.7 28.3 32.7 32.6 31.8 32.6 31.8 30.8 29.6 30.8 29.6 32.6 28.7 32.6 28.7 28.3"/>
    <polygon points="7.3 34.7 10.9 34.7 10.9 35.5 9.5 35.5 9.5 39 8.7 39 8.7 35.5 7.3 35.5 7.3 34.7"/>
    <polygon points="11.7 34.7 14.2 34.7 14.2 35.4 12.6 35.4 12.6 36.4 14 36.4 14 37.2 12.6 37.2 12.6 38.3 14.2 38.3 14.2 39 11.7 39 11.7 34.7"/>
    <path d="M18.3,37.7l.7.5c-.4.5-1,.9-1.8.9-1.4,0-2.3-1.1-2.3-2.3s.9-2.3,2.3-2.3,1.4.4,1.8.9l-.7.5c-.2-.4-.6-.6-1.1-.6-.8,0-1.4.6-1.4,1.5s.6,1.5,1.4,1.5.9-.2,1.1-.6"/>
    <polygon points="19.8 34.7 20.7 34.7 20.7 36.4 22.9 36.4 22.9 34.7 23.8 34.7 23.8 39 22.9 39 22.9 37.2 20.7 37.2 20.7 39 19.8 39 19.8 34.7"/>
  </g>
</svg>